<?xml version="1.0" encoding="utf-8"?>
<!-- Generator: Adobe Illustrator 15.0.0, SVG Export Plug-In . SVG Version: 6.00 Build 0)  -->
<!DOCTYPE svg PUBLIC "-//W3C//DTD SVG 1.1//EN" "http://www.w3.org/Graphics/SVG/1.1/DTD/svg11.dtd">
<svg version="1.1" id="Layer_1" xmlns="http://www.w3.org/2000/svg" xmlns:xlink="http://www.w3.org/1999/xlink" x="0px" y="0px"
	 width="675px" height="390.15px" viewBox="0 0 675 390.15" enable-background="new 0 0 675 390.15" xml:space="preserve">
<g>
	<rect fill="#FC751A" width="674.74" height="390"/>
</g>
<g>
	<g>
		<path fill="#2C1200" d="M393.195,241.924v-6.801h-2.309v-0.885h5.635v0.885h-2.311v6.801H393.195z"/>
	</g>
	<g>
		<path fill="#2C1200" d="M397.47,241.924v-7.687h1.016v3.26h4.231v-3.26h1.015v7.687h-1.015v-3.541h-4.231v3.541H397.47z"/>
	</g>
	<g>
		<path fill="#2C1200" d="M405.266,241.924v-7.687h5.396v0.885h-4.383v2.375h3.811v0.885h-3.811v2.656h4.491v0.885H405.266z"/>
	</g>
	<g>
		<path fill="#2C1200" d="M367.612,254.879l2.929-7.687h1.088l2.784,7.687h-1.087l-0.82-2.354h-2.942l-0.868,2.354H367.612z
			 M372.198,251.64l-1.112-3.184h-0.021l-1.177,3.184H372.198z"/>
	</g>
	<g>
		<path fill="#2C1200" d="M375.269,254.879v-7.687h1.025l4.071,6.065l0.021,0.002v-6.068h0.95v7.687h-1.016l-4.08-6.062
			l-0.021,0.005v6.057H375.269z"/>
	</g>
	<g>
		<path fill="#2C1200" d="M382.87,254.879v-7.687h2.903c1.13,0,1.991,0.36,2.581,1.08c0.547,0.669,0.821,1.604,0.821,2.807
			c0,1.145-0.281,2.051-0.844,2.721c-0.597,0.72-1.45,1.08-2.559,1.08H382.87z M383.883,248.077v5.917h1.717
			c1.648,0,2.473-1.005,2.473-3.013c0-1.936-0.795-2.904-2.386-2.904H383.883z"/>
	</g>
	<g>
		<path fill="#2C1200" d="M390.469,254.879v-7.687h5.399v0.885h-4.384v2.375h3.812v0.885h-3.812v2.657h4.49v0.885H390.469z"/>
	</g>
	<g>
		<path fill="#2C1200" d="M397.067,254.879v-7.687h3.475c0.706,0,1.271,0.151,1.695,0.454c0.519,0.374,0.778,0.961,0.778,1.759
			c0,1.239-0.595,1.955-1.782,2.149l2.122,3.325h-1.23l-2.079-3.26h-1.965v3.26H397.067z M398.081,248.077v2.657h2.299
			c1.08,0,1.62-0.443,1.62-1.329s-0.54-1.328-1.62-1.328H398.081z"/>
	</g>
	<g>
		<path fill="#2C1200" d="M410.15,249.395l-1.047,0.054c-0.029-0.54-0.234-0.953-0.614-1.241c-0.346-0.259-0.804-0.388-1.371-0.388
			c-0.447,0-0.825,0.079-1.135,0.237c-0.389,0.202-0.582,0.508-0.582,0.918c0,0.54,0.42,0.925,1.262,1.155
			c0.784,0.208,1.568,0.417,2.354,0.626c0.841,0.374,1.264,1.019,1.264,1.933c0,0.763-0.312,1.364-0.93,1.803
			c-0.554,0.388-1.229,0.582-2.029,0.582c-0.979,0-1.757-0.201-2.332-0.604c-0.647-0.46-1.003-1.155-1.068-2.084l1.101-0.097
			c0.051,1.31,0.803,1.965,2.257,1.965c0.532,0,0.972-0.118,1.316-0.356c0.389-0.273,0.584-0.666,0.584-1.177
			c0-0.576-0.422-0.982-1.265-1.22c-0.784-0.201-1.568-0.399-2.353-0.593c-0.842-0.339-1.263-0.911-1.263-1.717
			c0-0.698,0.291-1.249,0.875-1.651c0.519-0.361,1.143-0.541,1.877-0.541c0.843,0,1.53,0.191,2.062,0.572
			C409.704,247.987,410.049,248.595,410.15,249.395z"/>
	</g>
	<g>
		<path fill="#2C1200" d="M411.23,251.036c0-1.209,0.347-2.184,1.043-2.926c0.693-0.742,1.634-1.112,2.821-1.112
			c1.188,0,2.128,0.371,2.823,1.112c0.694,0.742,1.041,1.717,1.041,2.926s-0.347,2.184-1.041,2.925
			c-0.695,0.742-1.635,1.112-2.823,1.112c-1.188,0-2.128-0.37-2.821-1.112C411.577,253.22,411.23,252.245,411.23,251.036z
			 M412.331,251.036c0,0.914,0.223,1.662,0.67,2.246c0.496,0.647,1.195,0.972,2.094,0.972c0.9,0,1.598-0.324,2.095-0.972
			c0.446-0.583,0.669-1.332,0.669-2.246c0-0.914-0.223-1.663-0.669-2.246c-0.497-0.647-1.194-0.971-2.095-0.971
			c-0.898,0-1.598,0.323-2.094,0.971C412.553,249.373,412.331,250.122,412.331,251.036z"/>
	</g>
	<g>
		<path fill="#2C1200" d="M420.255,254.879v-7.687h1.024l4.071,6.065l0.022,0.002v-6.068h0.949v7.687h-1.017l-4.079-6.062
			l-0.021,0.005v6.057H420.255z"/>
	</g>
	<g>
		<path fill="#2C1200" d="M433.741,249.395l-1.048,0.054c-0.029-0.54-0.234-0.953-0.616-1.241c-0.346-0.259-0.803-0.388-1.371-0.388
			c-0.447,0-0.824,0.079-1.133,0.237c-0.391,0.202-0.584,0.508-0.584,0.918c0,0.54,0.422,0.925,1.264,1.155
			c0.784,0.208,1.568,0.417,2.353,0.626c0.843,0.374,1.264,1.019,1.264,1.933c0,0.763-0.31,1.364-0.928,1.803
			c-0.555,0.388-1.231,0.582-2.03,0.582c-0.979,0-1.756-0.201-2.332-0.604c-0.648-0.46-1.004-1.155-1.068-2.084l1.102-0.097
			c0.049,1.31,0.802,1.965,2.255,1.965c0.533,0,0.973-0.118,1.318-0.356c0.389-0.273,0.583-0.666,0.583-1.177
			c0-0.576-0.421-0.982-1.264-1.22c-0.784-0.201-1.569-0.399-2.354-0.593c-0.843-0.339-1.263-0.911-1.263-1.717
			c0-0.698,0.292-1.249,0.874-1.651c0.519-0.361,1.145-0.541,1.879-0.541c0.843,0,1.528,0.191,2.062,0.572
			C433.293,247.987,433.638,248.595,433.741,249.395z"/>
	</g>
</g>
<g>
	<g>
		<path fill="#2C1200" d="M113.368,264.608v-6.801h-2.311v-0.885h5.635v0.885h-2.31v6.801H113.368z"/>
	</g>
	<g>
		<path fill="#2C1200" d="M117.643,264.608v-7.687h1.015v3.26h4.232v-3.26h1.015v7.687h-1.015v-3.541h-4.232v3.541H117.643z"/>
	</g>
	<g>
		<path fill="#2C1200" d="M125.437,264.608v-7.687h5.397v0.885h-4.383v2.375h3.811v0.885h-3.811v2.656h4.491v0.885H125.437z"/>
	</g>
	<g>
		<path fill="#2C1200" d="M107.738,272.079l-1.047,0.054c-0.029-0.54-0.234-0.954-0.616-1.242c-0.346-0.259-0.803-0.389-1.371-0.389
			c-0.446,0-0.824,0.079-1.134,0.237c-0.388,0.202-0.583,0.508-0.583,0.918c0,0.54,0.421,0.925,1.263,1.155
			c0.785,0.208,1.569,0.417,2.354,0.626c0.842,0.375,1.263,1.018,1.263,1.932c0,0.763-0.31,1.364-0.929,1.804
			c-0.554,0.388-1.23,0.582-2.029,0.582c-0.979,0-1.756-0.201-2.332-0.604c-0.648-0.46-1.004-1.155-1.069-2.083l1.101-0.097
			c0.051,1.31,0.803,1.964,2.256,1.964c0.533,0,0.972-0.118,1.317-0.356c0.389-0.273,0.583-0.666,0.583-1.176
			c0-0.576-0.42-0.983-1.263-1.221c-0.785-0.201-1.569-0.398-2.354-0.593c-0.843-0.338-1.263-0.91-1.263-1.716
			c0-0.698,0.291-1.249,0.875-1.652c0.518-0.359,1.145-0.54,1.878-0.54c0.842,0,1.529,0.191,2.062,0.572
			C107.291,270.672,107.636,271.28,107.738,272.079z"/>
	</g>
	<g>
		<path fill="#2C1200" d="M109.087,277.563v-7.687h1.339l2.358,6.241l2.358-6.241h1.339v7.687h-1.015v-6.186l-0.021-0.012
			l-2.25,6.198h-0.822l-2.25-6.198l-0.022,0.012v6.186H109.087z"/>
	</g>
	<g>
		<path fill="#2C1200" d="M118.155,277.563v-7.687h1.015v7.687H118.155z"/>
	</g>
	<g>
		<path fill="#2C1200" d="M122.549,277.563v-6.802h-2.31v-0.885h5.635v0.885h-2.311v6.802H122.549z"/>
	</g>
	<g>
		<path fill="#2C1200" d="M126.824,277.563v-7.687h1.015v3.261h4.232v-3.261h1.015v7.687h-1.015v-3.541h-4.232v3.541H126.824z"/>
	</g>
	<g>
		<path fill="#2C1200" d="M140.503,272.079l-1.048,0.054c-0.029-0.54-0.234-0.954-0.615-1.242c-0.345-0.259-0.803-0.389-1.371-0.389
			c-0.446,0-0.824,0.079-1.133,0.237c-0.389,0.202-0.583,0.508-0.583,0.918c0,0.54,0.421,0.925,1.263,1.155
			c0.785,0.208,1.569,0.417,2.354,0.626c0.842,0.375,1.263,1.018,1.263,1.932c0,0.763-0.309,1.364-0.928,1.804
			c-0.554,0.388-1.231,0.582-2.029,0.582c-0.979,0-1.756-0.201-2.332-0.604c-0.647-0.46-1.004-1.155-1.068-2.083l1.101-0.097
			c0.05,1.31,0.802,1.964,2.256,1.964c0.533,0,0.972-0.118,1.317-0.356c0.389-0.273,0.583-0.666,0.583-1.176
			c0-0.576-0.421-0.983-1.263-1.221c-0.785-0.201-1.569-0.398-2.354-0.593c-0.842-0.338-1.263-0.91-1.263-1.716
			c0-0.698,0.292-1.249,0.875-1.652c0.518-0.359,1.144-0.54,1.878-0.54c0.842,0,1.529,0.191,2.062,0.572
			C140.056,270.672,140.402,271.28,140.503,272.079z"/>
	</g>
</g>
<g>
	<g>
		<path fill="#2C1200" d="M114.782,132.825v-6.802h-2.31v-0.885h5.635v0.885h-2.311v6.802H114.782z"/>
	</g>
	<g>
		<path fill="#2C1200" d="M119.057,132.825v-7.687h1.015v3.26h4.233v-3.26h1.015v7.687h-1.015v-3.542h-4.233v3.542H119.057z"/>
	</g>
	<g>
		<path fill="#2C1200" d="M126.851,132.825v-7.687h5.398v0.885h-4.383v2.375h3.811v0.885h-3.811v2.656h4.491v0.885H126.851z"/>
	</g>
	<g>
		<path fill="#2C1200" d="M101.292,145.779v-6.802h-2.31v-0.885h5.635v0.885h-2.311v6.802H101.292z"/>
	</g>
	<g>
		<path fill="#2C1200" d="M104.108,145.779l2.928-7.687h1.088l2.784,7.687h-1.086L109,143.425h-2.942l-0.868,2.354H104.108z
			 M108.692,142.541l-1.111-3.185h-0.021l-1.175,3.185H108.692z"/>
	</g>
	<g>
		<path fill="#2C1200" d="M113.093,145.779v-3.542l-2.769-4.145h1.219l2.057,3.185l2.057-3.185h1.22l-2.769,4.145v3.542H113.093z"/>
	</g>
	<g>
		<path fill="#2C1200" d="M117.746,145.779v-7.687h1.015v6.801h3.833v0.885H117.746z"/>
	</g>
	<g>
		<path fill="#2C1200" d="M123.51,141.936c0-1.208,0.347-2.184,1.042-2.925c0.695-0.742,1.636-1.112,2.823-1.112
			s2.128,0.37,2.823,1.112c0.695,0.741,1.042,1.716,1.042,2.925c0,1.209-0.347,2.185-1.042,2.926
			c-0.695,0.742-1.635,1.112-2.823,1.112s-2.128-0.37-2.823-1.112C123.857,144.12,123.51,143.145,123.51,141.936z M124.612,141.936
			c0,0.915,0.223,1.663,0.669,2.246c0.497,0.648,1.194,0.972,2.095,0.972c0.899,0,1.598-0.324,2.094-0.972
			c0.446-0.583,0.669-1.331,0.669-2.246c0-0.914-0.223-1.662-0.669-2.245c-0.497-0.648-1.195-0.972-2.094-0.972
			c-0.9,0-1.598,0.324-2.095,0.972C124.834,140.273,124.612,141.022,124.612,141.936z"/>
	</g>
	<g>
		<path fill="#2C1200" d="M132.536,145.779v-7.687h3.476c0.705,0,1.27,0.151,1.695,0.454c0.518,0.374,0.777,0.96,0.777,1.759
			c0,1.238-0.594,1.954-1.782,2.148l2.122,3.325h-1.229l-2.08-3.26h-1.964v3.26H132.536z M133.551,138.978v2.656h2.299
			c1.08,0,1.62-0.443,1.62-1.328s-0.54-1.328-1.62-1.328H133.551z"/>
	</g>
	<g>
		<path fill="#2C1200" d="M145.621,140.295l-1.048,0.054c-0.028-0.54-0.234-0.954-0.615-1.242c-0.346-0.259-0.802-0.389-1.371-0.389
			c-0.446,0-0.824,0.08-1.133,0.237c-0.389,0.202-0.583,0.508-0.583,0.917c0,0.54,0.421,0.925,1.263,1.155
			c0.784,0.209,1.569,0.418,2.354,0.626c0.842,0.374,1.263,1.019,1.263,1.933c0,0.763-0.31,1.364-0.928,1.803
			c-0.555,0.389-1.231,0.583-2.03,0.583c-0.979,0-1.756-0.201-2.332-0.604c-0.647-0.46-1.004-1.155-1.069-2.083l1.101-0.097
			c0.05,1.31,0.803,1.964,2.256,1.964c0.532,0,0.972-0.119,1.317-0.356c0.389-0.273,0.583-0.666,0.583-1.177
			c0-0.576-0.421-0.982-1.263-1.221c-0.785-0.201-1.569-0.398-2.354-0.593c-0.842-0.339-1.263-0.911-1.263-1.717
			c0-0.698,0.292-1.249,0.875-1.652c0.518-0.36,1.144-0.54,1.878-0.54c0.842,0,1.529,0.191,2.062,0.572
			C145.174,138.888,145.52,139.496,145.621,140.295z"/>
	</g>
</g>
<g>
	<g>
		<path fill="#2C1200" d="M545.189,241.844v-6.801h-2.311v-0.885h5.635v0.885h-2.309v6.801H545.189z"/>
	</g>
	<g>
		<path fill="#2C1200" d="M549.464,241.844v-7.686h1.016v3.26h4.231v-3.26h1.014v7.686h-1.014v-3.541h-4.231v3.541H549.464z"/>
	</g>
	<g>
		<path fill="#2C1200" d="M557.258,241.844v-7.686h5.398v0.885h-4.383v2.375h3.812v0.885h-3.812v2.656h4.49v0.885H557.258z"/>
	</g>
	<g>
		<path fill="#2C1200" d="M536.062,254.799v-7.687h3.477c0.704,0,1.27,0.151,1.695,0.453c0.517,0.375,0.776,0.961,0.776,1.76
			c0,1.238-0.594,1.955-1.781,2.148l2.121,3.325h-1.229l-2.08-3.26h-1.964v3.26H536.062z M537.077,247.998v2.656h2.3
			c1.079,0,1.619-0.443,1.619-1.328c0-0.886-0.54-1.328-1.619-1.328H537.077z"/>
	</g>
	<g>
		<path fill="#2C1200" d="M543.262,254.799v-7.687h5.398v0.885h-4.383v2.375h3.812v0.885h-3.812v2.656h4.49v0.885H543.262z"/>
	</g>
	<g>
		<path fill="#2C1200" d="M549.858,254.799v-7.687h5.398v0.885h-4.383v2.375h3.811v0.885h-3.811v2.656h4.491v0.885H549.858z"/>
	</g>
	<g>
		<path fill="#2C1200" d="M556.455,254.799v-7.687h2.905c1.13,0,1.988,0.36,2.579,1.08c0.548,0.669,0.82,1.604,0.82,2.806
			c0,1.145-0.281,2.052-0.842,2.722c-0.599,0.719-1.451,1.079-2.558,1.079H556.455z M557.469,247.998v5.917h1.718
			c1.648,0,2.472-1.004,2.472-3.013c0-1.935-0.797-2.904-2.386-2.904H557.469z"/>
	</g>
	<g>
		<path fill="#2C1200" d="M569.939,249.315l-1.047,0.054c-0.029-0.54-0.233-0.954-0.617-1.242c-0.346-0.259-0.802-0.389-1.369-0.389
			c-0.446,0-0.825,0.08-1.135,0.238c-0.388,0.202-0.582,0.507-0.582,0.918c0,0.54,0.42,0.925,1.263,1.155
			c0.784,0.208,1.568,0.417,2.354,0.626c0.842,0.374,1.264,1.018,1.264,1.933c0,0.763-0.311,1.363-0.93,1.803
			c-0.554,0.389-1.23,0.583-2.028,0.583c-0.98,0-1.757-0.201-2.333-0.605c-0.647-0.46-1.003-1.155-1.068-2.083l1.102-0.097
			c0.051,1.31,0.803,1.965,2.256,1.965c0.533,0,0.972-0.119,1.317-0.356c0.388-0.274,0.582-0.666,0.582-1.178
			c0-0.575-0.42-0.982-1.262-1.22c-0.786-0.201-1.57-0.399-2.354-0.593c-0.842-0.338-1.262-0.911-1.262-1.717
			c0-0.698,0.29-1.25,0.874-1.652c0.519-0.36,1.144-0.54,1.878-0.54c0.842,0,1.53,0.191,2.062,0.573
			C569.492,247.908,569.837,248.516,569.939,249.315z"/>
	</g>
</g>
<g>
	<g>
		<path fill="#2C1200" d="M235.008,242.004v-6.802h-2.31v-0.885h5.635v0.885h-2.311v6.802H235.008z"/>
	</g>
	<g>
		<path fill="#2C1200" d="M239.283,242.004v-7.687h1.015v3.261h4.232v-3.261h1.014v7.687h-1.014v-3.541h-4.232v3.541H239.283z"/>
	</g>
	<g>
		<path fill="#2C1200" d="M247.078,242.004v-7.687h5.398v0.885h-4.384v2.376h3.812v0.885h-3.812v2.656h4.491v0.885H247.078z"/>
	</g>
	<g>
		<path fill="#2C1200" d="M219.922,254.958l-2.363-7.686h1.083l1.797,6.002h0.021l1.938-6.002h1.047l1.938,6.002h0.021l1.798-6.002
			h1.082l-2.363,7.686h-1.004l-1.984-6.282h-0.036l-1.973,6.282H219.922z"/>
	</g>
	<g>
		<path fill="#2C1200" d="M229.2,254.958v-7.686h1.016v7.686H229.2z"/>
	</g>
	<g>
		<path fill="#2C1200" d="M231.867,254.958v-7.686h1.015v6.801h3.832v0.885H231.867z"/>
	</g>
	<g>
		<path fill="#2C1200" d="M243.753,249.475l-1.047,0.054c-0.029-0.54-0.234-0.954-0.616-1.242c-0.345-0.259-0.802-0.389-1.371-0.389
			c-0.446,0-0.824,0.08-1.133,0.238c-0.39,0.201-0.583,0.507-0.583,0.917c0,0.54,0.422,0.925,1.263,1.156
			c0.784,0.208,1.57,0.416,2.354,0.625c0.842,0.375,1.263,1.019,1.263,1.932c0,0.764-0.31,1.365-0.928,1.804
			c-0.556,0.388-1.231,0.583-2.03,0.583c-0.979,0-1.756-0.202-2.332-0.605c-0.648-0.461-1.005-1.155-1.069-2.083l1.101-0.097
			c0.05,1.31,0.803,1.964,2.257,1.964c0.532,0,0.972-0.118,1.317-0.356c0.389-0.273,0.583-0.665,0.583-1.177
			c0-0.575-0.421-0.982-1.264-1.22c-0.784-0.202-1.57-0.399-2.354-0.594c-0.841-0.338-1.263-0.911-1.263-1.716
			c0-0.698,0.292-1.249,0.875-1.652c0.519-0.36,1.145-0.54,1.879-0.54c0.842,0,1.529,0.191,2.062,0.572
			C243.307,248.068,243.651,248.676,243.753,249.475z"/>
	</g>
	<g>
		<path fill="#2C1200" d="M244.833,251.116c0-1.209,0.347-2.185,1.042-2.926c0.694-0.741,1.636-1.112,2.823-1.112
			s2.129,0.371,2.823,1.112c0.694,0.741,1.042,1.717,1.042,2.926c0,1.209-0.348,2.184-1.042,2.925
			c-0.694,0.741-1.636,1.112-2.823,1.112s-2.129-0.371-2.823-1.112C245.179,253.3,244.833,252.325,244.833,251.116z
			 M245.934,251.116c0,0.914,0.223,1.663,0.669,2.245c0.496,0.648,1.195,0.971,2.094,0.971c0.9,0,1.598-0.323,2.094-0.971
			c0.446-0.583,0.669-1.331,0.669-2.245c0-0.915-0.223-1.663-0.669-2.246c-0.496-0.647-1.194-0.972-2.094-0.972
			c-0.899,0-1.598,0.324-2.094,0.972C246.157,249.453,245.934,250.201,245.934,251.116z"/>
	</g>
	<g>
		<path fill="#2C1200" d="M253.858,254.958v-7.686h1.026l4.07,6.064l0.021,0.002v-6.067h0.95v7.686h-1.015l-4.082-6.061
			l-0.021,0.004v6.056H253.858z"/>
	</g>
	<g>
		<path fill="#2C1200" d="M267.342,249.475l-1.047,0.054c-0.029-0.54-0.234-0.954-0.616-1.242c-0.346-0.259-0.802-0.389-1.37-0.389
			c-0.447,0-0.825,0.08-1.134,0.238c-0.388,0.201-0.582,0.507-0.582,0.917c0,0.54,0.42,0.925,1.263,1.156
			c0.785,0.208,1.569,0.416,2.353,0.625c0.842,0.375,1.264,1.019,1.264,1.932c0,0.764-0.31,1.365-0.929,1.804
			c-0.554,0.388-1.231,0.583-2.029,0.583c-0.98,0-1.757-0.202-2.333-0.605c-0.647-0.461-1.003-1.155-1.069-2.083l1.102-0.097
			c0.05,1.31,0.803,1.964,2.256,1.964c0.534,0,0.972-0.118,1.318-0.356c0.388-0.273,0.583-0.665,0.583-1.177
			c0-0.575-0.42-0.982-1.263-1.22c-0.784-0.202-1.568-0.399-2.354-0.594c-0.842-0.338-1.264-0.911-1.264-1.716
			c0-0.698,0.292-1.249,0.875-1.652c0.517-0.36,1.145-0.54,1.878-0.54c0.842,0,1.53,0.191,2.062,0.572
			C266.896,248.068,267.241,248.676,267.342,249.475z"/>
	</g>
</g>
<g>
	<g>
		<path fill="#2C1200" d="M438.764,109.519v-6.801h-2.311v-0.886h5.636v0.886h-2.311v6.801H438.764z"/>
	</g>
	<g>
		<path fill="#2C1200" d="M443.04,109.519v-7.687h1.014v3.26h4.231v-3.26h1.017v7.687h-1.017v-3.541h-4.231v3.541H443.04z"/>
	</g>
	<g>
		<path fill="#2C1200" d="M450.833,109.519v-7.687h5.399v0.886h-4.384v2.375h3.81v0.886h-3.81v2.656h4.489v0.885H450.833z"/>
	</g>
	<g>
		<path fill="#2C1200" d="M419.181,120.207v-5.419h1.015v6.023c0,0.519-0.17,0.947-0.507,1.285
			c-0.375,0.381-0.904,0.573-1.587,0.573c-0.361,0-0.707-0.037-1.037-0.108v-1.112c0.266,0.137,0.564,0.205,0.896,0.205
			c0.481,0,0.812-0.129,0.991-0.389C419.104,121.055,419.181,120.703,419.181,120.207z"/>
	</g>
	<g>
		<path fill="#2C1200" d="M421.611,118.63c0-1.209,0.347-2.185,1.041-2.925c0.694-0.742,1.635-1.112,2.823-1.112
			c1.187,0,2.129,0.371,2.822,1.112c0.694,0.741,1.043,1.716,1.043,2.925s-0.349,2.185-1.043,2.926
			c-0.693,0.741-1.636,1.112-2.822,1.112c-1.188,0-2.129-0.371-2.823-1.112S421.611,119.839,421.611,118.63z M422.711,118.63
			c0,0.914,0.224,1.663,0.669,2.246c0.496,0.647,1.194,0.971,2.095,0.971c0.898,0,1.598-0.324,2.094-0.971
			c0.446-0.583,0.669-1.332,0.669-2.246c0-0.914-0.223-1.663-0.669-2.246c-0.496-0.648-1.195-0.971-2.094-0.971
			c-0.9,0-1.599,0.323-2.095,0.971C422.935,116.967,422.711,117.716,422.711,118.63z"/>
	</g>
	<g>
		<path fill="#2C1200" d="M430.634,122.473v-7.686h1.016v3.26h4.231v-3.26h1.016v7.686h-1.016v-3.541h-4.231v3.541H430.634z"/>
	</g>
	<g>
		<path fill="#2C1200" d="M438.428,122.473v-7.686h1.027l4.069,6.064l0.022,0.002v-6.067h0.95v7.686h-1.016l-4.08-6.062
			l-0.022,0.005v6.056H438.428z"/>
	</g>
	<g>
		<path fill="#2C1200" d="M451.914,116.989l-1.047,0.054c-0.03-0.54-0.235-0.953-0.615-1.241c-0.346-0.259-0.803-0.389-1.371-0.389
			c-0.446,0-0.824,0.079-1.135,0.237c-0.389,0.202-0.582,0.508-0.582,0.918c0,0.54,0.421,0.924,1.262,1.154
			c0.784,0.209,1.571,0.418,2.355,0.627c0.843,0.374,1.263,1.019,1.263,1.932c0,0.763-0.311,1.364-0.929,1.803
			c-0.555,0.389-1.229,0.583-2.03,0.583c-0.979,0-1.757-0.202-2.33-0.605c-0.649-0.46-1.005-1.155-1.069-2.083l1.101-0.097
			c0.05,1.31,0.802,1.965,2.257,1.965c0.532,0,0.971-0.119,1.316-0.356c0.388-0.273,0.583-0.666,0.583-1.176
			c0-0.576-0.421-0.983-1.264-1.22c-0.785-0.201-1.569-0.399-2.354-0.594c-0.842-0.338-1.262-0.911-1.262-1.717
			c0-0.698,0.29-1.249,0.874-1.651c0.519-0.36,1.144-0.541,1.879-0.541c0.841,0,1.529,0.191,2.061,0.572
			C451.466,115.583,451.812,116.19,451.914,116.989z"/>
	</g>
	<g>
		<path fill="#2C1200" d="M452.993,118.63c0-1.209,0.347-2.185,1.043-2.925c0.694-0.742,1.634-1.112,2.821-1.112
			c1.188,0,2.129,0.371,2.824,1.112c0.694,0.741,1.042,1.716,1.042,2.925s-0.348,2.185-1.042,2.926
			c-0.695,0.741-1.636,1.112-2.824,1.112c-1.188,0-2.127-0.371-2.821-1.112C453.339,120.814,452.993,119.839,452.993,118.63z
			 M454.095,118.63c0,0.914,0.222,1.663,0.668,2.246c0.496,0.647,1.195,0.971,2.094,0.971c0.9,0,1.598-0.324,2.096-0.971
			c0.446-0.583,0.669-1.332,0.669-2.246c0-0.914-0.223-1.663-0.669-2.246c-0.498-0.648-1.195-0.971-2.096-0.971
			c-0.898,0-1.598,0.323-2.094,0.971C454.317,116.967,454.095,117.716,454.095,118.63z"/>
	</g>
	<g>
		<path fill="#2C1200" d="M462.018,122.473v-7.686h1.026l4.069,6.064l0.022,0.002v-6.067h0.949v7.686h-1.014l-4.082-6.062
			l-0.021,0.005v6.056H462.018z"/>
	</g>
	<g>
		<path fill="#2C1200" d="M475.503,116.989l-1.047,0.054c-0.029-0.54-0.234-0.953-0.617-1.241c-0.346-0.259-0.802-0.389-1.371-0.389
			c-0.446,0-0.823,0.079-1.133,0.237c-0.388,0.202-0.582,0.508-0.582,0.918c0,0.54,0.42,0.924,1.262,1.154
			c0.784,0.209,1.569,0.418,2.354,0.627c0.843,0.374,1.263,1.019,1.263,1.932c0,0.763-0.309,1.364-0.928,1.803
			c-0.555,0.389-1.23,0.583-2.03,0.583c-0.979,0-1.755-0.202-2.331-0.605c-0.649-0.46-1.005-1.155-1.069-2.083l1.102-0.097
			c0.05,1.31,0.802,1.965,2.256,1.965c0.533,0,0.973-0.119,1.317-0.356c0.389-0.273,0.583-0.666,0.583-1.176
			c0-0.576-0.42-0.983-1.263-1.22c-0.784-0.201-1.57-0.399-2.354-0.594c-0.841-0.338-1.263-0.911-1.263-1.717
			c0-0.698,0.292-1.249,0.874-1.651c0.519-0.36,1.145-0.541,1.88-0.541c0.842,0,1.528,0.191,2.062,0.572
			C475.056,115.583,475.402,116.19,475.503,116.989z"/>
	</g>
</g>
<g>
	<path fill="#FC751A" d="M145.983,52.146c-1.316,5.264,1.329,17.125,7.251,21.731c7.238-6.581,17.104-17.301,17.104-17.301v-4.479
		L145.983,52.146z"/>
	<path d="M153.268,74.758l-0.448-0.349c-3.775-2.936-5.738-8.127-6.573-10.961c-1.263-4.288-1.614-8.681-0.918-11.466l0.127-0.51
		l25.557-0.052v5.418l-0.178,0.193c-0.099,0.108-9.97,10.818-17.147,17.344L153.268,74.758z M146.526,52.82
		c-0.979,5.219,1.492,15.671,6.684,20.165c6.553-6.02,15.116-15.228,16.453-16.672v-3.539L146.526,52.82z"/>
</g>
<g>
	<path fill="#FC751A" d="M134.288,214.533c-1.316,5.265,1.328,17.125,7.25,21.731c7.239-6.581,17.105-17.301,17.105-17.301v-4.479
		L134.288,214.533z"/>
	<path d="M141.572,237.145l-0.449-0.348c-3.774-2.936-5.738-8.127-6.572-10.961c-1.263-4.287-1.615-8.681-0.919-11.466l0.128-0.51
		l25.558-0.052v5.418l-0.179,0.193c-0.099,0.107-9.969,10.818-17.147,17.343L141.572,237.145z M134.831,215.207
		c-0.98,5.219,1.492,15.67,6.683,20.165c6.554-6.02,15.117-15.228,16.454-16.673v-3.539L134.831,215.207z"/>
</g>
<g>
	<path fill="#FC751A" d="M305.309,140.26c-7.077-0.006-14.039,1.615-18.646,7.537c17.653,16.135,17.653,16.135,17.653,16.135"/>
	<path d="M303.861,164.43l-18.113-16.556l0.384-0.492c4.081-5.247,10.344-7.798,19.144-7.798c0.012,0,0.022,0,0.035,0l-0.002,1.35
		c-0.011,0-0.021,0-0.032,0c-8.078,0-13.872,2.223-17.69,6.792l17.186,15.707L303.861,164.43z"/>
</g>
<g>
	<path fill="#FC751A" d="M371.61,131.089c0-6.349-2.131-12.794-8.222-16.831c-14.641,17.216-14.641,17.216-14.641,17.216"/>
	<path d="M349.261,131.912l-1.026-0.874l15.026-17.673l0.498,0.331c7.047,4.67,8.525,12.036,8.525,17.394h-1.351
		c0-4.898-1.304-11.578-7.427-15.931L349.261,131.912z"/>
</g>
<g>
	<path fill="#FC751A" d="M383.078,135.01c0.143,3.471,0.746,7.574,4.253,10.279c8.259-9.263,8.259-9.263,8.259-9.263"/>
	<path d="M387.417,146.207l-0.496-0.384c-3.731-2.875-4.373-7.274-4.517-10.785l1.348-0.055c0.132,3.242,0.664,6.858,3.507,9.372
		l7.826-8.778l1.008,0.898L387.417,146.207z"/>
</g>
<g>
	<path fill="#FC751A" d="M357.135,320.783c0.186-7.677-1.329-17.125-7.251-21.731c-17.105,17.301-17.105,17.301-17.105,17.301v4.479
		L357.135,320.783z"/>
	<path d="M332.105,321.508v-5.432l17.721-17.924l0.473,0.368c7.132,5.547,7.629,17.428,7.511,22.279l-0.015,0.658L332.105,321.508z
		 M333.454,316.63v3.525l23.018-0.046c0.048-4.862-0.615-15.061-6.539-20.146L333.454,316.63z"/>
</g>
<g>
	<path fill="#FC751A" d="M492.674,216.694c5.265,1.316,17.125-1.329,21.731-7.251c-6.582-7.239-17.302-17.105-17.302-17.105h-4.478
		L492.674,216.694z"/>
	<path d="M495.833,217.701C495.832,217.701,495.833,217.701,495.833,217.701c-1.272,0-2.39-0.118-3.322-0.352L492,217.222
		l-0.051-25.558h5.417l0.194,0.178c0.107,0.099,10.817,9.97,17.343,17.147l0.383,0.42l-0.349,0.448
		C511.121,214.767,502.226,217.701,495.833,217.701z M493.348,216.15c0.719,0.133,1.553,0.201,2.485,0.201
		c5.872,0,13.934-2.565,17.679-6.884c-6.02-6.554-15.227-15.116-16.671-16.453h-3.539L493.348,216.15z"/>
</g>
<g>
	<polygon fill="none" points="72.083,292.275 69.101,292.275 69.101,315.967 110.156,315.967 110.156,312.465 146.497,312.465 
		146.497,315.967 176.61,315.967 176.61,219.48 69.101,219.48 69.101,241.512 72.083,241.512 	"/>
</g>
<g>
	<rect x="497.561" y="173.822" fill="none" width="104.135" height="142.145"/>
</g>
<g>
	<path d="M69.776,76.913h-6.298V51.469h22.547v6.298h-16.25V76.913z M64.828,75.562h3.599V56.417h16.249v-3.599H64.828V75.562z"/>
</g>
<g>
	<path d="M182.233,178.771h-6.298V57.767h-36.661v28.564h-6.298V57.767h-12.535v-6.298h74.608v6.298h-12.817v72.647h28.114v6.298
		h-28.114v31.487h28.114v6.298h-28.114V178.771z M177.285,177.421h3.599v-4.273h28.114v-3.599h-28.114v-34.187h28.114v-3.599
		h-28.114V56.417H193.7v-3.599h-71.91v3.599h12.535v28.564h3.6V56.417h39.359V177.421z"/>
</g>
<g>
	<path d="M310.208,140.985h-6.297v-26.99h6.297v16.419h13.495V57.767h-13.044v33.287h-6.297V57.767h-24.33v-6.298h57.5v6.298H330
		v72.647h19.342v6.298h-39.135V140.985z M305.26,139.636h3.599v-4.273h39.135v-3.599h-19.342V56.417h7.531v-3.599h-54.802v3.599
		h24.328v33.287h3.599V56.417h15.745v75.346h-16.194v-16.418h-3.599V139.636z"/>
</g>
<g>
	<path d="M69.776,153.929h-6.298v-46.64h6.298V153.929z M64.828,152.58h3.599v-43.941h-3.599V152.58z"/>
</g>
<g>
	<path d="M403.547,139.636h-6.298v-2.699h-2.248v-6.297h2.248v-11.246h-15.969v11.021h2.474v6.298h-12.82v-6.298h4.05V57.767
		h-22.649v-6.298h75.763v6.298h-24.55v15.744h-6.298V57.767h-15.969v55.329h15.969v-13.27h6.298V139.636z M398.6,138.286h3.598
		v-37.111H398.6v13.27h-18.668V56.417H398.6v15.744h3.598V56.417h24.55v-3.599h-73.064v3.599h22.649v75.346h-4.048v3.599h10.12
		v-3.599h-2.473v-13.72H398.6v13.945h-2.251v3.599h2.251V138.286z"/>
</g>
<g>
	<path d="M498.235,126.241h-6.297v-26.154h6.297V126.241z M493.288,124.891h3.6v-23.455h-3.6V124.891z"/>
</g>
<g>
	<path d="M310.208,176.746h-6.297v-2.249H227.89v-6.298h4.273v-31.487h-2.924v-6.298h2.924V57.767h-21.157v-6.298h34.034v6.298
		h-6.579v110.432h65.449v-4.948h6.297v4.948h8.772v6.298h-8.772V176.746z M305.26,175.396h3.599v-2.249h8.771v-3.599h-8.771v-4.948
		h-3.599v4.948h-68.149V56.417h6.579v-3.599h-31.335v3.599h21.158v75.346h-2.924v3.599h2.924v34.187h-4.274v3.599h76.021V175.396z"
		/>
</g>
<g>
	<path d="M498.235,76.632h-6.297V57.767h-27.695v-6.298h33.992V76.632z M493.288,75.282h3.6V52.819h-31.295v3.599h27.695V75.282z"/>
</g>
<g>
	<path d="M110.831,321.59H63.479v-29.989h6.298v23.692h41.054V321.59z M64.828,320.241h44.653v-3.599H68.427V292.95h-3.599V320.241z
		"/>
</g>
<g>
	<rect x="85.351" y="51.469" width="35.765" height="1.35"/>
</g>
<g>
	<rect x="85.351" y="56.417" width="35.765" height="1.35"/>
</g>
<g>
	<rect x="194.375" y="57.092" fill="none" width="17.305" height="6.75"/>
</g>
<g>
	<rect x="194.375" y="44.23" fill="none" width="17.305" height="7.914"/>
</g>
<g>
	<rect x="194.375" y="51.469" width="17.305" height="1.35"/>
</g>
<g>
	<rect x="194.375" y="56.417" width="17.305" height="1.35"/>
</g>
<g>
	<rect x="244.365" y="41.346" fill="none" width="36.342" height="10.798"/>
</g>
<g>
	<rect x="244.365" y="57.092" fill="none" width="36.342" height="11.942"/>
</g>
<g>
	<rect x="244.365" y="51.469" width="36.342" height="1.35"/>
</g>
<g>
	<rect x="244.365" y="56.417" width="36.342" height="1.35"/>
</g>
<g>
	<rect x="336.857" y="57.092" fill="none" width="16.151" height="7.904"/>
</g>
<g>
	<rect x="336.857" y="47.114" fill="none" width="16.151" height="5.03"/>
</g>
<g>
	<rect x="336.857" y="51.469" width="16.151" height="1.35"/>
</g>
<g>
	<rect x="336.857" y="56.417" width="16.151" height="1.35"/>
</g>
<g>
	<rect x="427.422" y="57.092" fill="none" width="37.495" height="4.443"/>
</g>
<g>
	<rect x="427.422" y="43.077" fill="none" width="37.495" height="9.067"/>
</g>
<g>
	<rect x="427.422" y="51.469" width="37.495" height="1.35"/>
</g>
<g>
	<rect x="427.422" y="56.417" width="37.495" height="1.35"/>
</g>
<g>
	<rect x="489.721" y="75.957" fill="none" width="2.893" height="24.805"/>
</g>
<g>
	<rect x="497.561" y="75.957" fill="none" width="2.544" height="24.805"/>
</g>
<g>
	<rect x="496.887" y="75.957" width="1.348" height="24.805"/>
</g>
<g>
	<rect x="491.938" y="75.957" width="1.35" height="24.805"/>
</g>
<g>
	<rect x="487.993" y="125.566" fill="none" width="4.621" height="26.535"/>
</g>
<g>
	<rect x="497.561" y="125.566" fill="none" width="3.121" height="26.535"/>
</g>
<g>
	<rect x="496.887" y="125.566" width="1.348" height="26.535"/>
</g>
<g>
	<rect x="491.938" y="125.566" width="1.35" height="26.535"/>
</g>
<g>
	<rect x="378.39" y="320.915" fill="none" width="82.489" height="8.855"/>
</g>
<g>
	<rect x="378.39" y="310.734" fill="none" width="82.489" height="5.233"/>
</g>
<g>
	<rect x="378.39" y="315.293" width="82.489" height="1.349"/>
</g>
<g>
	<rect x="378.39" y="320.241" width="82.489" height="1.349"/>
</g>
<g>
	<rect x="110.156" y="320.915" fill="none" width="36.341" height="4.24"/>
</g>
<g>
	<rect x="110.156" y="312.465" fill="none" width="36.341" height="3.502"/>
</g>
<g>
	<rect x="110.156" y="315.293" width="36.341" height="1.349"/>
</g>
<g>
	<rect x="110.156" y="320.241" width="36.341" height="1.349"/>
</g>
<g>
	<rect x="61.124" y="241.512" fill="none" width="3.03" height="50.763"/>
</g>
<g>
	<rect x="69.101" y="241.512" fill="none" width="2.982" height="50.763"/>
</g>
<g>
	<rect x="68.427" y="241.512" width="1.35" height="50.763"/>
</g>
<g>
	<rect x="63.479" y="241.512" width="1.35" height="50.763"/>
</g>
<g>
	<rect x="61.701" y="76.238" fill="none" width="2.453" height="31.727"/>
</g>
<g>
	<polygon fill="none" points="72.083,91.532 69.101,76.238 69.101,107.964 72.083,123.258 	"/>
</g>
<g>
	<rect x="68.427" y="76.238" width="1.35" height="31.727"/>
</g>
<g>
	<rect x="63.479" y="76.238" width="1.35" height="31.727"/>
</g>
<g>
	<rect x="61.701" y="153.254" fill="none" width="2.453" height="31.728"/>
</g>
<g>
	<rect x="69.101" y="153.254" fill="none" width="2.982" height="31.728"/>
</g>
<g>
	<rect x="68.427" y="153.254" width="1.35" height="31.728"/>
</g>
<g>
	<rect x="63.479" y="153.254" width="1.35" height="31.728"/>
</g>
<g>
	<rect x="194.179" y="53.896" width="17.543" height="1.349"/>
</g>
<g>
	<rect x="244.11" y="53.896" width="36.21" height="1.349"/>
</g>
<g>
	<rect x="337.452" y="53.896" width="15.557" height="1.349"/>
</g>
<g>
	<rect x="494.34" y="76.479" width="1.349" height="24.046"/>
</g>
<g>
	<rect x="494.34" y="126.07" width="1.349" height="25.396"/>
</g>
<g>
	<rect x="610.395" y="196.583" width="1.35" height="24.047"/>
</g>
<g>
	<rect x="610.395" y="265.966" width="1.35" height="25.397"/>
</g>
<g>
	<rect x="427.659" y="53.896" width="37.326" height="1.349"/>
</g>
<g>
	<rect x="85.771" y="53.896" width="35.312" height="1.349"/>
</g>
<g>
	<rect x="111.072" y="317.706" width="35.312" height="1.35"/>
</g>
<g>
	<rect x="210.934" y="317.706" width="12.001" height="1.35"/>
</g>
<g>
	<polygon points="223.022,349.329 219.633,349.329 219.633,321.827 220.982,321.827 220.982,347.979 223.022,347.979 	"/>
</g>
<g>
	<polygon points="264.164,349.329 260.594,349.329 260.594,347.979 262.814,347.979 262.814,321.827 264.164,321.827 	"/>
</g>
<g>
	<rect x="260.415" y="317.706" width="12.001" height="1.35"/>
</g>
<g>
	<rect x="379.268" y="317.706" width="81.655" height="1.35"/>
</g>
<g>
	<rect x="65.862" y="76.281" width="1.35" height="31.677"/>
</g>
<g>
	<rect x="65.862" y="152.982" width="1.35" height="31.676"/>
</g>
<g>
	<rect x="65.862" y="241.706" width="1.349" height="50.1"/>
</g>
<g>
	<g>
		<path fill="#2C1200" d="M263.264,109.45v-6.801h-2.311v-0.885h5.635v0.885h-2.31v6.801H263.264z"/>
	</g>
	<g>
		<path fill="#2C1200" d="M267.54,109.45v-7.686h1.015v3.26h4.232v-3.26h1.014v7.686h-1.014v-3.541h-4.232v3.541H267.54z"/>
	</g>
	<g>
		<path fill="#2C1200" d="M275.333,109.45v-7.686h5.398v0.885h-4.383v2.375h3.812v0.885h-3.812v2.656h4.49v0.885H275.333z"/>
	</g>
	<g>
		<path fill="#2C1200" d="M247.249,122.405v-7.687h3.594c0.857,0,1.497,0.22,1.922,0.658c0.346,0.354,0.519,0.799,0.519,1.339
			c0,0.388-0.106,0.73-0.318,1.025c-0.213,0.295-0.481,0.493-0.805,0.594v0.021c0.899,0.216,1.349,0.867,1.349,1.955
			c0,0.481-0.133,0.903-0.399,1.263c-0.396,0.554-1.04,0.831-1.933,0.831H247.249z M248.263,115.604v2.375h2.343
			c1.05,0,1.577-0.406,1.577-1.22c0-0.511-0.17-0.849-0.508-1.015c-0.202-0.094-0.561-0.141-1.08-0.141H248.263z M248.263,118.864
			v2.656h2.731c0.943,0,1.414-0.417,1.414-1.252c0-0.598-0.187-1-0.561-1.209c-0.245-0.129-0.651-0.194-1.22-0.194H248.263z"/>
	</g>
	<g>
		<path fill="#2C1200" d="M254.644,122.405v-7.687h3.477c0.705,0,1.27,0.151,1.694,0.453c0.518,0.375,0.778,0.961,0.778,1.76
			c0,1.238-0.594,1.954-1.782,2.148l2.122,3.325h-1.229l-2.08-3.26h-1.964v3.26H254.644z M255.658,115.604v2.656h2.3
			c1.08,0,1.619-0.443,1.619-1.328c0-0.885-0.54-1.328-1.619-1.328H255.658z"/>
	</g>
	<g>
		<path fill="#2C1200" d="M261.606,118.562c0-1.209,0.349-2.184,1.042-2.926c0.694-0.741,1.636-1.111,2.823-1.111
			s2.129,0.371,2.823,1.111c0.694,0.742,1.042,1.717,1.042,2.926c0,1.209-0.348,2.185-1.042,2.926
			c-0.694,0.741-1.636,1.112-2.823,1.112s-2.129-0.371-2.823-1.112C261.955,120.747,261.606,119.771,261.606,118.562z
			 M262.708,118.562c0,0.914,0.224,1.663,0.669,2.246c0.497,0.648,1.195,0.972,2.095,0.972c0.9,0,1.598-0.324,2.094-0.972
			c0.446-0.583,0.669-1.332,0.669-2.246s-0.224-1.663-0.669-2.246c-0.496-0.647-1.194-0.971-2.094-0.971
			c-0.899,0-1.598,0.324-2.095,0.971C262.932,116.899,262.708,117.648,262.708,118.562z"/>
	</g>
	<g>
		<path fill="#2C1200" d="M272.257,122.405l-2.363-7.687h1.083l1.797,6.002h0.021l1.938-6.002h1.048l1.938,6.002h0.021l1.798-6.002
			h1.083l-2.364,7.687h-1.005l-1.983-6.283h-0.036l-1.972,6.283H272.257z"/>
	</g>
	<g>
		<path fill="#2C1200" d="M281.417,122.405v-7.687h1.025l4.07,6.065l0.021,0.002v-6.067h0.951v7.687h-1.015l-4.08-6.062
			l-0.023,0.005v6.057H281.417z"/>
	</g>
	<g>
		<path fill="#2C1200" d="M294.901,116.921l-1.047,0.055c-0.029-0.541-0.234-0.954-0.616-1.242c-0.344-0.259-0.802-0.388-1.37-0.388
			c-0.446,0-0.824,0.079-1.134,0.238c-0.388,0.201-0.583,0.507-0.583,0.917c0,0.54,0.42,0.925,1.263,1.155
			c0.784,0.208,1.568,0.417,2.354,0.626c0.841,0.375,1.263,1.019,1.263,1.933c0,0.763-0.31,1.364-0.929,1.803
			c-0.554,0.388-1.231,0.583-2.029,0.583c-0.979,0-1.757-0.202-2.332-0.605c-0.648-0.46-1.004-1.155-1.069-2.084l1.101-0.097
			c0.051,1.31,0.803,1.965,2.257,1.965c0.532,0,0.971-0.119,1.316-0.356c0.388-0.274,0.583-0.666,0.583-1.177
			c0-0.576-0.42-0.982-1.263-1.22c-0.785-0.202-1.569-0.399-2.353-0.594c-0.843-0.338-1.263-0.911-1.263-1.716
			c0-0.698,0.291-1.249,0.875-1.652c0.519-0.36,1.144-0.54,1.877-0.54c0.842,0,1.531,0.19,2.063,0.572
			C294.454,115.514,294.8,116.123,294.901,116.921z"/>
	</g>
</g>
<g>
	<rect x="181.558" y="80.382" width="51.359" height="1.35"/>
</g>
<g>
	<polygon points="348.985,106.7 328.74,106.7 328.74,105.35 347.635,105.35 347.635,81.058 329.415,81.058 329.415,79.708 
		348.985,79.708 	"/>
</g>
<g>
	<path d="M338.637,100.626c-4.094,0-7.424-3.33-7.424-7.422c0-4.093,3.33-7.423,7.424-7.423s7.423,3.33,7.423,7.423
		C346.06,97.296,342.731,100.626,338.637,100.626z M338.637,87.131c-3.349,0-6.073,2.724-6.073,6.073
		c0,3.349,2.725,6.073,6.073,6.073s6.073-2.725,6.073-6.073C344.71,89.855,341.986,87.131,338.637,87.131z"/>
</g>
<g>
	<path d="M206.6,78.133c-12.109,0-21.594-3.77-21.594-8.583c0-4.812,9.485-8.583,21.594-8.583c12.108,0,21.593,3.77,21.593,8.583
		C228.193,74.363,218.708,78.133,206.6,78.133z M206.6,62.317c-12.11,0-20.245,3.74-20.245,7.233c0,3.494,8.135,7.233,20.245,7.233
		c12.109,0,20.244-3.74,20.244-7.233C226.844,66.057,218.709,62.317,206.6,62.317z"/>
</g>
<g>
	<polygon points="189.729,104.901 181.632,104.901 181.632,103.552 188.38,103.552 188.38,87.807 181.632,87.807 181.632,86.457 
		189.729,86.457 	"/>
</g>
<g>
	<polygon points="195.802,126.494 181.632,126.494 181.632,125.145 194.453,125.145 194.453,109.399 181.632,109.399 
		181.632,108.05 195.802,108.05 	"/>
</g>
<g>
	<path d="M198.165,102.167c-5.023,0-9.109-2.91-9.109-6.487c0-3.577,4.086-6.487,9.109-6.487c5.023,0,9.11,2.91,9.11,6.487
		C207.274,99.256,203.188,102.167,198.165,102.167z M198.165,90.542c-4.279,0-7.76,2.305-7.76,5.138c0,2.832,3.481,5.137,7.76,5.137
		c4.279,0,7.761-2.305,7.761-5.137C205.925,92.847,202.444,90.542,198.165,90.542z"/>
</g>
<g>
	<polygon points="357.757,338.159 332.105,338.159 332.105,320.832 333.454,320.832 333.454,336.81 356.408,336.81 356.408,320.783 
		357.757,320.783 	"/>
</g>
<g>
	<polygon points="261.269,338.159 222.347,338.159 222.347,320.832 223.697,320.832 223.697,336.81 259.92,336.81 259.92,320.783 
		261.269,320.783 	"/>
</g>
<g>
	<polygon points="261.269,343.895 222.347,343.895 222.347,338.003 223.697,338.003 223.697,342.544 259.92,342.544 259.92,337.987 
		261.269,337.987 	"/>
</g>
<g>
	<polygon points="261.269,349.291 222.347,349.291 222.347,343.4 223.697,343.4 223.697,347.942 259.92,347.942 259.92,343.385 
		261.269,343.385 	"/>
</g>
<g>
	<rect x="222.485" y="315.917" width="1.35" height="4.948"/>
</g>
<g>
	<rect x="210.565" y="315.917" width="1.35" height="4.948"/>
</g>
<g>
	<rect x="271.966" y="315.917" width="1.35" height="4.948"/>
</g>
<g>
	<rect x="260.046" y="315.917" width="1.349" height="4.948"/>
</g>
<g>
	<path d="M92.935,210.882H72.693v-20.242h20.242V210.882z M74.042,209.533h17.543V191.99H74.042V209.533z"/>
</g>
<g>
	<path d="M117,210.882H96.759v-20.242H117V210.882z M98.109,209.533h17.542V191.99H98.109V209.533z"/>
</g>
<g>
	<polygon fill="none" points="598.541,310.519 598.541,315.967 608.668,315.967 608.668,173.822 497.561,173.822 497.561,315.967 
		509.025,315.967 509.025,310.519 	"/>
</g>
<g>
	<path d="M614.292,321.59h-16.426v-6.297h10.127V174.497H498.235v140.796H509.7v6.297h-49.495v-6.297h31.733V174.497h-88.391v0.225
		h-6.298v-0.225H345.97v-6.298h51.279v-7.647h6.298v7.647h88.391v-16.772h6.297v16.772h116.057V321.59z M599.214,320.241h13.728
		V169.549H496.887v-16.773h-3.6v16.773h-91.09v-7.646H398.6v7.646h-51.281v3.599H398.6v0.224h3.598v-0.224h91.09v143.494h-31.733
		v3.599h46.796v-3.599h-11.463V173.148h112.456v143.494h-10.129V320.241z"/>
</g>
<g>
	<polyline fill="#FC751A" points="598.541,320.915 598.541,315.967 509.025,315.967 509.025,320.915 	"/>
	<polygon points="599.214,320.915 597.866,320.915 597.866,316.642 509.7,316.642 509.7,320.915 508.35,320.915 508.35,315.293 
		599.214,315.293 	"/>
</g>
<g>
	<rect x="608.661" y="195.364" width="4.949" height="1.349"/>
</g>
<g>
	<rect x="608.661" y="220.779" width="4.949" height="1.349"/>
</g>
<g>
	<rect x="608.661" y="264.862" width="4.949" height="1.349"/>
</g>
<g>
	<rect x="608.661" y="290.277" width="4.949" height="1.349"/>
</g>
<g>
	<polygon points="87.312,125.191 69.094,125.191 69.094,123.841 85.963,123.841 85.963,72.111 132.97,72.111 132.97,73.461 
		87.312,73.461 	"/>
</g>
<g>
	<polygon points="87.762,149.538 69.319,149.538 69.319,148.188 86.413,148.188 86.413,127.497 68.645,127.497 68.645,126.147 
		87.762,126.147 	"/>
</g>
<g>
	<g>
		<path d="M74.375,135.99c-1.919,0-3.482-1.562-3.482-3.481c0-1.92,1.562-3.482,3.482-3.482c1.92,0,3.482,1.562,3.482,3.482
			C77.858,134.428,76.295,135.99,74.375,135.99z M74.375,130.376c-1.176,0-2.132,0.957-2.132,2.132s0.957,2.132,2.132,2.132
			c1.176,0,2.133-0.957,2.133-2.132S75.552,130.376,74.375,130.376z"/>
	</g>
	<g>
		<path d="M81.356,146.658c-1.919,0-3.481-1.562-3.481-3.482c0-1.919,1.562-3.481,3.481-3.481c1.92,0,3.483,1.562,3.483,3.481
			C84.839,145.097,83.276,146.658,81.356,146.658z M81.356,141.044c-1.175,0-2.132,0.957-2.132,2.132
			c0,1.176,0.957,2.133,2.132,2.133c1.176,0,2.133-0.957,2.133-2.133C83.489,142.001,82.532,141.044,81.356,141.044z"/>
	</g>
</g>
<g>
	<polygon points="131.845,75.935 112.053,75.935 112.053,73.011 113.402,73.011 113.402,74.585 130.496,74.585 130.496,72.786 
		131.845,72.786 	"/>
</g>
<g>
	<path d="M83.545,105.792H71.85V79.478h11.695V105.792z M73.199,104.443h8.996V80.827h-8.996V104.443z"/>
</g>
<g>
	<rect x="73.086" y="91.96" width="9.222" height="1.349"/>
</g>
<g>
	<polygon points="176.451,147.142 156.546,147.142 156.546,124.314 176.451,124.314 176.451,125.664 157.896,125.664 
		157.896,145.793 176.451,145.793 	"/>
</g>
<g>
	<path d="M379.065,321.59H145.822v-6.297h30.113v-95.139H69.776v22.033h-6.298v-57.881h6.298v29.55h106.159v-10.796h6.298v112.232
		h121.678V203.061h6.297v42.234h36.88v30.588h-10.346v-6.297h4.049v-17.994h-30.583v17.994h6.066v6.297h-6.066v39.41h68.857V321.59z
		 M147.172,320.241h230.544v-3.599h-68.857v-42.109h6.065v-3.599h-6.065v-20.692h33.279v20.692h-4.048v3.599h7.646v-27.89h-36.878
		v-42.233h-3.599v112.231H180.883V204.411h-3.599v10.795H68.427v-29.55h-3.599v55.181h3.599v-22.033h108.858v97.837h-30.113V320.241
		z"/>
</g>
<g>
	<line fill="#FC751A" x1="309.534" y1="140.31" x2="309.534" y2="163.926"/>
	<rect x="308.859" y="140.31" width="1.349" height="23.616"/>
</g>
<g>
	<polygon points="330.894,237.197 309.639,237.197 309.639,235.848 329.544,235.848 329.544,213.02 309.752,213.02 309.752,211.67 
		330.894,211.67 	"/>
</g>
<g>
	<polygon points="196.621,168.824 195.271,168.824 195.271,152.855 181.551,152.855 181.551,151.506 196.621,151.506 	"/>
</g>
</svg>
