<?xml version="1.0" encoding="utf-8"?>
<!-- Generator: Adobe Illustrator 15.0.0, SVG Export Plug-In . SVG Version: 6.00 Build 0)  -->
<!DOCTYPE svg PUBLIC "-//W3C//DTD SVG 1.1//EN" "http://www.w3.org/Graphics/SVG/1.1/DTD/svg11.dtd">
<svg version="1.1" id="Layer_1" xmlns="http://www.w3.org/2000/svg" xmlns:xlink="http://www.w3.org/1999/xlink" x="0px" y="0px"
	 width="675px" height="390.15px" viewBox="0 0 675 390.15" enable-background="new 0 0 675 390.15" xml:space="preserve">
<rect y="-1.733" fill="#FC751A" width="675.146" height="391.884"/>
<g>
	<g>
		<path fill="#2C1200" d="M62.722,22.036L27.454,56.268v275.142l34.658,33.193H612.33l35.458-34.26V55.201l-34.847-33.165H62.722z
			 M641.154,327.637l-31.552,30.552H64.813l-30.725-29.512V58.974l31.363-30.525h544.788l30.915,29.485V327.637z"/>
	</g>
	<g>
		<g>
			<path fill="#2C1200" d="M27.866,30.26c-4.208,0-7.63-3.422-7.63-7.63c0-4.207,3.422-7.63,7.63-7.63c4.207,0,7.63,3.423,7.63,7.63
				C35.496,26.838,32.073,30.26,27.866,30.26z M27.866,16.351c-3.463,0-6.28,2.817-6.28,6.28c0,3.463,2.817,6.279,6.28,6.279
				c3.461,0,6.279-2.816,6.279-6.279C34.145,19.168,31.327,16.351,27.866,16.351z"/>
		</g>
		<g>
			<path fill="#2C1200" d="M647.279,30.26c-4.205,0-7.629-3.422-7.629-7.63c0-4.207,3.424-7.63,7.629-7.63
				c4.208,0,7.632,3.423,7.632,7.63C654.911,26.838,651.487,30.26,647.279,30.26z M647.279,16.351c-3.461,0-6.278,2.817-6.278,6.28
				c0,3.463,2.817,6.279,6.278,6.279c3.464,0,6.282-2.816,6.282-6.279C653.561,19.168,650.743,16.351,647.279,16.351z"/>
		</g>
		<g>
			<path fill="#2C1200" d="M27.866,373.438c-4.208,0-7.63-3.423-7.63-7.63c0-4.208,3.422-7.63,7.63-7.63
				c4.207,0,7.63,3.422,7.63,7.63C35.496,370.015,32.073,373.438,27.866,373.438z M27.866,359.529c-3.463,0-6.28,2.816-6.28,6.279
				c0,3.462,2.817,6.28,6.28,6.28c3.461,0,6.279-2.817,6.279-6.28C34.145,362.345,31.327,359.529,27.866,359.529z"/>
		</g>
		<g>
			<path fill="#2C1200" d="M647.279,373.438c-4.205,0-7.629-3.423-7.629-7.63c0-4.208,3.424-7.63,7.629-7.63
				c4.208,0,7.632,3.422,7.632,7.63C654.911,370.015,651.487,373.438,647.279,373.438z M647.279,359.529
				c-3.461,0-6.278,2.816-6.278,6.279c0,3.462,2.817,6.28,6.278,6.28c3.464,0,6.282-2.817,6.282-6.28
				C653.561,362.345,650.743,359.529,647.279,359.529z"/>
		</g>
	</g>
	<g>
		<g>
			<path fill="#2C1200" d="M175.033,234.471v-39.429h18.839c2.226,0,4.307,0.146,6.243,0.438c1.935,0.292,3.624,0.813,5.065,1.562
				s2.574,1.761,3.396,3.039c0.821,1.278,1.232,2.902,1.232,4.874c0,1.022-0.146,1.971-0.439,2.848
				c-0.292,0.876-0.684,1.67-1.176,2.382c-0.494,0.711-1.051,1.351-1.671,1.917c-0.621,0.566-1.242,1.05-1.861,1.451
				c2.153,0.548,3.786,1.652,4.901,3.312c1.114,1.662,1.67,3.569,1.67,5.724c0,2.19-0.403,4.044-1.205,5.559
				c-0.804,1.515-1.944,2.738-3.423,3.669c-1.479,0.93-3.268,1.606-5.367,2.026c-2.1,0.42-4.427,0.629-6.982,0.629H175.033z
				 M187.958,204.241v6.572h5.367c1.278,0,2.336-0.282,3.177-0.848c0.839-0.566,1.259-1.433,1.259-2.602
				c0-0.767-0.146-1.359-0.438-1.779c-0.292-0.419-0.685-0.73-1.178-0.931c-0.493-0.201-1.05-0.32-1.669-0.356
				c-0.622-0.036-1.279-0.055-1.972-0.055H187.958z M187.958,217.987v7.284h5.64c0.803,0,1.542-0.045,2.218-0.137
				c0.675-0.09,1.26-0.273,1.752-0.547c0.493-0.274,0.884-0.648,1.178-1.123c0.291-0.474,0.438-1.077,0.438-1.807
				c0-0.876-0.183-1.552-0.548-2.026c-0.365-0.474-0.857-0.84-1.478-1.096c-0.621-0.255-1.369-0.411-2.246-0.465
				c-0.876-0.055-1.827-0.083-2.848-0.083H187.958z"/>
		</g>
		<g>
			<path fill="#2C1200" d="M240.64,234.471h-12.923v-14.348l-14.678-25.082h14.458l6.791,13.363l6.791-13.363h14.239l-14.678,24.863
				V234.471z"/>
		</g>
		<g>
			<path fill="#2C1200" d="M296.5,194c3.505,0,6.562,0.585,9.173,1.752c2.609,1.169,4.764,2.711,6.462,4.627
				c1.698,1.917,2.966,4.107,3.806,6.572c0.839,2.464,1.26,4.993,1.26,7.585c0,3.359-0.529,6.344-1.588,8.954
				c-1.06,2.611-2.52,4.801-4.382,6.572c-1.861,1.771-4.053,3.122-6.571,4.053c-2.519,0.931-5.238,1.396-8.16,1.396
				c-3.104,0-5.924-0.466-8.461-1.396c-2.538-0.931-4.71-2.3-6.517-4.108c-1.808-1.807-3.204-4.016-4.19-6.626
				c-0.985-2.61-1.478-5.595-1.478-8.954c0-3.103,0.502-5.905,1.506-8.406c1.003-2.5,2.41-4.646,4.217-6.435
				c1.807-1.789,3.979-3.167,6.517-4.135C290.63,194.485,293.432,194,296.5,194z M296.391,203.639c-1.461,0-2.684,0.337-3.669,1.014
				c-0.986,0.675-1.771,1.533-2.355,2.574s-0.994,2.209-1.231,3.505c-0.238,1.296-0.357,2.565-0.357,3.806
				c0,1.278,0.11,2.583,0.33,3.916c0.218,1.333,0.62,2.546,1.204,3.641c0.585,1.096,1.379,2,2.384,2.711
				c1.003,0.712,2.272,1.068,3.806,1.068c1.387,0,2.574-0.283,3.559-0.849c0.986-0.565,1.788-1.359,2.41-2.381
				c0.62-1.022,1.077-2.219,1.369-3.588c0.291-1.369,0.438-2.875,0.438-4.518c0-1.351-0.146-2.684-0.438-3.998
				c-0.292-1.314-0.749-2.491-1.369-3.533c-0.622-1.041-1.434-1.87-2.438-2.492C299.027,203.896,297.815,203.603,296.391,203.639z"
				/>
		</g>
		<g>
			<path fill="#2C1200" d="M356.741,219.411h0.109l4.437-24.37h12.486l-9.804,39.429h-12.706l-4.544-22.891h-0.11l-4.49,22.891
				h-12.706l-9.802-39.429h12.486l4.435,24.37h0.11l4.709-24.37h10.68L356.741,219.411z"/>
		</g>
		<g>
			<path fill="#2C1200" d="M404.057,216.563l-0.492-8.981v-12.541h12.376v39.429h-12.104l-14.074-21.467l0.493,8.981v12.486h-12.376
				v-39.429h12.103L404.057,216.563z"/>
		</g>
		<g>
			<path fill="#2C1200" d="M423.879,234.471v-39.429h32.147v9.2h-19.223v5.641h16.267v9.2h-16.267v6.188h19.989v9.2H423.879z"/>
		</g>
		<g>
			<path fill="#2C1200" d="M475.523,220.726v13.745h-12.925v-39.429h18.621c3.285,0,6.041,0.229,8.269,0.684
				c2.227,0.458,4.025,1.141,5.394,2.054c1.37,0.913,2.345,2.081,2.93,3.505c0.586,1.423,0.878,3.086,0.878,4.983
				c0,2.264-0.531,4.281-1.588,6.051c-1.061,1.771-2.738,2.967-5.04,3.587c1.023,0.402,1.953,0.794,2.795,1.177
				c0.839,0.384,1.542,0.932,2.106,1.644c0.566,0.711,1.006,1.67,1.313,2.875c0.311,1.205,0.467,2.793,0.467,4.765
				c0,1.278,0,2.355,0,3.23c0,0.877,0.036,1.588,0.11,2.136c0.072,0.548,0.2,0.94,0.383,1.178c0.182,0.238,0.475,0.356,0.877,0.356
				v1.204h-13.089c-0.185-0.438-0.339-1.258-0.467-2.464c-0.129-1.205-0.19-2.683-0.19-4.435c0-1.279-0.074-2.355-0.221-3.231
				c-0.146-0.876-0.464-1.58-0.957-2.108c-0.492-0.529-1.195-0.913-2.108-1.15c-0.914-0.237-2.117-0.356-3.616-0.356H475.523z
				 M475.523,212.073h5.094c2.007,0,3.531-0.274,4.572-0.822c1.04-0.548,1.561-1.515,1.561-2.902s-0.485-2.418-1.45-3.094
				c-0.97-0.675-2.219-1.014-3.751-1.014h-6.025V212.073z"/>
		</g>
	</g>
	<g>
		<g>
			<path fill="#2C1200" d="M238.355,105.315V53.644h52.323v12.592h-31.916v7.888h29.382v12.592h-29.382v18.599H238.355z"/>
		</g>
		<g>
			<path fill="#2C1200" d="M295.562,79.479c0-11.675,4.343-19.636,13.026-23.882c5.161-2.508,12.593-3.763,22.289-3.763
				c9.698,0,17.127,1.255,22.29,3.763c8.685,4.246,13.026,12.207,13.026,23.882c0,11.676-4.342,19.636-13.026,23.882
				c-5.163,2.508-12.592,3.763-22.29,3.763c-9.696,0-17.128-1.255-22.289-3.763C299.905,99.116,295.562,91.155,295.562,79.479z
				 M317.273,79.479c0,9.746,4.534,14.618,13.604,14.618c9.071,0,13.606-4.873,13.606-14.618c0-9.745-4.535-14.619-13.606-14.619
				C321.807,64.861,317.273,69.734,317.273,79.479z"/>
		</g>
		<g>
			<path fill="#2C1200" d="M373.25,105.315V53.644h42.988c5.594,0,9.672,0.627,12.229,1.882c1.979,0.965,3.642,2.605,4.994,4.921
				c1.35,2.315,2.027,4.849,2.027,7.599c0,6.321-2.656,10.252-7.963,11.796v0.145c3.569,1.013,5.524,3.667,5.863,7.961l0.867,11.289
				c0.144,2.171,0.988,4.198,2.533,6.08H414.5c-0.387-0.82-0.749-4.076-1.085-9.77c-0.244-4.101-2.004-6.151-5.283-6.151h-14.475
				v15.921H373.25z M393.658,66.67v9.698h14.475c3.762,0,5.645-1.616,5.645-4.849c0-3.231-1.978-4.849-5.935-4.849H393.658z"/>
		</g>
	</g>
	<g>
		<g>
			<path fill="#2C1200" d="M61.307,176.987v-53.675h57.058v13.081H82.507v7.216h33.302v13.081H82.507v7.217h35.857v13.08H61.307z"/>
		</g>
		<g>
			<path fill="#2C1200" d="M170.536,156.088h23.906c-1.755,9.021-5.814,15.261-12.178,18.719c-5.063,2.706-12.756,4.059-23.08,4.059
				c-10.073,0-17.792-1.304-23.153-3.909c-9.021-4.41-13.532-12.679-13.532-24.808c0-12.127,4.511-20.397,13.532-24.808
				c5.361-2.605,13.08-3.909,23.153-3.909c9.071,0,16.189,1.153,21.351,3.458c8.069,3.608,12.704,10.1,13.908,19.47h-23.906
				c-1.003-6.263-4.787-9.396-11.352-9.396c-9.422,0-14.132,5.062-14.132,15.186c0,10.124,4.36,15.185,13.08,15.185
				C164.747,165.335,168.882,162.253,170.536,156.088z"/>
		</g>
		<g>
			<path fill="#2C1200" d="M201.959,176.987v-53.675h21.199v39.241h32.851v14.434H201.959z"/>
		</g>
		<g>
			<path fill="#2C1200" d="M258.94,150.15c0-12.127,4.511-20.397,13.532-24.808c5.362-2.605,13.08-3.909,23.153-3.909
				c10.074,0,17.792,1.304,23.154,3.909c9.021,4.411,13.532,12.68,13.532,24.808c0,12.129-4.511,20.398-13.532,24.808
				c-5.362,2.605-13.08,3.909-23.154,3.909c-10.073,0-17.792-1.304-23.153-3.909C263.451,170.548,258.94,162.279,258.94,150.15z
				 M281.493,150.15c0,10.124,4.71,15.185,14.132,15.185s14.133-5.062,14.133-15.185c0-10.123-4.711-15.186-14.133-15.186
				S281.493,140.027,281.493,150.15z"/>
		</g>
		<g>
			<path fill="#2C1200" d="M376.063,157.818l-24.208-3.609c-9.771-1.453-14.658-6.49-14.658-15.11
				c0-11.776,10.348-17.666,31.046-17.666c11.678,0,20.323,1.503,25.937,4.511c5.311,2.856,8.167,7.216,8.569,13.08h-24.657
				c0-3.608-3.283-5.413-9.849-5.413c-5.663,0-8.494,1.278-8.494,3.833c0,1.605,0.927,2.532,2.781,2.782l25.334,3.759
				c11.526,1.704,17.292,6.916,17.292,15.636c0,6.566-2.782,11.415-8.345,14.547c-5.563,3.132-14.284,4.698-26.161,4.698
				c-10.175,0-17.892-1.027-23.154-3.083c-7.317-2.856-11.002-7.843-11.051-14.959h25.559c0.101,2.155,1.228,3.608,3.384,4.36
				c1.302,0.401,3.332,0.601,6.089,0.601c5.611,0,8.42-1.453,8.42-4.36C379.896,159.422,378.618,158.219,376.063,157.818z"/>
		</g>
		<g>
			<path fill="#2C1200" d="M411.016,156.615v-33.303h21.2v32.476c0,3.308,0.952,5.689,2.856,7.142
				c1.704,1.303,4.385,1.954,8.044,1.954c3.657,0,6.341-0.651,8.045-1.954c1.904-1.453,2.855-3.834,2.855-7.142v-32.476h21.198
				v33.303c0,8.269-2.63,14.108-7.894,17.515c-4.859,3.158-12.93,4.737-24.205,4.737c-11.277,0-19.345-1.579-24.207-4.737
				C413.649,170.723,411.016,164.884,411.016,156.615z"/>
		</g>
		<g>
			<path fill="#2C1200" d="M484.463,176.987v-53.675h44.653c5.812,0,10.046,0.652,12.704,1.955c2.053,1.004,3.782,2.707,5.187,5.112
				c1.403,2.406,2.104,5.037,2.104,7.894c0,6.566-2.756,10.65-8.268,12.253v0.15c3.708,1.053,5.738,3.81,6.09,8.269l0.9,11.728
				c0.151,2.255,1.028,4.36,2.633,6.315h-23.153c-0.403-0.852-0.777-4.235-1.129-10.148c-0.252-4.259-2.081-6.39-5.489-6.39h-15.034
				v16.539H484.463z M505.661,136.844v10.073h15.034c3.911,0,5.866-1.678,5.866-5.036c0-3.357-2.058-5.037-6.166-5.037H505.661z"/>
		</g>
		<g>
			<path fill="#2C1200" d="M556.779,176.987v-53.675h57.058v13.081h-35.857v7.216h33.302v13.081h-33.302v7.217h35.857v13.08H556.779
				z"/>
		</g>
	</g>
	<g>
		<path fill="#FC751A" d="M590.694,329.214c0,1.449-1.104,2.569-2.451,2.569H86.69c-1.35,0-2.581-1.12-2.581-2.569v-69.089
			c0-1.449,1.231-2.678,2.581-2.678h501.553c1.348,0,2.451,1.229,2.451,2.678V329.214z"/>
		<path fill="#2C1200" d="M588.243,332.458H86.69c-1.765,0-3.256-1.486-3.256-3.244v-69.089c0-1.787,1.522-3.354,3.256-3.354
			h501.553c1.722,0,3.126,1.504,3.126,3.354v69.089C591.369,331.033,589.996,332.458,588.243,332.458z M86.69,258.121
			c-0.998,0-1.905,0.955-1.905,2.003v69.089c0,1.027,0.873,1.894,1.905,1.894h501.553c0.996,0,1.775-0.832,1.775-1.894v-69.089
			c0-1.086-0.812-2.003-1.775-2.003H86.69z"/>
	</g>
</g>
</svg>
