<?xml version="1.0" encoding="utf-8"?>
<!-- Generator: Adobe Illustrator 15.0.0, SVG Export Plug-In . SVG Version: 6.00 Build 0)  -->
<!DOCTYPE svg PUBLIC "-//W3C//DTD SVG 1.1//EN" "http://www.w3.org/Graphics/SVG/1.1/DTD/svg11.dtd">
<svg version="1.1" id="Layer_1" xmlns="http://www.w3.org/2000/svg" xmlns:xlink="http://www.w3.org/1999/xlink" x="0px" y="0px"
	 width="675px" height="390.15px" viewBox="0 0 675 390.15" enable-background="new 0 0 675 390.15" xml:space="preserve">
<rect fill="#FC751A" width="675" height="390.15"/>
<g>
	<g>
		<path fill="#2C1200" d="M503.57,74.172l4.388-26.525l4.111,18.025l18.025,4.111L503.57,74.172z M508.169,54.642l-2.96,17.891
			l17.89-2.961l-12.156-2.772L508.169,54.642z"/>
	</g>
</g>
<g>
	<g>
		<path fill="#2C1200" d="M513.082,64.66l3.513-21.23l3.291,14.427l14.425,3.291L513.082,64.66z M516.804,50.426l-2.083,12.595
			l12.595-2.084l-8.56-1.953L516.804,50.426z"/>
	</g>
</g>
<g>
	<g>
		<path fill="#2C1200" d="M170.463,74.172l-26.525-4.389l18.024-4.111l4.111-18.025L170.463,74.172z M150.933,69.571l17.891,2.961
			l-2.961-17.891l-2.773,12.157L150.933,69.571z"/>
	</g>
</g>
<g>
	<g>
		<path fill="#2C1200" d="M160.952,64.66l-21.23-3.513l14.427-3.291l3.29-14.427L160.952,64.66z M146.717,60.937l12.595,2.084
			l-2.084-12.595l-1.953,8.558L146.717,60.937z"/>
	</g>
</g>
<g>
	<g>
		<path fill="#2C1200" d="M508.589,342.194l-4.389-26.525l26.524,4.389l-18.023,4.112L508.589,342.194z M505.841,317.309
			L508.8,335.2l2.775-12.158l12.156-2.772L505.841,317.309z"/>
	</g>
</g>
<g>
	<g>
		<path fill="#2C1200" d="M517.227,346.411l-3.514-21.229l21.229,3.513l-14.426,3.291L517.227,346.411z M515.352,326.821
			l2.084,12.595l1.952-8.559l8.561-1.952L515.352,326.821z"/>
	</g>
</g>
<g>
	<g>
		<path fill="#2C1200" d="M166.917,342.826l-4.112-18.024l-18.024-4.113l26.525-4.389L166.917,342.826z M151.775,320.901
			l12.157,2.773l2.773,12.157l2.961-17.891L151.775,320.901z"/>
	</g>
</g>
<g>
	<g>
		<path fill="#2C1200" d="M158.281,347.042l-3.291-14.426l-14.426-3.29l21.229-3.513L158.281,347.042z M147.559,329.537l8.559,1.952
			l1.952,8.56l2.084-12.596L147.559,329.537z"/>
	</g>
</g>
<g>
	<g>
		<g>
			<rect x="206.1" y="66.825" fill="#2C1200" width="1.35" height="75.825"/>
		</g>
	</g>
	<g>
		<g>
			<polygon fill="#2C1200" points="237.737,105.525 207.45,105.525 207.45,104.175 237.394,104.175 251.325,96.593 251.325,74.656 
				237.397,67.275 199.35,67.275 199.35,65.925 237.733,65.925 252.674,73.844 252.674,97.396 			"/>
		</g>
	</g>
	<g>
		<g>
			<polygon fill="#2C1200" points="252.899,142.65 251.55,142.65 251.55,114.431 236.709,105.34 237.415,104.189 252.899,113.674 
							"/>
		</g>
	</g>
	<g>
		<g>
			<rect x="199.35" y="142.2" fill="#2C1200" width="15.076" height="1.35"/>
		</g>
	</g>
	<g>
		<g>
			<rect x="246.15" y="142.65" fill="#2C1200" width="15.074" height="1.35"/>
		</g>
	</g>
	<g>
		<g>
			<polygon fill="#2C1200" points="328.652,82.669 306.226,67.725 275.175,67.725 275.175,66.375 306.634,66.375 329.4,81.546 			
				"/>
		</g>
	</g>
	<g>
		<g>
			<rect x="281.925" y="66.825" fill="#2C1200" width="1.351" height="75.825"/>
		</g>
	</g>
	<g>
		<g>
			<polygon fill="#2C1200" points="328.5,143.55 273.15,143.55 273.15,142.2 327.15,142.2 327.15,127.575 328.5,127.575 			"/>
		</g>
	</g>
	<g>
		<g>
			<rect x="282.825" y="104.175" fill="#2C1200" width="30.15" height="1.351"/>
		</g>
	</g>
	<g>
		<g>
			<polygon fill="#2C1200" points="351.45,143.55 341.55,143.55 341.55,142.2 350.1,142.2 350.1,67.725 343.349,67.725 
				343.349,66.375 351.45,66.375 			"/>
		</g>
	</g>
	<g>
		<g>
			<polygon fill="#2C1200" points="396.899,142.875 395.549,142.875 395.549,66.375 404.1,66.375 404.1,67.725 396.899,67.725 			
				"/>
		</g>
	</g>
	<g>
		<g>
			<rect x="351.077" y="66.375" fill="#2C1200" width="7.791" height="1.35"/>
		</g>
	</g>
	<g>
		<g>
			
				<rect x="333.253" y="103.954" transform="matrix(0.3718 0.9283 -0.9283 0.3718 332.0776 -281.4884)" fill="#2C1200" width="81.557" height="1.35"/>
		</g>
	</g>
	<g>
		<g>
			<path fill="none" stroke="#000000" stroke-width="6" stroke-miterlimit="10" d="M396.669,142.588"/>
		</g>
	</g>
	<g>
		<g>
			<polygon fill="#2C1200" points="480.375,74.475 479.025,74.475 479.025,67.725 419.625,67.725 419.625,74.475 418.275,74.475 
				418.275,66.375 480.375,66.375 			"/>
		</g>
	</g>
	<g>
		<g>
			<rect x="448.65" y="66.375" fill="#2C1200" width="1.35" height="76.275"/>
		</g>
	</g>
	<g>
		<g>
			<rect x="441.9" y="142.2" fill="#2C1200" width="15.302" height="1.35"/>
		</g>
	</g>
	<g>
		<g>
			<rect x="388.35" y="142.2" fill="#2C1200" width="15.074" height="1.35"/>
		</g>
	</g>
</g>
<g>
	<g>
		<path fill="none" stroke="#000000" stroke-width="6" stroke-miterlimit="10" d="M394.511,323.91"/>
	</g>
</g>
<g>
	<g>
		<g>
			<rect x="206.1" y="248.175" fill="#2C1200" width="1.35" height="75.826"/>
		</g>
	</g>
	<g>
		<g>
			<polygon fill="#2C1200" points="237.738,286.875 207.45,286.875 207.45,285.525 237.393,285.525 251.325,277.917 
				251.325,255.979 237.398,248.625 199.35,248.625 199.35,247.275 237.733,247.275 252.674,255.165 252.674,278.717 			"/>
		</g>
	</g>
	<g>
		<g>
			<polygon fill="#2C1200" points="252.899,324 251.55,324 251.55,295.752 236.709,286.676 237.414,285.524 252.899,294.995 			"/>
		</g>
	</g>
	<g>
		<g>
			<rect x="199.35" y="323.55" fill="#2C1200" width="15.076" height="1.35"/>
		</g>
	</g>
	<g>
		<g>
			<rect x="246.15" y="324" fill="#2C1200" width="15.074" height="1.349"/>
		</g>
	</g>
	<g>
		<g>
			<polygon fill="#2C1200" points="328.652,264.019 306.226,249.075 275.175,249.075 275.175,247.725 306.634,247.725 
				329.4,262.896 			"/>
		</g>
	</g>
	<g>
		<g>
			<rect x="281.925" y="248.175" fill="#2C1200" width="1.351" height="75.826"/>
		</g>
	</g>
	<g>
		<g>
			<polygon fill="#2C1200" points="328.5,324.9 273.15,324.9 273.15,323.55 327.15,323.55 327.15,308.701 328.5,308.701 			"/>
		</g>
	</g>
	<g>
		<g>
			<rect x="282.825" y="285.525" fill="#2C1200" width="30.15" height="1.351"/>
		</g>
	</g>
	<g>
		<g>
			<polygon fill="#2C1200" points="351.45,324.9 341.55,324.9 341.55,323.55 350.1,323.55 350.1,249.075 343.349,249.075 
				343.349,247.725 351.45,247.725 			"/>
		</g>
	</g>
	<g>
		<g>
			<polygon fill="#2C1200" points="396.899,324.225 395.549,324.225 395.549,247.725 404.1,247.725 404.1,249.075 396.899,249.075 
							"/>
		</g>
	</g>
	<g>
		<g>
			<rect x="351.077" y="247.725" fill="#2C1200" width="7.791" height="1.35"/>
		</g>
	</g>
	<g>
		<g>
			
				<rect x="333.253" y="285.276" transform="matrix(0.3718 0.9283 -0.9283 0.3718 500.3992 -167.5891)" fill="#2C1200" width="81.557" height="1.35"/>
		</g>
	</g>
	<g>
		<g>
			<polygon fill="#2C1200" points="480.375,255.825 479.025,255.825 479.025,249.075 419.625,249.075 419.625,255.825 
				418.275,255.825 418.275,247.725 480.375,247.725 			"/>
		</g>
	</g>
	<g>
		<g>
			<rect x="448.65" y="248.4" fill="#2C1200" width="1.35" height="75.601"/>
		</g>
	</g>
	<g>
		<g>
			<rect x="441.9" y="323.55" fill="#2C1200" width="15.302" height="1.35"/>
		</g>
	</g>
	<g>
		<g>
			<rect x="388.35" y="323.55" fill="#2C1200" width="15.074" height="1.35"/>
		</g>
	</g>
</g>
<g>
	<g>
		<polygon fill="#2C1200" points="362.426,173.119 340.026,158.175 308.925,158.175 308.925,156.825 340.434,156.825 
			363.175,171.996 		"/>
	</g>
</g>
<g>
	<g>
		<rect x="315.45" y="157.275" fill="#2C1200" width="1.351" height="75.826"/>
	</g>
</g>
<g>
	<g>
		<polygon fill="#2C1200" points="362.25,234 306.9,234 306.9,232.65 360.9,232.65 360.9,218.025 362.25,218.025 		"/>
	</g>
</g>
<g>
	<g>
		<rect x="316.35" y="194.85" fill="#2C1200" width="30.375" height="1.35"/>
	</g>
</g>
<g>
	<g>
		<polygon fill="#2C1200" points="437.156,173.119 414.787,158.175 383.625,158.175 383.625,156.825 415.196,156.825 
			437.906,171.996 		"/>
	</g>
</g>
<g>
	<g>
		<rect x="390.375" y="157.275" fill="#2C1200" width="1.35" height="75.826"/>
	</g>
</g>
<g>
	<g>
		<polygon fill="#2C1200" points="436.95,234 381.825,234 381.825,232.65 435.599,232.65 435.599,218.025 436.95,218.025 		"/>
	</g>
</g>
<g>
	<g>
		<rect x="391.275" y="194.85" fill="#2C1200" width="30.149" height="1.35"/>
	</g>
</g>
<g>
	<g>
		<polygon fill="#2C1200" points="514.575,165.375 513.225,165.375 513.225,158.625 454.05,158.625 454.05,165.375 452.7,165.375 
			452.7,157.275 514.575,157.275 		"/>
	</g>
</g>
<g>
	<g>
		<rect x="483.075" y="157.275" fill="#2C1200" width="1.35" height="76.275"/>
	</g>
</g>
<g>
	<g>
		<rect x="476.324" y="233.101" fill="#2C1200" width="15.076" height="1.349"/>
	</g>
</g>
<g>
	<g>
		<polygon fill="#2C1200" points="211.172,234.225 180.114,234.225 164.025,218.529 164.025,210.375 172.35,210.375 172.35,211.725 
			165.375,211.725 165.375,217.959 180.664,232.875 210.573,232.875 217.125,225.618 217.125,203.412 210.433,196.65 
			180.194,196.65 164.025,186.448 164.025,172.571 180.119,157.275 203.454,157.275 218.25,164.813 218.25,181.125 210.375,181.125 
			210.375,179.775 216.899,179.775 216.899,165.641 203.129,158.625 180.658,158.625 165.375,173.151 165.375,185.704 
			180.584,195.3 210.996,195.3 218.475,202.856 218.475,226.138 		"/>
	</g>
</g>
<g>
	<g>
		<rect x="233.1" y="157.275" fill="#2C1200" width="15.075" height="1.351"/>
	</g>
</g>
<g>
	<g>
		<rect x="278.55" y="157.275" fill="#2C1200" width="15.075" height="1.351"/>
	</g>
</g>
<g>
	<g>
		<polygon fill="#2C1200" points="286.65,235.35 279.615,235.35 263.836,219.543 248.901,234.45 239.625,234.45 239.625,157.725 
			240.975,157.725 240.975,233.101 248.343,233.101 263.838,217.634 280.175,234 285.3,234 285.3,157.725 286.65,157.725 		"/>
	</g>
</g>
<g>
	<g>
		<path fill="#2C1200" d="M184.987,363.825h-45.101l-16.362-16.258V317.25h-14.349l-0.27-15.472l-30.382-31.401V115.22
			l30.375-26.534V73.35H124.2V43.219l15.69-15.318h46.042l14.874,14.852l14.885-15.526h243.173l14.253,14.296L487.684,27h45.099
			l15.767,15.802V73.35h16.875l-0.575,15.47l31.176,31.165v155.161l-30.221,26.613l-0.424,15.491h-15.256v29.787L534.68,362.7
			h-46.051l-15.2-15.222l-14.564,14.546H215.702l-14.565-14.457L184.987,363.825z M140.443,362.475h43.982l16.703-16.815
			l15.129,15.016h242.048l15.126-15.105l15.758,15.78h44.926l14.66-14.867V315.9h15.293l0.401-14.765l30.205-26.599V120.545
			l-31.196-31.186l0.546-14.659H547.2V43.361l-14.977-15.011h-43.982l-15.126,15.08l-14.812-14.855H216.268l-15.44,16.105
			L185.375,29.25H140.44L125.55,43.788V74.7h-15.3v14.598l-30.375,26.535V269.83l30.374,31.391l0.255,14.679h14.372v31.105
			L140.443,362.475z"/>
	</g>
</g>
<g>
	<g>
		<path fill="#2C1200" d="M56.849,61.276L34.481,49.464l22.29-22.289l22.396,22.396L56.849,61.276z M36.73,49.125l20.122,10.626
			l20.062-10.523L56.771,29.084L36.73,49.125z"/>
	</g>
</g>
<g>
	<g>
		<path fill="#2C1200" d="M617.452,61.276l-22.368-11.812l22.288-22.289l22.398,22.396L617.452,61.276z M597.333,49.125
			l20.122,10.626l20.062-10.523l-20.146-20.143L597.333,49.125z"/>
	</g>
</g>
<g>
	<g>
		<path fill="#2C1200" d="M56.771,363.04l-22.29-22.289l22.368-11.812l22.317,11.705L56.771,363.04z M36.73,341.09l20.041,20.041
			l20.143-20.144l-20.062-10.522L36.73,341.09z"/>
	</g>
</g>
<g>
	<g>
		<path fill="#2C1200" d="M617.372,363.04l-22.288-22.289l22.368-11.812l22.318,11.705L617.372,363.04z M597.333,341.09
			l20.039,20.041l20.146-20.144l-20.062-10.522L597.333,341.09z"/>
	</g>
</g>
<g>
	<g>
		<rect x="55.8" y="28.351" fill="#2C1200" width="1.35" height="32.399"/>
	</g>
</g>
<g>
	<g>
		<rect x="616.724" y="28.351" fill="#2C1200" width="1.351" height="32.399"/>
	</g>
</g>
<g>
	<g>
		<rect x="55.8" y="330.75" fill="#2C1200" width="1.35" height="30.6"/>
	</g>
</g>
<g>
	<g>
		<rect x="616.724" y="330.75" fill="#2C1200" width="1.351" height="30.6"/>
	</g>
</g>
<g>
	<g>
		<path fill="#2C1200" d="M148.274,51.975h-9v-9h9V51.975z M140.625,50.625h6.3v-6.3h-6.3V50.625z"/>
	</g>
</g>
<g>
	<g>
		<path fill="#2C1200" d="M534.6,51.975h-8.775v-9h8.775V51.975z M527.174,50.625h6.074v-6.3h-6.074V50.625z"/>
	</g>
</g>
<g>
	<g>
		<path fill="#2C1200" d="M148.274,347.175h-9v-9h9V347.175z M140.625,345.826h6.3v-6.301h-6.3V345.826z"/>
	</g>
</g>
<g>
	<g>
		<path fill="#2C1200" d="M534.6,347.175h-8.775v-9h8.775V347.175z M527.174,345.826h6.074v-6.301h-6.074V345.826z"/>
	</g>
</g>
<g>
	<g>
		<path fill="#2C1200" d="M80.1,75.15H33.3v-9H80.1V75.15z M34.649,73.8H78.75v-6.3H34.649V73.8z"/>
	</g>
</g>
<g>
	<g>
		<path fill="#2C1200" d="M33.075,116.62v-9.234L64.8,84.95v9.235L33.075,116.62z M34.425,108.084v5.928L63.45,93.486v-5.927
			L34.425,108.084z"/>
	</g>
</g>
<g>
	<g>
		<rect x="33.75" y="85.725" fill="#FC751A" width="30.375" height="7.65"/>
	</g>
	<g>
		<path fill="#2C1200" d="M64.8,94.05H33.075v-9H64.8V94.05z M34.425,92.7H63.45v-6.3H34.425V92.7z"/>
	</g>
</g>
<g>
	<g>
		<path fill="#2C1200" d="M640.8,117.042l-31.726-22.436v-9.235l31.726,22.436V117.042z M610.424,93.908l29.026,20.525v-5.928
			l-29.026-20.526V93.908z"/>
	</g>
</g>
<g>
	<g>
		<path fill="#2C1200" d="M64.8,305.103l-31.725-22.436v-9.235L64.8,295.868V305.103z M34.425,281.968l29.025,20.526v-5.928
			L34.425,276.04V281.968z"/>
	</g>
</g>
<g>
	<g>
		<path fill="#2C1200" d="M609.299,305.312v-9.233l31.725-22.436v9.235L609.299,305.312z M610.649,296.777v5.928l29.025-20.526
			v-5.928L610.649,296.777z"/>
	</g>
</g>
<g>
	<g>
		<rect x="33.75" y="297.226" fill="#FC751A" width="30.375" height="7.649"/>
	</g>
	<g>
		<path fill="#2C1200" d="M64.8,305.55H33.075v-8.999H64.8V305.55z M34.425,304.2H63.45v-6.301H34.425V304.2z"/>
	</g>
</g>
<g>
	<g>
		<rect x="609.75" y="85.725" fill="#FC751A" width="30.373" height="7.65"/>
	</g>
	<g>
		<path fill="#2C1200" d="M640.8,94.05h-31.726v-9H640.8V94.05z M610.424,92.7h29.026v-6.3h-29.026V92.7z"/>
	</g>
</g>
<g>
	<g>
		<rect x="610.2" y="297.226" fill="#FC751A" width="30.375" height="7.649"/>
	</g>
	<g>
		<path fill="#2C1200" d="M641.25,305.55h-31.726v-8.999h31.726V305.55z M610.875,304.2H639.9v-6.301h-29.024V304.2z"/>
	</g>
</g>
<g>
	<g>
		<polygon fill="#FC751A" points="79.2,75.513 33.75,92.572 33.75,84.99 79.2,67.933 		"/>
	</g>
	<g>
		<path fill="#2C1200" d="M33.075,93.546v-9.023l46.799-17.565v9.023L33.075,93.546z M34.425,85.458v6.139l44.1-16.551v-6.139
			L34.425,85.458z"/>
	</g>
</g>
<g>
	<g>
		<path fill="#2C1200" d="M79.875,323.55H33.075v-9h46.799V323.55z M34.425,322.2h44.1v-6.3h-44.1V322.2z"/>
	</g>
</g>
<g>
	<g>
		<path fill="#2C1200" d="M640.35,75.825h-46.799v-9h46.799V75.825z M594.9,74.475H639v-6.3h-44.1V74.475z"/>
	</g>
</g>
<g>
	<g>
		<path fill="#2C1200" d="M641.024,323.325h-46.8v-8.774h46.8V323.325z M595.576,321.976h44.099V315.9h-44.099V321.976z"/>
	</g>
</g>
<g>
	<g>
		<path fill="#2C1200" d="M64.8,241.425H33.075v-16.459l0.365-0.188c11.076-5.725,17.957-17.084,17.957-29.646
			c0-12.561-6.881-23.92-17.957-29.645l-0.365-0.189v-16.122H64.8V241.425z M34.425,240.075H63.45v-89.55H34.425v13.953
			c11.312,6.017,18.321,17.724,18.321,30.653c0,12.93-7.01,24.637-18.321,30.654V240.075z"/>
	</g>
</g>
<g>
	<g>
		<rect x="33.075" y="164.925" fill="#2C1200" width="1.35" height="60.525"/>
	</g>
</g>
<g>
	<g>
		<path fill="#2C1200" d="M641.7,241.425h-31.725v-92.25H641.7v15.606l-0.384,0.184c-11.536,5.53-18.992,17.371-18.992,30.166
			c0,12.796,7.456,24.637,18.992,30.167l0.384,0.184V241.425z M611.324,240.075h29.026v-13.747
			c-5.666-2.802-10.461-7.089-13.885-12.422c-3.592-5.596-5.491-12.089-5.491-18.776c0-6.687,1.899-13.179,5.491-18.775
			c3.424-5.333,8.219-9.621,13.885-12.422v-13.408h-29.026V240.075z"/>
	</g>
</g>
<g>
	<g>
		<polygon fill="#FC751A" points="639.9,84.99 594.45,67.933 594.45,75.513 639.9,92.572 		"/>
	</g>
	<g>
		<path fill="#2C1200" d="M640.575,93.546l-46.8-17.565v-9.023l46.8,17.565V93.546z M595.125,75.046l44.101,16.551v-6.139
			l-44.101-16.551V75.046z"/>
	</g>
</g>
<g>
	<g>
		<polygon fill="#FC751A" points="79.2,314.538 33.75,297.48 33.75,305.062 79.2,322.12 		"/>
	</g>
	<g>
		<path fill="#2C1200" d="M79.875,323.094l-46.799-17.564v-9.022l46.799,17.564V323.094z M34.425,304.594l44.1,16.551v-6.139
			l-44.1-16.551V304.594z"/>
	</g>
</g>
<g>
	<g>
		<polygon fill="#FC751A" points="640.35,305.062 594.9,322.12 594.9,314.538 640.35,297.48 		"/>
	</g>
	<g>
		<path fill="#2C1200" d="M594.224,323.094v-9.023l46.8-17.564v9.022L594.224,323.094z M595.576,315.006v6.139l44.099-16.551v-6.139
			L595.576,315.006z"/>
	</g>
</g>
<g>
	<g>
		<rect x="640.35" y="164.25" fill="#2C1200" width="1.35" height="61.875"/>
	</g>
</g>
<g>
	<g>
		<path fill="#2C1200" d="M140.625,165.6h-16.553l16.553-50.509v30.218l-4.545,4.546l4.545,4.545V165.6z M125.935,164.25h13.34
			v-9.292l-5.105-5.104l5.105-5.105v-21.205L125.935,164.25z"/>
	</g>
</g>
<g>
	<g>
		<path fill="#2C1200" d="M140.625,274.514l-16.555-50.189h16.555v11.539l-4.545,4.545l4.545,4.545V274.514z M125.936,225.675
			l13.339,40.438v-20.598l-5.105-5.105l5.105-5.105v-9.629H125.936z"/>
	</g>
</g>
<g>
	<g>
		<g>
			<path fill="#2C1200" d="M88.599,205.564l-0.172-1.339c-0.384-2.991,1.457-7.176,4.804-10.924
				c3.629-4.062,8.239-6.718,12.648-7.284c1.346-0.173,2.588-0.257,3.798-0.257c7.972,0,14.591,3.773,26.789,11.781l3.272,2.148
				l-3.803-0.928c-7.305-1.784-14.133-2.688-20.298-2.688c-15.029,0-22.784,5.356-26.07,8.55L88.599,205.564z M109.676,187.11
				c-1.151,0-2.338,0.08-3.625,0.245c-4.092,0.525-8.398,3.02-11.813,6.845c-2.52,2.822-4.157,5.956-4.46,8.411
				c3.942-3.34,11.88-7.888,25.859-7.888c5.218,0,10.897,0.635,16.925,1.89C121.722,189.646,116.232,187.11,109.676,187.11z"/>
		</g>
	</g>
	<g>
		<g>
			<path fill="#2C1200" d="M137.14,191.561l-1.226-0.49c-9.623-3.849-15.587-7.833-15.587-15.79v-0.675h0.675
				c8.175,0,13.93,8.125,15.817,15.674L137.14,191.561z M121.693,175.978c0.324,6.441,5.191,9.888,13.45,13.321
				C133.154,182.865,128.329,176.401,121.693,175.978z"/>
		</g>
	</g>
	<g>
		<g>
			<path fill="#2C1200" d="M113.964,214.125c-0.001,0-0.001,0-0.002,0c-2.563,0-5.389-0.226-8.641-0.69l-0.983-0.14l0.493-0.863
				c5.327-9.322,14.569-10.714,19.605-10.714c4.517,0,8.993,1.114,11.681,2.907l0.768,0.512l-0.721,0.576
				C128.597,211.766,122.372,214.125,113.964,214.125z M106.525,212.237c2.766,0.362,5.208,0.539,7.438,0.539c0,0,0.001,0,0.002,0
				c7.784,0,13.631-2.119,20.591-7.514c-2.513-1.348-6.353-2.193-10.119-2.193C119.855,203.068,111.579,204.285,106.525,212.237z"/>
		</g>
	</g>
	<g>
		<g>
			<path fill="#2C1200" d="M147.747,202.49c-2.185,0-6.361-1.739-6.361-4.465c0-2.727,4.177-4.466,6.361-4.466
				c2.462,0,4.465,2.003,4.465,4.466S150.209,202.49,147.747,202.49z M147.747,194.909c-1.84,0-5.011,1.54-5.011,3.116
				c0,1.576,3.171,3.115,5.011,3.115c1.718,0,3.115-1.397,3.115-3.115S149.465,194.909,147.747,194.909z"/>
		</g>
	</g>
</g>
<g>
	<g>
		<path fill="#2C1200" d="M533.476,274.379v-30.057l4.545-4.545l-4.545-4.545v-10.907h17.089L533.476,274.379z M534.826,244.883
			v21.365l13.854-40.573h-13.854v8.998l5.104,5.105L534.826,244.883z"/>
	</g>
</g>
<g>
	<g>
		<path fill="#2C1200" d="M550.563,165.6h-17.087v-11.833l4.545-4.545l-4.545-4.545v-29.45L550.563,165.6z M534.826,164.25h13.854
			l-13.854-40.842v20.708l5.104,5.105l-5.104,5.105V164.25z"/>
	</g>
</g>
<g>
	<g>
		<g>
			<path fill="#2C1200" d="M586.025,205.564l-0.967-0.94c-3.285-3.194-11.041-8.551-26.07-8.551c-6.164,0-12.993,0.904-20.298,2.688
				l-3.803,0.928l3.271-2.148c12.2-8.008,18.818-11.781,26.789-11.781c1.211,0,2.453,0.084,3.798,0.257
				c4.41,0.566,9.02,3.222,12.649,7.284c3.347,3.748,5.188,7.934,4.803,10.924L586.025,205.564z M558.988,194.723
				c13.979,0,21.917,4.548,25.86,7.889c-0.303-2.456-1.941-5.59-4.461-8.412c-3.415-3.825-7.721-6.319-11.812-6.845
				c-1.289-0.165-2.474-0.245-3.627-0.245c-6.557,0-12.044,2.536-22.885,9.503C548.09,195.358,553.769,194.723,558.988,194.723z"/>
		</g>
	</g>
	<g>
		<g>
			<path fill="#2C1200" d="M537.486,191.561l0.319-1.28c1.888-7.55,7.644-15.675,15.818-15.675h0.676v0.675
				c0,7.957-5.965,11.941-15.589,15.79L537.486,191.561z M552.931,175.978c-6.635,0.424-11.46,6.887-13.45,13.321
				C547.74,185.866,552.609,182.418,552.931,175.978z"/>
		</g>
	</g>
	<g>
		<g>
			<path fill="#2C1200" d="M560.663,214.125c-8.411,0-14.636-2.359-22.202-8.413l-0.721-0.576l0.769-0.512
				c2.688-1.792,7.163-2.906,11.681-2.906c5.034,0,14.277,1.392,19.604,10.714l0.493,0.863l-0.983,0.14
				C566.051,213.9,563.224,214.125,560.663,214.125z M540.07,205.262c6.958,5.395,12.809,7.514,20.593,7.514
				c2.229,0,4.671-0.176,7.438-0.539c-5.055-7.952-13.329-9.169-17.911-9.169C546.421,203.068,542.582,203.914,540.07,205.262z"/>
		</g>
	</g>
	<g>
		<g>
			<path fill="#2C1200" d="M526.667,202.491c-2.461,0-4.465-2.003-4.465-4.466c0-2.463,2.004-4.466,4.465-4.466
				c1.186,0,2.781,0.471,4.066,1.198c1.616,0.915,2.505,2.075,2.505,3.268C533.238,200.649,528.974,202.491,526.667,202.491z
				 M526.668,194.909c-1.721,0-3.117,1.398-3.117,3.116c0,1.718,1.398,3.116,3.115,3.116c1.872,0,5.223-1.57,5.223-3.116
				C531.889,196.48,528.539,194.909,526.668,194.909z"/>
		</g>
	</g>
</g>
<g>
	<g>
		<path fill="#2C1200" d="M101.038,44.325h-7.213V27.9h16.425v6.801h-0.675c-4.548,0-8.537,4.182-8.537,8.949V44.325z
			 M95.175,42.975h4.535c0.332-5.05,4.345-9.239,9.189-9.599V29.25H95.175V42.975z"/>
	</g>
</g>
<g>
	<g>
		<polygon fill="#2C1200" points="110.25,44.325 100.125,44.325 100.125,42.975 108.899,42.975 108.899,34.2 110.25,34.2 		"/>
	</g>
</g>
<g>
	<g>
		<path fill="#2C1200" d="M110.25,362.7H93.825v-16.426h7.213v0.676c0,4.586,3.989,8.61,8.537,8.61h0.675V362.7z M95.175,361.35
			h13.725v-4.464c-4.758-0.358-8.833-4.466-9.186-9.261h-4.539V361.35z"/>
	</g>
</g>
<g>
	<g>
		<polygon fill="#2C1200" points="110.25,356.4 108.899,356.4 108.899,347.625 100.35,347.625 100.35,346.274 110.25,346.274 		"/>
	</g>
</g>
<g>
	<g>
		<path fill="#2C1200" d="M580.048,362.7h-16.424v-7.14h0.676c4.803,0,9.015-4.024,9.015-8.61v-0.676h6.733V362.7z M564.975,361.35
			H578.7v-13.725h-4.061c-0.371,4.806-4.662,8.92-9.664,9.263V361.35z"/>
	</g>
</g>
<g>
	<g>
		<polygon fill="#2C1200" points="564.975,356.4 563.625,356.4 563.625,346.274 573.973,346.274 573.973,347.625 564.975,347.625 		
			"/>
	</g>
</g>
<g>
	<g>
		<path fill="#2C1200" d="M580.725,44.325h-6.778V43.65c0-4.767-4.192-8.949-8.972-8.949H564.3V27.9h16.425V44.325z M575.275,42.975
			h4.101V29.25H565.65v4.124C570.72,33.719,574.927,37.916,575.275,42.975z"/>
	</g>
</g>
<g>
	<g>
		<polygon fill="#2C1200" points="574.424,44.325 564.3,44.325 564.3,34.2 565.65,34.2 565.65,42.975 574.424,42.975 		"/>
	</g>
</g>
<g>
	<g>
		<g>
			<path fill="#2C1200" d="M276.578,349.329c-2.463,0-4.466-2.002-4.466-4.465c0-2.463,2.003-4.465,4.466-4.465
				s4.465,2.002,4.465,4.465C281.043,347.327,279.041,349.329,276.578,349.329z M276.578,341.749c-1.718,0-3.116,1.397-3.116,3.116
				c0,1.718,1.398,3.116,3.116,3.116s3.115-1.398,3.115-3.116C279.693,343.146,278.296,341.749,276.578,341.749z"/>
		</g>
	</g>
	<g>
		<g>
			<path fill="#2C1200" d="M398.512,349.329c-2.462,0-4.465-2.002-4.465-4.465c0-2.463,2.003-4.465,4.465-4.465
				c2.463,0,4.467,2.002,4.467,4.465C402.979,347.327,400.975,349.329,398.512,349.329z M398.512,341.749
				c-1.718,0-3.115,1.397-3.115,3.116c0,1.718,1.397,3.116,3.115,3.116s3.117-1.398,3.117-3.116
				C401.629,343.146,400.23,341.749,398.512,341.749z"/>
		</g>
	</g>
	<g>
		<g>
			<path fill="#2C1200" d="M337.018,349.329c-2.461,0-4.465-2.002-4.465-4.465c0-2.463,2.004-4.465,4.465-4.465
				c2.463,0,4.466,2.002,4.466,4.465C341.484,347.327,339.481,349.329,337.018,349.329z M337.018,341.749
				c-1.718,0-3.115,1.397-3.115,3.116c0,1.718,1.397,3.116,3.115,3.116c1.719,0,3.116-1.398,3.116-3.116
				C340.134,343.146,338.737,341.749,337.018,341.749z"/>
		</g>
	</g>
</g>
<g>
	<g>
		<g>
			<path fill="#2C1200" d="M323.079,51.783l-0.723-0.024c-2.722-0.092-5.282-1.204-7.21-3.13c-1.925-1.926-3.037-4.487-3.129-7.209
				l-0.024-0.722l0.722,0.025c2.723,0.092,5.282,1.204,7.209,3.13c1.927,1.926,3.038,4.486,3.13,7.209L323.079,51.783z
				 M313.42,42.127c0.241,2.096,1.177,4.042,2.682,5.547c1.504,1.505,3.451,2.441,5.547,2.681c-0.239-2.095-1.176-4.042-2.681-5.547
				C317.463,43.303,315.517,42.367,313.42,42.127z"/>
		</g>
	</g>
	<g>
		<g>
			<path fill="#2C1200" d="M352.706,52.329L352.706,52.329c-0.086,0-0.169-0.001-0.255-0.003l-0.645-0.015l-0.014-0.645
				c-0.064-2.883,0.966-5.537,2.902-7.474c1.875-1.874,4.439-2.906,7.223-2.906c0.084,0,0.168,0,0.252,0.002l0.646,0.015
				l0.014,0.645c0.064,2.883-0.967,5.537-2.904,7.475C358.052,51.297,355.488,52.329,352.706,52.329z M361.472,42.646
				c-2.25,0.103-4.302,0.981-5.821,2.5c-1.525,1.524-2.399,3.572-2.502,5.822c2.25-0.102,4.304-0.981,5.822-2.5
				C360.495,46.944,361.37,44.896,361.472,42.646z"/>
		</g>
	</g>
	<g>
		<g>
			<path fill="#2C1200" d="M341.19,54.225h-7.171l-3.35-16.425h13.779L341.19,54.225z M335.122,52.875h4.959l2.724-13.725h-10.482
				L335.122,52.875z"/>
		</g>
	</g>
</g>
<g>
	<g>
		<path fill="#2C1200" d="M200.817,34.98l-6.641-6.641l6.641-6.64l6.641,6.64L200.817,34.98z M196.085,28.34l4.731,4.732
			l4.731-4.732l-4.731-4.73L196.085,28.34z"/>
	</g>
</g>
<g>
	<g>
		<path fill="#2C1200" d="M472.904,34.98l-6.639-6.641l6.639-6.64l6.642,6.64L472.904,34.98z M468.173,28.34l4.73,4.732l4.733-4.732
			l-4.733-4.73L468.173,28.34z"/>
	</g>
</g>
<g>
	<g>
		<path fill="#2C1200" d="M473.749,368.562l-6.643-6.64l6.643-6.641l6.641,6.641L473.749,368.562z M469.017,361.922l4.731,4.731
			l4.73-4.731l-4.73-4.732L469.017,361.922z"/>
	</g>
</g>
<g>
	<g>
		<path fill="#2C1200" d="M201.027,368.562l-6.641-6.64l6.641-6.641l6.641,6.641L201.027,368.562z M196.295,361.922l4.732,4.731
			l4.732-4.731l-4.732-4.732L196.295,361.922z"/>
	</g>
</g>
</svg>
