<?xml version="1.0" standalone="no"?>
<!DOCTYPE svg PUBLIC "-//W3C//DTD SVG 1.1//EN" "http://www.w3.org/Graphics/SVG/1.1/DTD/svg11.dtd" >
<svg xmlns="http://www.w3.org/2000/svg" xmlns:xlink="http://www.w3.org/1999/xlink" version="1.1">
<metadata></metadata>
<defs>
<font id="sabonbold" horiz-adv-x="1138" >
<font-face units-per-em="2048" ascent="1638" descent="-410" />
<missing-glyph horiz-adv-x="569" />
<glyph horiz-adv-x="0" />
<glyph unicode="&#xd;" horiz-adv-x="569" />
<glyph unicode=" "  horiz-adv-x="569" />
<glyph unicode="&#x09;" horiz-adv-x="569" />
<glyph unicode="&#xa0;" horiz-adv-x="569" />
<glyph unicode="!" horiz-adv-x="681" d="M178 131q0 66 49 115t113 49q66 0 115 -49t49 -115t-49 -114t-115 -48t-114 48.5t-48 113.5zM186 1192q0 80 37 133q41 63 117 64q154 0 154 -209q0 -74 -11 -127q-39 -215 -121 -647h-40q-43 219 -125 659q-10 57 -11 127z" />
<glyph unicode="&#x22;" d="M289 1321q0 109 104 109q113 0 113 -109q0 -16 -4 -41l-43 -373q-6 -55 -60 -55q-57 0 -63 55l-43 373q-4 35 -4 41zM633 1321q0 109 104 109q113 0 113 -109q0 -16 -4 -41l-43 -373q-6 -55 -60 -55q-57 0 -63 55l-43 373q-4 35 -4 41z" />
<glyph unicode="#" d="M57 403v140h217l41 297h-198v139h219l59 434h158l-59 -434h233l59 434h158l-59 -434h196v-139h-217l-41 -297h199v-140h-219l-60 -434h-157l59 434h-233l-60 -434h-157l59 434h-197zM436 543h230l39 297h-228z" />
<glyph unicode="$" d="M143 377l58 12q53 -174 90 -223q76 -109 241 -107v531q-186 94 -258 170q-106 111 -106 280q0 174 98.5 285t265.5 135v115h62v-115q127 0 321 -24q-2 -82 21 -295l-62 -11q-10 102 -75.5 179t-157.5 77q-33 0 -47 -2v-510q219 -115 283 -172q119 -113 118 -299 q0 -162 -119.5 -294t-281.5 -140v-178h-62v178q-178 0 -356 97zM385 1133q0 -138 147 -224v461q-147 -51 -147 -237zM594 66q63 -2 123.5 71.5t60.5 159.5q0 160 -184 258v-489z" />
<glyph unicode="%" horiz-adv-x="2048" d="M190 1092q0 156 97.5 254t259.5 98t259 -98.5t97 -253.5q0 -156 -97 -254.5t-259 -98.5t-259.5 98.5t-97.5 254.5zM408 1092q0 -279 139 -279t139 279t-139 278q-139 1 -139 -278zM520 -61l901 1536h111l-901 -1536h-111zM1145 322q0 156 97 254t259 98t259.5 -98.5 t97.5 -253.5q0 -156 -97.5 -254.5t-259.5 -98.5t-259 98.5t-97 254.5zM1362 322q0 -279 139 -279t139 279t-139 278q-139 1 -139 -278z" />
<glyph unicode="&#x26;" horiz-adv-x="1933" d="M117 391q0 139 98 268q88 113 223 185q-154 113 -153 284q0 131 108 220q100 82 236 82q115 0 194 -48q96 -59 97 -165q0 -98 -72 -170q-39 -39 -158 -111q268 -147 469 -418q215 350 215 414q0 80 -133 76v59q188 -8 285 -8q94 0 286 8v-61q-2 0 -110 -9 q-127 -10 -285 -219q-109 -156 -217 -313q231 -346 408 -346q119 0 217 119l43 -33q-166 -250 -391 -250q-141 0 -256 100q-76 68 -177 221q-240 -307 -512 -307q-180 0 -297.5 120t-117.5 302zM313 518q0 -147 108.5 -249.5t258.5 -102.5q106 0 184 41q61 35 146 121 q-212 297 -525 483q-172 -131 -172 -293zM453 1204q0 -139 182 -239q129 96 129 223q0 70 -45 119t-117 49q-63 0 -106 -45t-43 -107z" />
<glyph unicode="'" horiz-adv-x="569" d="M176 1321q0 109 105 109q113 0 112 -109q0 -16 -4 -41l-43 -373q-6 -55 -59 -55q-57 0 -64 55l-43 373q-4 35 -4 41z" />
<glyph unicode="(" horiz-adv-x="681" d="M145 545q0 225 82 461q70 199 224 467l61 -37q-104 -279 -147 -443q-63 -240 -64 -442q0 -330 211 -883l-68 -51q-299 424 -299 928z" />
<glyph unicode=")" horiz-adv-x="681" d="M170 -346q104 279 147 442q63 240 64 443q0 330 -211 882l68 52q299 -424 299 -928q0 -225 -82 -461q-70 -199 -224 -467z" />
<glyph unicode="*" d="M199 909q0 70 284 129q4 -14 23 -34q-76 -98 -96 -121q-74 -82 -123 -82q-39 0 -63.5 33.5t-24.5 74.5zM221 1241q0 35 23 68q31 35 65 34q25 0 49 -18q51 -41 156 -213q-23 -6 -27 -33q-63 25 -129 47q-72 29 -110 62q-23 18 -27 53zM528 750q0 74 4 237h13q8 -2 12 -2 q12 0 18 6q137 -190 138 -241q0 -35 -33 -59.5t-70 -24.5q-82 0 -82 84zM555 1120q6 98 6 199q0 109 84 111q37 0 71 -22t34 -56q0 -59 -156 -248q-20 16 -39 16zM606 1020q18 23 8 43q61 23 125 45q72 25 123 25q78 -1 78 -93q0 -88 -78 -88q-43 0 -256 68z" />
<glyph unicode="+" d="M53 424v184h424v424h185v-424h423v-184h-423v-424h-185v424h-424z" />
<glyph unicode="," horiz-adv-x="569" d="M74 -297q231 59 231 203q0 74 -91 112.5t-91 120.5q0 61 45 108.5t106 47.5q94 0 150 -72q49 -66 49 -164q0 -160 -106 -270q-97 -98 -261 -141z" />
<glyph unicode="-" horiz-adv-x="681" d="M53 406l35 163q92 -2 277 -2q45 0 133 2h131l-35 -163q-39 0 -117 2h-119q-254 0 -305 -2z" />
<glyph unicode="." horiz-adv-x="569" d="M123 131q0 66 49 115t113 49q66 0 115 -49t49 -115t-49.5 -114t-114.5 -48q-66 0 -114 48.5t-48 113.5z" />
<glyph unicode="/" horiz-adv-x="796" d="M-14 -31l610 1491h195l-609 -1491h-196z" />
<glyph unicode="0" d="M86 727q0 301 102 487q125 230 381 230q483 0 484 -717q0 -309 -103 -510q-127 -248 -381 -248q-262 0 -385 248q-98 195 -98 510zM315 727q0 -684 254 -684t254 684q0 643 -254 643t-254 -643z" />
<glyph unicode="1" d="M166 1130q252 129 504 314h57v-1270q0 -76 55 -98q35 -14 129 -15h47v-61q-61 0 -172 2q-123 4 -172 4q-66 0 -186 -2q-129 -4 -186 -4v61h45q92 0 129 15q61 25 61 96v1030q-92 -43 -278 -131z" />
<glyph unicode="2" d="M43 0v70q248 184 414 387q223 274 223 501q0 127 -70 211q-76 90 -204 91q-154 -1 -271 -179l-41 41q61 139 182 230q129 92 275 92q164 0 261 -102.5t97 -270.5q0 -213 -202 -467q-76 -94 -363 -375h578q31 63 51 117h55q-18 -115 -49 -346h-936z" />
<glyph unicode="3" d="M88 166q0 10 23 20q49 20 86 17q23 -76 84 -118t139 -42q131 0 217 98q82 92 82 228q0 147 -72 234t-182 87q-78 1 -176 -26l-13 61q375 119 375 340q0 94 -59.5 154.5t-153.5 60.5q-131 0 -245 -123l-41 43q186 244 419 244q117 0 209 -70q100 -76 101 -190 q0 -135 -88 -232q-66 -72 -207 -143v-4q164 12 268 -68q115 -86 115 -250q0 -221 -197 -374q-182 -143 -407 -144q-213 0 -263 113q-14 33 -14 84z" />
<glyph unicode="4" d="M57 410v118l684 916h129v-850h160v-184h-160v-410h-229v410h-584zM207 594h434v590h-4z" />
<glyph unicode="5" d="M94 119q0 76 68 76q33 0 61 -39q43 -57 64 -74q51 -39 137 -39q125 0 203 90q72 84 71 211q0 180 -161 307q-137 109 -332 146l198 616h570l-70 -211h-491l-66 -196q549 -150 549 -545q0 -221 -170 -361q-160 -131 -385 -131q-86 0 -156 33q-90 41 -90 117z" />
<glyph unicode="6" d="M78 518q0 350 309 623q281 248 645 303l29 -55q-324 -76 -522 -297q-211 -233 -211 -557q0 -162 59 -304q78 -188 219 -188q104 0 162 76q49 68 49 176q0 131 -69 237q-80 117 -199 117q-66 0 -148 -53l-6 51q41 68 126 117t177 49q166 0 263 -119q86 -109 86 -272 q0 -195 -150 -328q-143 -125 -340 -125q-223 0 -356 168q-123 154 -123 381z" />
<glyph unicode="7" d="M123 1057l47 356h926l14 -24l-752 -1436l-98 47l614 1184h-636l-60 -127h-55z" />
<glyph unicode="8" d="M133 303q0 242 283 356l-29 19q-221 141 -221 371q0 203 151 309q121 86 283 86q158 0 264 -82q117 -92 117 -248q0 -217 -279 -346q303 -129 304 -389q0 -180 -136 -299q-129 -111 -309 -111q-166 0 -289 82q-139 94 -139 252zM301 322q0 -123 74 -201t194 -78 q98 0 158.5 64.5t60.5 162.5q0 131 -106 224q-31 27 -217 139q-164 -98 -164 -311zM362 1145q0 -125 91 -217q63 -61 200 -131q160 111 160 303q0 111 -64.5 190.5t-173.5 79.5q-88 0 -150.5 -68.5t-62.5 -156.5z" />
<glyph unicode="9" d="M78 25q324 76 522 297q211 233 211 557q0 162 -59 303q-78 188 -220 188q-104 0 -159 -76q-51 -68 -51 -176q0 -131 69 -237q80 -117 199 -117q65 0 147 53l6 -51q-41 -68 -122 -115q-88 -51 -181 -51q-166 0 -262 119q-86 109 -86 272q0 195 150 328q143 125 340 125 q223 0 356 -168q123 -154 123 -381q0 -350 -309 -623q-281 -248 -646 -303z" />
<glyph unicode=":" horiz-adv-x="569" d="M123 131q0 66 49 115t113 49q66 0 115 -49t49 -115t-49.5 -114t-114.5 -48q-66 0 -114 48.5t-48 113.5zM123 756q0 66 49 115t113 49q66 0 115 -49t49 -115t-49.5 -114t-114.5 -48q-66 0 -114 48t-48 114z" />
<glyph unicode=";" horiz-adv-x="569" d="M74 -297q231 59 231 203q0 74 -91 112.5t-91 120.5q0 61 45 108.5t106 47.5q94 0 150 -72q49 -66 49 -164q0 -160 -106 -270q-97 -98 -261 -141zM123 756q0 66 49 115t113 49q66 0 115 -49t49 -115t-49.5 -114t-114.5 -48q-66 0 -114 48t-48 114z" />
<glyph unicode="&#x3c;" d="M49 446v140l1041 452v-182l-785 -340l785 -340v-182z" />
<glyph unicode="=" d="M53 215v184h1032v-184h-1032zM53 633v184h1032v-184h-1032z" />
<glyph unicode="&#x3e;" d="M49 -6v182l785 340l-785 340v182l1041 -452v-140z" />
<glyph unicode="?" horiz-adv-x="909" d="M225 131q0 66 49.5 115t112.5 49q66 0 115 -49t49 -115t-49 -114t-115 -48t-114 48.5t-48 113.5zM227 1323q0 53 49 88q43 33 99 33q158 2 289 -199q111 -170 110 -346q0 -287 -295 -340q-74 -12 -80 -47q-10 -55 -10 -106h-53l-8 368q0 27 24 27q121 0 207 39 q113 53 113 161q0 98 -58.5 155.5t-158.5 57.5q-20 0 -54 -4t-45 -4q-53 0 -88 29q-41 31 -41 88z" />
<glyph unicode="@" horiz-adv-x="1638" d="M74 682q0 346 221 562t563 216q319 0 516 -182q190 -176 191 -455q0 -219 -105 -362q-111 -154 -295 -154q-94 0 -151 68q-45 51 -43 92h-4q-16 -43 -80 -94q-84 -66 -174 -66q-217 0 -217 268q0 174 104 334q129 197 338 197q66 0 100 -33q16 -14 45 -67l21 73h160 l-127 -540q-4 -18 -4 -45q0 -59 65 -60q88 0 152 127q59 119 59 260q0 227 -141 367q-147 145 -410 145q-240 0 -403 -159q-184 -178 -185 -492q0 -242 174 -414t435 -172q227 0 426 103l22 -97q-240 -133 -446 -133q-414 0 -633 248q-174 197 -174 465zM692 612 q0 -178 111 -178q80 0 155 119q80 129 80 295q0 131 -102 131q-84 0 -160 -102q-84 -111 -84 -265z" />
<glyph unicode="A" horiz-adv-x="1478" d="M25 0v61h12q131 0 178 134l328 940q33 90 75 254q102 35 187 88q12 4 16 4q10 0 15 -6q6 -18 18 -52l377 -1071q25 -74 76 -209q35 -82 135 -82h12v-61q-184 8 -283 8q-98 0 -307 -8v61h23q127 0 127 60q0 27 -41 147l-80 238h-465l-66 -213q-45 -145 -45 -160 q0 -72 154 -72h23v-61q-164 8 -248 8q-74 0 -221 -8zM467 621h383l-188 579h-5z" />
<glyph unicode="B" horiz-adv-x="1366" d="M39 0v61h29q152 0 151 117v1073q0 117 -151 117h-29v62q43 0 151.5 -4.5t167.5 -4.5q61 0 172 4.5t156 4.5q244 0 367 -95q106 -82 106 -227q0 -264 -373 -332v-4h15q172 0 297 -88q145 -102 145 -278q0 -166 -142.5 -286t-340.5 -120q-47 0 -169 4t-190 4t-195.5 -4 t-166.5 -4zM481 248q0 -109 34 -141.5t151 -32.5q129 0 216 93t87 230q0 164 -101 252q-94 80 -256 80h-131v-481zM481 803h101q303 0 303 266q0 287 -281 287h-123v-553z" />
<glyph unicode="C" horiz-adv-x="1478" d="M84 735q0 332 238 535q223 190 555 190q137 0 272 -41q176 -53 237 -61v-48q0 -157 17 -294l-62 -8q-51 174 -135 256q-113 106 -323 106q-244 0 -381 -176q-131 -168 -131 -446q0 -283 135 -474q154 -215 426 -215q160 0 268.5 92.5t149.5 249.5l57 -8 q-33 -137 -51 -332q-213 -92 -469 -92q-360 0 -574 191q-229 203 -229 575z" />
<glyph unicode="D" horiz-adv-x="1593" d="M39 0v61h29q152 0 151 117v1073q0 117 -151 117h-29v62q23 0 138.5 -4.5t189.5 -4.5q72 0 181 4.5t148 4.5q375 0 594 -194t219 -517q0 -309 -224 -523q-207 -197 -487 -197q-24 0 -48 1q-145 8 -373 8q-80 0 -201 -4t-137 -4zM481 236q0 -106 60 -140q39 -22 144 -22h9 q248 0 396 184q133 170 133 422q0 676 -602 676q-27 0 -140 -10v-1110z" />
<glyph unicode="E" horiz-adv-x="1251" d="M39 0v61h29q152 0 151 117v1073q0 117 -151 117h-29v62q57 0 237.5 -4.5t272.5 -4.5q90 0 274.5 4.5t249.5 4.5q-2 -57 -2 -115q0 -97 6 -199l-61 -16q-10 121 -47 170q-56 69 -199 69h-4h-285v-536h244q86 0 123 49q29 39 39 131h61q-6 -119 -6 -240q0 -117 6 -233 l-61 -12q-12 113 -31 147q-33 55 -129 55h-246v-477q0 -90 76 -117q47 -16 174 -16q203 0 277 37q96 49 139 213l57 -14q-47 -190 -69 -326q-59 0 -256 4t-295 4q-100 0 -298 -4t-247 -4z" />
<glyph unicode="F" d="M39 0v61h29q152 0 151 117v1073q0 117 -151 117h-29v62q57 0 237.5 -4.5t272.5 -4.5q90 0 274.5 4.5t249.5 4.5q-2 -57 -2 -115q0 -97 6 -199l-61 -16q-10 121 -47 172q-46 67 -157 67h-3h-328v-536h287q131 0 131 166h62q-8 -147 -9 -219q0 -137 9 -250h-62 q0 200 -162 200h-2h-254v-522q0 -78 60 -100q39 -16 137 -17h27v-61q-45 0 -168 4t-185 4q-55 0 -164.5 -4t-148.5 -4z" />
<glyph unicode="G" horiz-adv-x="1593" d="M84 737q0 338 254 541q231 182 565 182q135 0 295 -37q76 -18 232 -39v-18q0 -218 24 -332l-61 -4q-82 340 -475 340q-264 0 -412 -178q-135 -164 -135 -434q0 -283 129 -475q152 -221 424 -224q184 0 227 39v334q0 104 -156 105h-26v61q205 -8 307 -8q90 0 274 8v-61 h-26q-111 0 -111 -105v-311l47 -27v-37q-313 -88 -571 -88q-354 0 -574 199q-231 209 -231 569z" />
<glyph unicode="H" horiz-adv-x="1705" d="M39 0v61h29q152 0 151 117v1073q0 117 -151 117h-29v62q39 0 146.5 -4t162.5 -5q57 0 173 4.5t159 4.5v-62h-39q-160 0 -160 -117v-448h744v448q0 117 -160 117h-39v62q43 0 158.5 -4t173.5 -5q55 0 162.5 4.5t146.5 4.5v-62h-29q-152 0 -151 -117v-1073q0 -117 151 -117 h29v-61q-39 0 -146.5 4t-162.5 4q-57 0 -173 -4t-159 -4v61h39q160 0 160 117v510h-744v-510q0 -117 160 -117h39v-61q-43 0 -158.5 4t-173.5 4q-55 0 -162.5 -4t-146.5 -4z" />
<glyph unicode="I" horiz-adv-x="681" d="M29 0v61h28q152 0 152 117v1073q0 117 -152 117h-28v62q37 0 143.5 -4.5t159.5 -4.5q51 0 162.5 4.5t158.5 4.5v-62h-28q-152 0 -152 -117v-1073q0 -117 152 -117h28v-61q-49 0 -160.5 4t-162.5 4q-53 0 -158.5 -4t-142.5 -4z" />
<glyph unicode="J" horiz-adv-x="796" d="M-73.5 -192.5q32.5 34.5 87.5 34.5q72 0 99 -51q16 -47 32.5 -97t69.5 -50h1q87 0 87 155v1461q0 72 -53 94q-31 14 -119 14h-29v62q43 0 153 -4.5t163 -4.5q55 0 166.5 4.5t152.5 4.5v-62h-30q-141 0 -142 -108v-1205q0 -190 -119 -340q-128 -161 -311 -161h-2 q-239 0 -239 173q0 46 32.5 80.5z" />
<glyph unicode="K" horiz-adv-x="1478" d="M39 0v61h29q152 0 151 117v1073q0 117 -151 117h-29v62q39 0 146.5 -4.5t162.5 -4.5q59 0 173 4.5t153 4.5v-62h-25q-168 0 -168 -117v-1073q0 -117 168 -117h25v-61q-39 0 -152.5 4t-173.5 4q-55 0 -162.5 -4t-146.5 -4zM487 707l431 479q90 100 90 139q0 43 -115 43 h-23v62q45 0 132.5 -4.5t130.5 -4.5q47 0 138 4.5t136 4.5v-62h-27q-162 0 -329 -182l-324 -350l526 -662q90 -113 187 -113v-61q-33 0 -103.5 2t-105.5 2q-33 0 -97.5 -2t-97.5 -2q-25 51 -106 154z" />
<glyph unicode="L" horiz-adv-x="1251" d="M47 0v61h29q154 0 153 138v1052q0 117 -153 117h-29v62q55 0 162.5 -4.5t161.5 -4.5q53 0 156.5 4.5t154.5 4.5v-62h-51q-74 0 -99 -14q-40 -23 -40 -97v-1056q0 -102 122 -115q54 -5 112 -5q77 0 159 9q127 14 196 111q37 51 64 147h59q-25 -115 -76 -348q-90 0 -270 4 t-270 4t-270.5 -4t-270.5 -4z" />
<glyph unicode="M" horiz-adv-x="2048" d="M33 0v61h28q111 0 148 56q25 39 39 168l61 569q25 227 25 360q0 154 -178 154h-27v62q43 0 126 -4.5t124 -4.5q31 0 92 4.5t92 4.5l479 -1072l486 1072q29 0 99.5 -4.5t109.5 -4.5q37 0 109.5 4.5t107.5 4.5v-62h-19q-186 0 -190 -94v-9q0 -35 10 -151l78 -938 q6 -72 49 -94q31 -16 133 -21v-61q-193 8 -295 8q-113 0 -338 -8v61q100 6 129 17q47 18 48 80q0 70 -3 100l-57 864h-4l-522 -1153h-49l-496 1131h-4l-70 -899q-1 -9 -1 -18q0 -70 44 -99q35 -23 131 -23h25v-61q-184 8 -279 8q-82 0 -241 -8z" />
<glyph unicode="N" horiz-adv-x="1705" d="M29 0v61h28q184 0 185 261v862q0 82 -56.5 133t-130.5 51h-26v62q39 0 117.5 -4.5t117.5 -4.5q31 0 91 4.5t91 4.5l912 -1027l4 5v768q0 192 -176 192h-2h-45v62q49 0 144 -4.5t142 -4.5q43 0 127 4.5t125 4.5v-62h-30q-84 0 -123 -39q-59 -57 -60 -221v-932 q0 -131 13 -207h-78l-1055 1176v-844q0 -137 39 -188.5t154 -51.5h34v-61q-43 0 -131 4t-133 4t-138 -4t-140 -4z" />
<glyph unicode="O" horiz-adv-x="1708" d="M84 705q0 319 218 537t538 218q336 0 555 -190q229 -197 229 -516q0 -348 -221 -566.5t-553 -218.5q-330 0 -545 203q-221 207 -221 533zM371 776q0 -295 125 -495q139 -221 374 -222q467 0 467 650q0 252 -123 442q-141 219 -378 219q-246 0 -367 -194 q-98 -156 -98 -400z" />
<glyph unicode="P" d="M47 0v61h33q61 0 88 23q41 35 41 143v979q0 98 -31 133q-29 29 -106 29h-25v62q33 0 132.5 -4.5t154.5 -4.5t154.5 4.5t144.5 4.5q481 0 481 -392q0 -176 -110.5 -287.5t-284.5 -127.5q-45 -4 -164 -5v62h43q121 0 182 98q59 92 60 252q0 326 -310 326h-59v-1125 q0 -113 57 -147q39 -23 138 -23h32v-61q-51 0 -154.5 4t-156.5 4q-55 0 -168 -4t-172 -4z" />
<glyph unicode="Q" horiz-adv-x="1708" d="M84 705q0 319 218 537t538 218q336 0 555 -190q229 -197 229 -516q0 -291 -158.5 -495t-418.5 -261q29 -18 83 -57q82 -66 242 -189q121 -92 166 -92q55 0 86 31l31 -39q-61 -68 -107 -92q-51 -27 -121 -27q-106 0 -219 88q-20 16 -194 172q-139 125 -228 176 q-305 20 -503.5 223.5t-198.5 512.5zM371 776q0 -295 125 -495q139 -221 374 -222q467 0 467 650q0 252 -123 442q-141 219 -378 219q-246 0 -367 -194q-98 -156 -98 -400z" />
<glyph unicode="R" horiz-adv-x="1478" d="M47 0v61h37q145 0 145 111v1040q0 98 -49 134q-30 22 -91 22h-5h-37v62q25 0 136.5 -4.5t181.5 -4.5q63 0 169.5 4.5t159.5 4.5q487 0 488 -361q0 -248 -285 -360l350 -525q43 -63 83 -87.5t116 -35.5v-61q-33 0 -99.5 4t-101.5 4q-31 0 -95.5 -4t-96.5 -4 q-197 258 -426 664h-135v-439q0 -106 49 -141q33 -23 118 -23h37v-61q-57 0 -175 4t-177 4q-49 0 -147.5 -4t-149.5 -4zM492 737h100q160 0 237.5 73t77.5 247q0 137 -81 218t-218 81q-1 0 -116 -8v-611z" />
<glyph unicode="S" horiz-adv-x="1024" d="M84 373l57 12q20 -141 95 -227q86 -98 223 -99q109 0 180.5 63.5t71.5 170.5q0 147 -156 244q-145 84 -291 168q-155 122 -155 328q0 200 124.5 313.5t327.5 113.5q57 0 295 -30q1 -129 21 -293l-58 -11q-12 106 -74 181q-67 79 -165 79h-2q-121 0 -186.5 -67.5 t-65.5 -190.5q0 -137 159 -231q147 -82 295 -166q160 -123 160 -332q0 -203 -149 -321q-137 -109 -347 -109q-145 0 -325 92q-4 53 -16.5 157t-18.5 155z" />
<glyph unicode="T" horiz-adv-x="1478" d="M27 1141q37 258 36 348h50q10 -41 47 -53q20 -6 76 -6h1056q106 0 111 63l49 -8q-8 -55 -22 -166q-4 -45 -5 -166l-61 -23q-10 197 -152 197h-335v-1089q0 -100 37.5 -138.5t132.5 -38.5h38v-61q-37 0 -155.5 4t-177.5 4q-68 0 -190 -4t-156 -4v61h38q96 0 127 25 q43 35 43 147v1094h-335q-109 0 -142 -37q-25 -27 -49 -149h-61z" />
<glyph unicode="U" horiz-adv-x="1593" d="M37 1368v62q39 0 147.5 -4t177.5 -5q68 0 170.5 4.5t137.5 4.5v-62h-25q-82 0 -113 -18q-51 -33 -51 -131v-707q0 -440 389 -440t390 448v699q0 98 -48 131q-29 18 -100 18h-41v62q41 0 124 -4t124 -5q41 0 120 4.5t117 4.5v-62h-43q-59 0 -86 -18q-45 -35 -45 -131v-654 q0 -596 -551 -596q-303 0 -452 117q-160 125 -160 393v740q0 98 -47 131q-31 18 -111 18h-24z" />
<glyph unicode="V" horiz-adv-x="1478" d="M14 1368v62q53 0 159 -4.5t157 -4.5q55 0 166.5 4.5t136.5 4.5v-62h-47q-106 0 -107 -57q0 -18 19 -66l350 -911h4l326 852q26 68 26 111q0 71 -131 71h-35v62q35 0 114 -4.5t124 -4.5q33 0 96.5 4.5t91.5 4.5v-62h-20q-72 0 -109 -72q-31 -59 -448 -1124 q-29 -68 -84 -203h-76l-520 1282q-29 68 -65 92.5t-107 24.5h-21z" />
<glyph unicode="W" horiz-adv-x="2048" d="M4 1368v62q37 0 140.5 -4.5t154.5 -4.5q45 0 136 4.5t122 4.5v-62h-18q-88 0 -88 -47t69 -211l336 -788l166 399l-256 592q-25 55 -125 55v62q49 0 145.5 -4.5t143.5 -4.5q39 0 113.5 4.5t111.5 4.5q33 0 98.5 -4.5t98.5 -4.5q31 0 92 4.5t92 4.5v-62h-29q-74 0 -108 -35 q-29 -27 -70 -121l-121 -280l252 -594l316 860q30 81 30 111q0 59 -123 59h-24v62q35 0 102.5 -4.5t100.5 -4.5q31 0 91 4.5t91 4.5v-62h-25q-70 0 -121 -133l-483 -1266h-72l-274 641l-270 -641h-70l-516 1217q-43 100 -63 127q-41 55 -115 55h-31zM1049 1317q0 -23 32 -98 l78 -183h4l74 185q27 68 27 86q0 61 -115 61q-100 0 -100 -51z" />
<glyph unicode="X" horiz-adv-x="1593" d="M35 0v61h31q131 0 288 197l324 401l-422 578q-96 131 -195 131h-26v62q57 0 168.5 -4t167.5 -5q51 0 154.5 4.5t154.5 4.5v-62h-23q-112 0 -112 -46q0 -30 63 -118l240 -330l235 304q76 98 76 133q0 57 -127 57h-31v62q49 0 147.5 -4t147.5 -5q41 0 123 4.5t123 4.5v-62 h-39q-129 0 -264 -164l-334 -407l412 -576q115 -160 211 -160h31v-61q-43 0 -133.5 4t-135.5 4q-57 0 -173 -4t-173 -4v61h23q102 0 102 35q0 10 -45 74l-291 412l-276 -365q-57 -76 -58 -98q0 -57 148 -58h18v-61q-47 0 -141 4t-141 4q-41 0 -124 -4t-124 -4z" />
<glyph unicode="Y" horiz-adv-x="1478" d="M25 1368v62q55 0 160.5 -4.5t160.5 -4.5t155.5 4.5t147.5 4.5v-62h-26q-106 0 -107 -47q0 -16 37 -68l309 -434l254 367q63 92 64 133q0 49 -117 49h-37v62q39 0 117 -4.5t117 -4.5q33 0 98 4.5t96 4.5v-62q-92 0 -160 -94l-381 -539v-489q0 -121 45 -158q31 -27 125 -27 h39v-61q-63 0 -178 4t-156 4q-49 0 -165.5 -4t-180.5 -4v61h39q94 0 132 35t38 133v439l-409 561q-57 78 -86 102q-45 37 -111 37h-20z" />
<glyph unicode="Z" horiz-adv-x="1478" d="M59 0l940 1327h-510q-158 0 -215 -41q-68 -47 -86 -196h-71q28 236 28 361v9l62 17q8 -37 63 -45q12 -2 84 -2h1026l-938 -1328h598q147 0 213 62q49 45 107 203l59 -15q-29 -117 -78 -352h-1282z" />
<glyph unicode="[" horiz-adv-x="681" d="M201 -362q0 -8 4 121.5t4 318.5v934q0 188 -4 318t-4 122l12 8q2 0 72.5 -2t138.5 -2q55 0 125.5 2t95.5 2v-61h-98q-61 0 -121 -6q-49 -4 -49 -82v-1532q0 -78 49 -82q59 -6 121 -6h98v-62q-25 0 -95.5 2t-125.5 2q-68 0 -138.5 -2t-72.5 -2z" />
<glyph unicode="\" horiz-adv-x="796" d="M6 1460h195l610 -1491h-197z" />
<glyph unicode="]" horiz-adv-x="681" d="M37 -309h98q61 0 121 6q49 4 49 82v1532q0 78 -49 82q-59 6 -121 6h-98v61q25 0 95.5 -2t125.5 -2q68 0 138.5 2t72.5 2l12 -8q0 8 -4 -122t-4 -318v-934q0 -188 4 -318.5t4 -121.5l-12 -9q-2 0 -72.5 2t-138.5 2q-55 0 -125.5 -2t-95.5 -2v62z" />
<glyph unicode="^" d="M96 606l396 807h155l395 -807h-186l-287 611l-286 -611h-187z" />
<glyph unicode="_" horiz-adv-x="1024" d="M0 -154h1024v-102h-1024v102z" />
<glyph unicode="`" horiz-adv-x="569" d="M2 1405q0 78 72 78q35 0 84 -49l301 -304h-82l-316 199q-59 37 -59 76z" />
<glyph unicode="a" horiz-adv-x="1024" d="M92 180q0 109 84 172q53 43 193 90l254 88v115q0 166 -162 166q-88 0 -120 -29.5t-38 -115.5q-2 -37 -63 -62q-47 -20 -82 -20q-39 0 -39 47q0 115 112 172q72 37 222 119q47 28 117 28h5q276 0 277 -272v-418q0 -151 62 -151h1q31 0 58 26l26 -37q-104 -129 -215 -129 q-141 0 -155 162q-166 -162 -314 -162q-96 0 -159.5 56.5t-63.5 154.5zM446 109h2q96 0 175 108v244q-160 -53 -193 -70q-108 -56 -108 -147q0 -135 124 -135z" />
<glyph unicode="b" d="M-2 1386v35q211 72 342 144l25 -17v-729q92 70 143 94q76 37 164 37q184 0 291 -133q98 -123 98 -317q0 -233 -149.5 -382t-364.5 -149q-193 0 -295 78q-55 -37 -92 -78l-33 21q8 76 8 170v1177q-76 29 -137 49zM365 190q25 -49 75 -92q68 -55 135 -55q236 0 236 358 q0 156 -68 273q-78 137 -213 137q-77 0 -165 -57v-564z" />
<glyph unicode="c" horiz-adv-x="909" d="M78 426q0 215 151.5 369.5t366.5 154.5q268 0 268 -153q0 -45 -31.5 -77t-78.5 -32q-49 0 -104.5 86t-137.5 86q-106 0 -161.5 -79t-55.5 -210q0 -170 72 -292q88 -145 243 -146q78 0 133 33q43 22 115 92l37 -41q-84 -123 -160 -178q-96 -70 -227 -70q-203 0 -316.5 125 t-113.5 332z" />
<glyph unicode="d" d="M78 399q0 233 155 396q149 155 344 155h3q98 0 168 -30v417l-138 49v35q211 72 342 144l25 -17v-1448l119 11v-52q-119 -20 -330 -90l-16 13v124q-88 -76 -140 -102q-72 -35 -170 -35q-150 0 -256 126t-106 304zM307 502q0 -168 77 -280.5t196 -112.5q88 0 168 61v559 q-29 57 -85.5 94t-117.5 37q-125 0 -189 -119q-49 -94 -49 -239z" />
<glyph unicode="e" horiz-adv-x="909" d="M78 440q0 203 123 353q128 157 326 157h3q154 0 240 -100q82 -96 82 -244v-14l-25 -23h-553q0 -172 76 -286q86 -129 242 -129h3q144 0 241 110l32 -39q-145 -256 -393 -256q-184 0 -295 148q-102 135 -102 323zM279 631h233q80 0 94 4q33 12 33 72q0 63 -39 116.5 t-104 53.5q-88 0 -148 -76q-51 -66 -69 -170z" />
<glyph unicode="f" horiz-adv-x="681" d="M61 0v61h48q55 0 76.5 13.5t21.5 64.5v666h-146v37q53 25 146 82v143q0 201 162 358q141 139 239 140q141 0 142 -129q0 -47 -28 -80t-73 -33q-29 0 -63.5 51t-73.5 51q-76 0 -76 -139v-366h230v-115h-230v-664q0 -51 33 -67q27 -12 115 -13h39v-61q-205 8 -306 8 q-84 0 -256 -8z" />
<glyph unicode="g" horiz-adv-x="1024" d="M49 -248q0 92 64 148q43 37 178 92v4q-207 18 -207 217l178 123q-201 92 -201 287q0 147 127 241q115 86 267 86q141 0 250 -53q25 -12 92 -12h178v-103h-158q33 -76 33 -159q0 -141 -121 -236q-113 -88 -266 -88q-68 0 -133 18l-49 -41v-10q0 -62 45 -82q31 -14 110 -14 q45 0 135.5 5t135.5 5q115 0 186 -51q82 -59 82 -170q0 -215 -184 -332q-150 -94 -349 -94q-160 0 -268 53q-125 59 -125 166zM217 -211q0 -182 262 -182q117 0 215 55q113 62 113 160q0 147 -254 147q-336 0 -336 -180zM291 643q0 -96 39 -174q49 -96 137 -96 q154 0 154 227q0 100 -35 182q-45 106 -133 107q-162 0 -162 -246z" />
<glyph unicode="h" d="M45 0v61q63 0 86 9q35 12 35 55v1161q0 61 -53 82l-68 27v49q147 35 328 121l22 -19v-745q129 88 148 98q92 51 172 51q254 0 254 -264v-567q0 -57 100 -58h25v-61q-156 8 -232 8q-80 0 -244 -8v61h21q100 0 100 54v512q0 172 -155 172q-80 0 -189 -70v-618q0 -49 99 -50 h30v-61q-156 8 -233 8q-86 0 -246 -8z" />
<glyph unicode="i" horiz-adv-x="569" d="M45 0v61h14q57 0 76 9q31 12 31 53v579q0 45 -49 58q-23 8 -72 20v49q59 14 186 60q49 23 142 61l22 -18v-821q0 -49 99 -50h30v-61q-156 8 -233 8q-86 0 -246 -8zM156 1362q0 51 36.5 88t88.5 37q51 0 88 -37t37 -88t-36 -88t-89 -37q-51 0 -88 37t-37 88z" />
<glyph unicode="j" horiz-adv-x="569" d="M23 -412q94 37 120 97q23 53 23 198v819q0 45 -49 58q-23 8 -72 20v49q59 14 186 60q49 23 142 61l22 -18v-1002q0 -164 -104 -260q-78 -74 -254 -137zM156 1362q0 51 37 88t88 37t88 -37t37 -88t-36 -88t-89 -37q-51 0 -88 37t-37 88z" />
<glyph unicode="k" d="M45 0v61q63 0 86 9q35 12 35 55v1161q0 61 -53 82q-23 10 -68 27v49q147 35 328 121l22 -19v-1065q31 0 54 21l247 235q57 55 58 82q0 39 -88 39h-15v62q152 -8 230 -9q68 0 198 9v-62h-22q-96 0 -199 -76q-31 -25 -158 -147l-73 -72l338 -418q68 -84 135 -84h12v-61 q-123 8 -186 8q-51 0 -150 -8q-88 117 -176 233q-150 195 -174 195q-31 0 -31 -41v-262q0 -43 37 -55q23 -8 86 -9v-61q-164 8 -244 8q-125 0 -229 -8z" />
<glyph unicode="l" horiz-adv-x="569" d="M45 0v61q63 0 86 9q35 12 35 55v1161q0 61 -53 82q-23 10 -68 27v49q147 35 328 121l22 -19v-1421q0 -63 107 -64h22v-61q-156 8 -235 8q-92 0 -244 -8z" />
<glyph unicode="m" horiz-adv-x="1705" d="M45 0v61h14q57 0 76 9q31 12 31 53v579q0 45 -49 58q-23 8 -72 20v49q59 14 186 60q49 23 142 61l22 -18v-131q133 88 150 96q96 53 168 53q182 0 241 -151q137 86 164 100q98 51 168 51q115 0 185.5 -67.5t70.5 -196.5v-563q0 -63 92 -64h27v-59q-152 8 -229 8 q-82 0 -242 -8v61h29q94 0 94 60v508q0 170 -158 170q-78 0 -186 -62v-612q0 -63 94 -64h27v-61q-152 8 -230 8q-80 0 -244 -8v61h25q98 0 98 64v504q0 170 -157 170q-94 0 -187 -76v-598q0 -63 103 -64h24v-61q-160 8 -235 8q-90 0 -242 -8z" />
<glyph unicode="n" d="M45 0v61h14q57 0 76 9q31 12 31 53v579q0 45 -49 58q-23 8 -72 20v49q59 14 186 60q49 23 142 61l22 -18v-131q129 88 148 98q92 51 172 51q254 0 254 -264v-567q0 -57 100 -58h25v-61q-156 8 -232 8q-80 0 -244 -8v61h21q100 0 100 54v512q0 172 -155 172 q-80 0 -189 -70v-618q0 -49 99 -50h30v-61q-156 8 -233 8q-86 0 -246 -8z" />
<glyph unicode="o" d="M78 461q0 209 138 349t351 140q223 0 358.5 -131t135.5 -346q0 -209 -143.5 -356.5t-350.5 -147.5q-215 0 -352 139.5t-137 352.5zM379 184q66 -141 201 -141q231 0 231 381q0 156 -49 283q-68 170 -199 170q-235 0 -235 -418q0 -164 51 -275z" />
<glyph unicode="p" d="M25 -406h26q101 0 101 41v1092q0 41 -56 53q-20 6 -65 15v36q201 61 331 134l19 -15v-131q141 131 317 131q168 0 269 -123q94 -115 94 -284q0 -233 -148.5 -394t-349.5 -161q-106 0 -182 28v-356q0 -45 43 -57q27 -8 106 -9h39v-61q-31 0 -137 4q-84 4 -137 4 q-51 0 -135 -4q-104 -4 -135 -4v61zM381 209q106 -131 209 -131q129 0 192 112q49 90 49 230q0 150 -65 260q-80 131 -219 131q-78 0 -166 -55v-547z" />
<glyph unicode="q" d="M78 399q0 233 155 396q149 155 344 155h3q113 0 237 -55q8 4 68 51q53 41 69 41q31 0 29 -35q-6 -104 -6 -139v-1157q0 -61 98 -62h23v-61q-172 8 -256 8t-248 -8v61h41q57 0 78 9q35 12 35 55v448q-88 -76 -140 -102q-70 -35 -168 -35q-150 0 -256 126t-106 304z M307 502q0 -168 77 -280.5t196 -112.5q88 0 168 61v559q-29 57 -85.5 94t-117.5 37q-125 0 -189 -119q-49 -94 -49 -239z" />
<glyph unicode="r" horiz-adv-x="796" d="M33 0v61h20q113 0 113 54v557q0 47 -11.5 68.5t-52.5 27.5q-20 4 -65 12v49q121 23 336 121l22 -12v-141h4q35 55 93 98q72 55 143 55q131 0 131 -121q0 -57 -33 -88.5t-82 -31.5q-41 0 -76.5 38.5t-66.5 38.5q-43 0 -74 -32q-39 -37 -39 -107v-538q0 -33 39 -41 q27 -6 113 -7h31v-61q-33 0 -144 4q-90 4 -145 4q-49 0 -127 -4q-100 -4 -129 -4z" />
<glyph unicode="s" horiz-adv-x="796" d="M94 250l58 12q10 -92 59 -151q55 -68 141 -68q63 0 108.5 36t45.5 99q0 78 -107 141q-199 117 -198 117q-106 86 -107 221q0 133 92.5 213t235.5 80q109 0 242 -49q-7 -87 -7 -153q0 -36 2 -64l-57 -10q-18 203 -184 203q-55 0 -97 -33t-42 -90q0 -90 110 -156 q100 -57 203 -113q110 -81 110 -213q0 -156 -110 -235q-92 -68 -238 -68q-90 0 -241 54z" />
<glyph unicode="t" horiz-adv-x="681" d="M43 805v49q168 90 328 293l24 -12v-215h244v-115h-244v-561q0 -111 109 -111q63 0 121 37l26 -35q-127 -166 -278 -166q-207 0 -207 211v625h-123z" />
<glyph unicode="u" d="M37 842v49q201 10 348 59l21 -12q-10 -143 -11 -184v-453q0 -168 152 -168q88 0 192 86v524q0 31 -9 43.5t-40 22.5l-102 33v49q262 16 370 59l21 -12q-10 -72 -10 -184v-586q0 -74 55 -74h61v-49q-139 -25 -165 -29q-94 -20 -160 -47l-21 17v145q-193 -162 -323 -162 q-250 0 -250 240v555q0 41 -43 53z" />
<glyph unicode="v" horiz-adv-x="1024" d="M29 858v62q156 -8 235 -9q78 0 234 9v-62h-64q-41 0 -41 -27q0 -14 23 -73l172 -457h4q6 23 106 252q88 207 88 242q0 43 -28 55q-18 8 -68 8h-24v62q127 -8 190 -9q45 0 139 9v-62h-12q-59 0 -104 -100l-316 -715q-18 -41 -31 -74h-55l-332 813q-20 51 -37.5 63.5 t-62.5 12.5h-16z" />
<glyph unicode="w" horiz-adv-x="1593" d="M27 858v62q160 -8 237 -9q72 0 219 9v-62h-18q-72 0 -76 -20q-4 -18 12 -60l193 -483l174 393l-57 129q-18 41 -101 41h-22v62q176 -8 264 -9q74 0 217 9v-62h-20q-82 0 -82 -29t18 -73l180 -449l162 420q14 37 14 78q0 53 -92 53h-22v62q123 -8 182 -9q51 0 158 9v-62 h-17q-53 0 -86 -45q-16 -23 -45 -94l-307 -750h-57l-250 613l-270 -613h-58l-317 785q-27 68 -39 80q-22 24 -76 24h-4h-14z" />
<glyph unicode="x" d="M29 0v61h28q68 0 111 27q31 20 86 86l205 242l-266 364q-57 78 -138 78h-20v62q184 -8 274 -9q80 0 240 9v-62h-23q-69 0 -69 -28q0 -21 47 -82l112 -148l115 137q61 74 62 94q0 27 -88 27h-17v62q143 -8 213 -9q61 0 180 9v-62h-26q-66 0 -104 -20.5t-95 -85.5 l-192 -220l297 -409q45 -61 133 -62h16v-61q-152 8 -227 8q-102 0 -287 -8v61h27q75 0 75 17q0 12 -32 57l-160 215l-131 -160q-61 -76 -62 -104q0 -25 93 -25h20v-61q-139 8 -211 8q-59 0 -186 -8z" />
<glyph unicode="y" horiz-adv-x="1024" d="M29 858v62q160 -8 237 -9q76 0 228 9v-62h-19q-88 0 -88 -31q1 -20 21 -73l180 -467h4l162 413q26 66 26 108q0 50 -96 50h-27v62q127 -8 191 -9q53 0 147 9v-62h-34q-27 0 -50.5 -36t-68.5 -144l-418 -1010q-55 -135 -156 -135q-51 0 -83.5 34t-32.5 85q0 43 31.5 76.5 t78.5 33.5q57 0 103 -30l104 250l-309 766q-45 110 -100 110h-1h-30z" />
<glyph unicode="z" horiz-adv-x="909" d="M41 0l496 829h-152q-156 0 -192 -20q-45 -25 -72 -129h-49q22 181 22 268v19h49q16 -47 70 -47h614l13 -25l-482 -805h234q109 0 156 45q23 23 71 139h49q-31 -164 -34 -274h-793z" />
<glyph unicode="{" horiz-adv-x="681" d="M92 545q90 29 124 83t34 158v375q0 188 88 250q68 49 252 49v-24q-172 0 -172 -260v-359q0 -119 -23 -168q-33 -70 -139 -102v-4q106 -33 139 -103q23 -49 23 -168v-358q0 -260 172 -260v-25q-184 0 -252 49q-88 62 -88 250v375q0 104 -34 158.5t-124 83.5z" />
<glyph unicode="|" horiz-adv-x="454" d="M135 -31v1596h184v-1596h-184z" />
<glyph unicode="}" horiz-adv-x="681" d="M92 -346q172 0 172 260v358q0 119 23 168q33 70 139 103v4q-106 33 -139 102q-23 49 -23 168v359q0 260 -172 260v24q184 0 254 -49q86 -62 86 -250v-375q0 -104 34 -158.5t124 -82.5q-90 -29 -124 -83t-34 -159v-375q0 -188 -86 -250q-70 -49 -254 -49v25z" />
<glyph unicode="~" d="M96 506q102 160 256 160q78 0 228 -66q168 -74 208 -74q53 0 103 45q27 25 78 95l73 -131q-61 -86 -102 -121q-70 -55 -154 -56q-86 0 -208 68q-137 76 -236 76q-98 0 -172 -144z" />
<glyph unicode="&#xa1;" horiz-adv-x="681" d="M178 846q0 66 49 114t115 48t114 -48.5t48 -113.5q0 -66 -49 -115t-113 -49q-63 0 -113.5 50.5t-50.5 113.5zM188 -203q0 74 11 127q40 217 120 647h41q43 -219 125 -659q10 -57 11 -127q0 -80 -37 -133q-41 -63 -117 -64q-154 0 -154 209z" />
<glyph unicode="&#xa2;" d="M141 422q0 225 166 376.5t404 151.5l108 267h78l-109 -267q63 -2 119 -37q72 -43 72 -118q0 -49 -33 -79t-74 -30q-51 0 -88 39q-29 37 -55 72l-219 -586q88 -78 199 -78q154 0 252 117l36 -33q-139 -248 -397 -248q-117 0 -172 33l-104 -299h-78l119 324 q-223 117 -224 395zM371 555q0 -162 88 -283l213 572q-33 16 -70 16q-109 0 -174 -102q-57 -88 -57 -203z" />
<glyph unicode="&#xa3;" d="M72 51q0 78 57 127q51 45 131 55q42 70 105 523h-244l8 102h252q12 244 121 451q133 256 405 256q160 0 160 -109t-86 -108q-59 0 -86 63.5t-82 63.5q-68 0 -113 -119q-39 -104 -77 -344l-25 -154h309l-12 -102h-311q-33 -276 -230 -502q78 8 119 8q109 0 242 -95 t176 -95q74 0 74 59q0 43 -48.5 69.5t-48.5 67.5q0 33 25 59.5t57 26.5q51 0 84 -39t33 -100q0 -96 -80 -166q-90 -80 -239 -80q-96 0 -185 54q-14 8 -133 96q-68 53 -119 53q-25 -61 -75 -119q-59 -68 -113 -67q-51 0 -51 65z" />
<glyph unicode="&#xa4;" d="M41 303l117 113q-94 127 -95 299q0 168 95 299l-117 114l113 115l120 -119q127 94 297 99q172 3 297 -99l121 119l109 -115l-119 -114q100 -131 100 -299q0 -80 -29.5 -165t-70.5 -134l119 -113l-109 -113l-121 121q-117 -104 -297 -104q-188 0 -297 104l-124 -121z M248 715q0 -133 95 -228.5t228 -95.5t228.5 95.5t95.5 228.5t-95 228t-229 95q-133 0 -228 -95t-95 -228z" />
<glyph unicode="&#xa5;" d="M-63 1368v62q8 0 90 -4.5t143 -4.5q51 0 145.5 4.5t139.5 4.5v-62h-25q-100 0 -100 -47q0 -14 35 -68l288 -434l240 367q59 90 59 133q0 39 -108 49h-25v62q29 0 99.5 -4.5t109.5 -4.5q33 0 91.5 4.5t82.5 4.5v-62q-100 0 -162 -94l-305 -475h260v-103h-293v-161h293 v-103h-293v-258q0 -113 152 -113h29v-61q-53 0 -148.5 4t-128.5 4q-57 0 -151 -4t-129 -4v61h28q152 0 152 113v258h-293v103h293v161h-293v103h225l-364 528q-35 41 -94 41h-43z" />
<glyph unicode="&#xa6;" horiz-adv-x="454" d="M135 -31v578h184v-578h-184zM135 987v578h184v-578h-184z" />
<glyph unicode="&#xa7;" d="M178 -213q0 35 27.5 59.5t66.5 24.5q98 0 123 -109q6 -25 29 -49q31 -35 78 -35q137 0 137 177q0 86 -27 159q-41 109 -176 326q-129 207 -168 291q-76 166 -75 323q0 209 150.5 357.5t356.5 148.5q86 0 154 -28q90 -39 90 -115q0 -41 -32.5 -69.5t-71.5 -28.5 q-55 0 -108.5 75.5t-123.5 75.5q-55 0 -90 -49t-35 -107q0 -141 211 -466q139 -215 180 -302q86 -176 87 -337q0 -178 -103 -318q-137 -186 -418 -186q-90 0 -168 45q-94 53 -94 137zM295 969q0 -109 70 -256q39 -82 153 -269q133 -219 174 -309q49 -113 49 -225 q0 -90 -34 -160l4 -4q147 143 147 326q0 150 -121 370q-111 182 -223 367q-121 207 -121 326q0 55 19 137l-4 4q-113 -135 -113 -307z" />
<glyph unicode="&#xa8;" horiz-adv-x="569" d="M-41 1276q0 47 34 81t81 34t80.5 -34t33.5 -81t-33.5 -81t-80.5 -34t-81 34t-34 81zM381 1276q0 47 34 81t81 34t80.5 -34t33.5 -81t-33.5 -81t-80.5 -34t-81 34t-34 81z" />
<glyph unicode="&#xa9;" horiz-adv-x="1638" d="M74 713q0 315 214 531t531 216q319 0 532.5 -215t213.5 -532q0 -315 -213 -529.5t-533 -214.5q-317 0 -531 214.5t-214 529.5zM229 713q0 -244 171 -424t419 -180t422 182q168 178 168 422q0 246 -170 427t-420 181q-248 0 -419 -181t-171 -427zM395 721q0 162 107 276 q129 139 377 140q104 0 223 -39q47 -14 47 -49v-146h-49q-47 184 -223 184q-260 0 -265 -356q-4 -389 271 -389q182 0 254 190h49l-31 -155q-4 -20 -63 -45q-94 -39 -230 -39q-217 0 -338 104q-129 113 -129 324z" />
<glyph unicode="&#xaa;" horiz-adv-x="665" d="M53 979q0 72 49 111q35 29 117 55l172 55v80q10 74 -98 74q-82 0 -86 -43q-2 -6 -10 -39q-4 -18 -41 -32.5t-58 -14.5q-27 0 -26 35q0 51 178 147q70 37 119 37q178 0 178 -162v-274q0 -68 43 -68q20 0 37 16l16 -22q-68 -78 -139 -78q-94 0 -101 102 q-106 -102 -204 -102q-61 0 -103.5 33t-42.5 90zM209 1012q0 -66 72 -66q41 0 75.5 26.5t34.5 65.5v111q-92 -31 -119 -47q-63 -35 -63 -90z" />
<glyph unicode="&#xab;" d="M176 487q250 225 373 340l37 -34l-207 -306l203 -307l-37 -33q-66 57 -369 340zM553 487q250 225 373 340l37 -34l-207 -306l202 -307l-36 -33q-66 57 -369 340z" />
<glyph unicode="&#xac;" d="M53 633v184h1032v-614h-184v430h-848z" />
<glyph unicode="&#xad;" horiz-adv-x="681" d="M53 406l35 163q92 -2 277 -2q45 0 133 2h131l-35 -163q-39 0 -117 2h-119q-254 0 -305 -2z" />
<glyph unicode="&#xae;" horiz-adv-x="1638" d="M74 713q0 315 214 531t531 216q319 0 532.5 -215t213.5 -532q0 -315 -213 -529.5t-533 -214.5q-317 0 -531 214.5t-214 529.5zM229 713q0 -244 171 -424t419 -180t422 182q168 178 168 422q0 246 -170 427t-420 181q-248 0 -419 -181t-171 -427zM449 319v37q74 10 75 11 q33 12 33 57v551q0 63 -18.5 82.5t-85.5 17.5v37h381q106 0 176 -47q76 -53 75 -150q0 -168 -176 -225l123 -170q100 -137 164 -176v-25h-145q-43 0 -109 99l-160 246h-82v-248q0 -39 35 -51q37 -4 74 -9v-37h-360zM700 713h88q141 0 142 190q0 160 -146 160h-84v-350z" />
<glyph unicode="&#xaf;" horiz-adv-x="569" d="M2 1221v102h565v-102h-565z" />
<glyph unicode="&#xb0;" horiz-adv-x="819" d="M117 1151q0 123 85 208t208 85t207.5 -85t84.5 -208t-84.5 -208t-207.5 -85t-208 85t-85 208zM219 1151q0 -70 58.5 -130t132.5 -60t132 60t58 130t-58.5 130t-131.5 60q-74 0 -132.5 -60t-58.5 -130z" />
<glyph unicode="&#xb1;" d="M53 0v184h1032v-184h-1032zM53 563v185h424v284h185v-284h423v-185h-423v-284h-185v284h-424z" />
<glyph unicode="&#xb2;" horiz-adv-x="739" d="M47 578v47q158 104 268 227q145 164 146 301q0 74 -47 125t-131 51q-100 0 -177 -106l-26 28q39 84 120 138.5t177 54.5q111 0 175 -61.5t64 -161.5q0 -127 -131 -281q-35 -39 -231 -223h362q18 27 35 67h41q-25 -133 -30 -206h-615z" />
<glyph unicode="&#xb3;" horiz-adv-x="739" d="M82 678q0 2 14 12q37 12 56 8q35 -90 145 -90q84 0 138 57.5t54 133.5q0 88 -46 139t-115 49q-64 -2 -115 -16l-8 41q244 74 244 205q0 53 -39 88.5t-101 35.5q-86 0 -159 -73l-27 30q123 145 272 146q82 0 145.5 -43t63.5 -113q0 -141 -198 -225v2l4 -4q109 6 178 -43 t69 -148q0 -133 -127 -225q-119 -86 -268 -86q-139 0 -170 68q-10 23 -10 51z" />
<glyph unicode="&#xb4;" horiz-adv-x="569" d="M94 1130l301 304q49 49 84 49q72 0 72 -78q0 -39 -59 -76l-316 -199h-82z" />
<glyph unicode="&#xb5;" d="M37 842v49q201 10 348 59l21 -12q-10 -143 -11 -184v-453q0 -168 152 -168q88 0 192 86v524q0 31 -9 43.5t-40 22.5l-102 33v49q262 16 370 59l21 -12q-10 -72 -10 -184v-586q0 -74 55 -74h61v-49q-139 -25 -165 -29q-94 -20 -160 -47l-21 17v145q-193 -162 -323 -162 q-45 0 -80 6q2 -113 16.5 -217t14.5 -116q0 -109 -115 -109q-111 0 -111 107q0 20 12.5 254.5t12.5 388.5v481q0 41 -43 53z" />
<glyph unicode="&#xb6;" d="M47 987q0 442 453 443h592v-62q-106 0 -135 -30.5t-29 -174.5v-1261q0 -137 27.5 -171t136.5 -34v-62h-332v1733h-166v-1733h-344v62q111 -4 143.5 31.5t32.5 173.5v661q-162 0 -270.5 119t-108.5 305zM231 987q0 -137 45 -217q52 -92 150 -92v637q-96 -2 -150 -107 q-45 -90 -45 -221z" />
<glyph unicode="&#xb7;" horiz-adv-x="569" d="M123 582q0 68 48 115.5t116 47.5q66 0 114 -48t48 -115q0 -66 -48.5 -114t-113.5 -48q-68 0 -116 48t-48 114z" />
<glyph unicode="&#xb8;" horiz-adv-x="569" d="M70 -408l26 64q98 -25 127 -25q119 0 119 95q0 35 -29.5 53t-62.5 18q-37 0 -74 -10l-14 10l84 203h71l-51 -135q29 6 60 6q76 0 124 -36t48 -103q0 -174 -267 -174q-86 0 -161 34z" />
<glyph unicode="&#xb9;" horiz-adv-x="739" d="M98 1255q92 45 174 95l154 94h47v-774q0 -29 29 -37q18 -6 80 -6h30v-49h-465v49h29q113 0 113 41v624q-68 -35 -170 -78z" />
<glyph unicode="&#xba;" horiz-adv-x="739" d="M41 1151q0 127 91 210t235 83q154 0 242.5 -78t88.5 -207q0 -127 -94 -215t-237 -88q-145 0 -235.5 83t-90.5 212zM225 1161q0 -94 31 -164q39 -92 119 -92q139 0 139 223q0 92 -31 166q-41 100 -121 101q-137 0 -137 -234z" />
<glyph unicode="&#xbb;" d="M176 182l207 305l-203 308l37 32q66 -57 369 -340q-250 -225 -373 -340zM553 182l207 305l-203 308l37 32q66 -57 369 -340q-250 -225 -373 -340z" />
<glyph unicode="&#xbc;" horiz-adv-x="1708" d="M184 1255q92 45 174 95l154 94h47v-774q0 -29 29 -37q18 -6 80 -6h30v-49q-147 4 -223 4q-82 0 -242 -4v49h29q113 0 113 41v624q-68 -35 -170 -78zM393 -61l901 1536h111l-901 -1536h-111zM891 246v71l444 549h84v-506h105v-114h-105v-246h-155v246h-373zM993 360h271 v328h-4z" />
<glyph unicode="&#xbd;" horiz-adv-x="1708" d="M125 1255q92 45 174 95l154 94h47v-774q0 -29 28 -37q18 -6 80 -6h31v-49q-147 4 -223 4q-82 0 -242 -4v49h29q113 0 112 41v624q-68 -35 -170 -78zM336 -61l901 1536h111l-902 -1536h-110zM938 0v47q158 104 268 227q145 164 146 301q0 74 -47.5 125.5t-130.5 51.5 q-101 -1 -177 -107l-26 29q39 84 119.5 138t177.5 54q111 0 175 -61.5t64 -161.5q0 -129 -131 -278q-61 -68 -229 -213h362q12 8 33 55h41q-25 -133 -31 -207h-614z" />
<glyph unicode="&#xbe;" horiz-adv-x="1708" d="M184 678q0 2 15 12q37 12 55 8q35 -90 145 -90q84 0 138.5 57.5t54.5 133.5q0 88 -46 139t-116 49q-64 -2 -115 -16l-8 41q244 74 244 205q0 53 -39 88.5t-100 35.5q-86 0 -160 -73l-27 30q123 145 273 146q82 0 145.5 -43t63.5 -113q0 -141 -199 -225v2l4 -4 q109 6 178.5 -43t69.5 -148q0 -133 -127 -225q-119 -86 -268 -86q-139 0 -170 68q-10 23 -11 51zM403 -61l902 1536h110l-901 -1536h-111zM891 246v71l444 549h84v-506h105v-114h-105v-246h-155v246h-373zM993 360h271v328h-4z" />
<glyph unicode="&#xbf;" horiz-adv-x="909" d="M135 78q0 190 125 278q57 41 170 62q74 14 80 47q10 55 10 106h53l9 -368q0 -25 -25 -25q-121 0 -207 -41q-113 -53 -112 -162q0 -123 73 -184q49 -41 156 -41q12 0 51 6t62 6q102 0 102 -108q0 -53 -46 -87t-101 -34q-158 -2 -289 199q-111 170 -111 346zM358 846 q0 66 49.5 114t114.5 48q66 0 114 -48.5t48 -113.5q0 -66 -49 -115t-113 -49q-63 0 -113.5 50.5t-50.5 113.5z" />
<glyph unicode="&#xc0;" horiz-adv-x="1478" d="M25 0v61h12q131 0 178 134l328 940q33 90 75 254q102 35 187 88q12 4 16 4q10 0 15 -6q6 -18 18 -52l377 -1071q25 -74 76 -209q35 -82 135 -82h12v-61q-184 8 -283 8q-98 0 -307 -8v61h23q127 0 127 60q0 27 -41 147l-80 238h-465l-66 -213q-45 -145 -45 -160 q0 -72 154 -72h23v-61q-164 8 -248 8q-74 0 -221 -8zM457 1813q0 78 72 78q35 0 84 -49l301 -304h-82l-316 199q-59 37 -59 76zM467 621h383l-188 579h-5z" />
<glyph unicode="&#xc1;" horiz-adv-x="1478" d="M25 0v61h12q131 0 178 134l328 940q33 90 75 254q102 35 187 88q12 4 16 4q10 0 15 -6q6 -18 18 -52l377 -1071q25 -74 76 -209q35 -82 135 -82h12v-61q-184 8 -283 8q-98 0 -307 -8v61h23q127 0 127 60q0 27 -41 147l-80 238h-465l-66 -213q-45 -145 -45 -160 q0 -72 154 -72h23v-61q-164 8 -248 8q-74 0 -221 -8zM467 621h383l-188 579h-5zM549 1538l301 304q49 49 84 49q72 0 72 -78q0 -39 -59 -76l-316 -199h-82z" />
<glyph unicode="&#xc2;" horiz-adv-x="1478" d="M25 0v61h12q131 0 178 134l328 940q33 90 75 254q102 35 187 88q12 4 16 4q10 0 15 -6q6 -18 18 -52l377 -1071q25 -74 76 -209q35 -82 135 -82h12v-61q-184 8 -283 8q-98 0 -307 -8v61h23q127 0 127 60q0 27 -41 147l-80 238h-465l-66 -213q-45 -145 -45 -160 q0 -72 154 -72h23v-61q-164 8 -248 8q-74 0 -221 -8zM422 1538l254 343h127l256 -343h-72l-247 211l-250 -211h-68zM467 621h383l-188 579h-5z" />
<glyph unicode="&#xc3;" horiz-adv-x="1478" d="M25 0v61h12q131 0 178 134l328 940q33 90 75 254q102 35 187 88q12 4 16 4q10 0 15 -6q6 -18 18 -52l377 -1071q25 -74 76 -209q35 -82 135 -82h12v-61q-184 8 -283 8q-98 0 -307 -8v61h23q127 0 127 60q0 27 -41 147l-80 238h-465l-66 -213q-45 -145 -45 -160 q0 -72 154 -72h23v-61q-164 8 -248 8q-74 0 -221 -8zM367 1588q45 221 196 221q53 0 160 -45t158 -45q82 0 96 92h62q-39 -219 -195 -219q-59 0 -169 48t-148 48q-70 0 -101 -100h-59zM467 621h383l-188 579h-5z" />
<glyph unicode="&#xc4;" horiz-adv-x="1478" d="M25 0v61h12q131 0 178 134l328 940q33 90 75 254q102 35 187 88q12 4 16 4q10 0 15 -6q6 -18 18 -52l377 -1071q25 -74 76 -209q35 -82 135 -82h12v-61q-184 8 -283 8q-98 0 -307 -8v61h23q127 0 127 60q0 27 -41 147l-80 238h-465l-66 -213q-45 -145 -45 -160 q0 -72 154 -72h23v-61q-164 8 -248 8q-74 0 -221 -8zM414 1684q0 47 34 81t81 34t80.5 -34t33.5 -81t-33.5 -81t-80.5 -34t-81 34t-34 81zM467 621h383l-188 579h-5zM836 1684q0 47 34 81t81 34t80.5 -34t33.5 -81t-33.5 -81t-80.5 -34t-81 34t-34 81z" />
<glyph unicode="&#xc5;" horiz-adv-x="1478" d="M25 0v61h12q131 0 178 134l328 940q33 90 75 254q102 35 187 88q12 4 16 4q10 0 15 -6q6 -18 18 -52l377 -1071q25 -74 76 -209q35 -82 135 -82h12v-61q-184 8 -283 8q-98 0 -307 -8v61h23q127 0 127 60q0 27 -41 147l-80 238h-465l-66 -213q-45 -145 -45 -160 q0 -72 154 -72h23v-61q-164 8 -248 8q-74 0 -221 -8zM467 621h383l-188 579h-5zM527 1732q0 84 58 141.5t140 57.5q84 0 141.5 -57.5t57.5 -141.5q0 -82 -57.5 -140t-141.5 -58q-82 0 -140 58t-58 140zM586 1732q0 -55 43 -97t96 -42t96 43t43 96t-42 96.5t-97 43.5t-97 -42 t-42 -98z" />
<glyph unicode="&#xc6;" horiz-adv-x="2048" d="M14 0v61q74 0 121 41q35 29 80 107l604 1022q35 59 35 94q0 43 -137 43h-29v62q389 -8 582 -9q197 0 581 9q-6 -152 4 -314l-61 -16q-10 121 -47 172q-47 68 -160 67h-344v-536h260q86 0 123 49q29 39 39 131h61q-6 -119 -6 -240q0 -117 6 -233l-61 -12q-12 113 -31 147 q-33 55 -129 55h-262v-464q0 -90 33 -115q25 -18 113 -19h258q131 0 190 56q51 47 88 182l57 -14q-47 -190 -69 -326q-94 0 -281.5 4t-281.5 4t-282.5 -4t-283.5 -4v61h29q94 0 131 39t37 138v462h-358l-291 -505q-18 -33 -19 -80q0 -53 148 -54h20v-61q-43 0 -131 4t-133 4 q-33 0 -100.5 -4t-102.5 -4zM682 803h299v524h-4z" />
<glyph unicode="&#xc7;" horiz-adv-x="1478" d="M84 735q0 332 238 535q223 190 555 190q137 0 272 -41q176 -53 237 -61q-3 -184 17 -342l-62 -8q-51 174 -135 256q-113 106 -323 106q-244 0 -381 -176q-131 -168 -131 -446q0 -283 135 -474q154 -215 426 -215q160 0 268.5 92.5t149.5 249.5l57 -8q-33 -137 -51 -332 q-213 -92 -469 -92q-360 0 -574 191q-229 203 -229 575zM637 -408l26 64q98 -25 127 -25q119 0 119 95q0 35 -29.5 53t-62.5 18q-37 0 -74 -10l-14 10l84 203h71l-51 -135q29 6 60 6q76 0 124 -36t48 -103q0 -174 -267 -174q-86 0 -161 34z" />
<glyph unicode="&#xc8;" horiz-adv-x="1251" d="M39 0v61h29q152 0 151 117v1073q0 117 -151 117h-29v62q57 0 237.5 -4.5t272.5 -4.5q90 0 274.5 4.5t249.5 4.5q-6 -152 4 -314l-61 -16q-10 121 -47 170q-57 70 -203 69h-285v-536h244q86 0 123 49q29 39 39 131h61q-6 -119 -6 -240q0 -117 6 -233l-61 -12 q-12 113 -31 147q-33 55 -129 55h-246v-477q0 -90 76 -117q47 -16 174 -16q203 0 277 37q96 49 139 213l57 -14q-47 -190 -69 -326q-59 0 -256 4t-295 4q-100 0 -298 -4t-247 -4zM344 1813q0 78 72 78q35 0 84 -49l301 -304h-82l-316 199q-59 37 -59 76z" />
<glyph unicode="&#xc9;" horiz-adv-x="1251" d="M39 0v61h29q152 0 151 117v1073q0 117 -151 117h-29v62q57 0 237.5 -4.5t272.5 -4.5q90 0 274.5 4.5t249.5 4.5q-6 -152 4 -314l-61 -16q-10 121 -47 170q-57 70 -203 69h-285v-536h244q86 0 123 49q29 39 39 131h61q-6 -119 -6 -240q0 -117 6 -233l-61 -12 q-12 113 -31 147q-33 55 -129 55h-246v-477q0 -90 76 -117q47 -16 174 -16q203 0 277 37q96 49 139 213l57 -14q-47 -190 -69 -326q-59 0 -256 4t-295 4q-100 0 -298 -4t-247 -4zM436 1538l301 304q49 49 84 49q72 0 72 -78q0 -39 -59 -76l-316 -199h-82z" />
<glyph unicode="&#xca;" horiz-adv-x="1251" d="M39 0v61h29q152 0 151 117v1073q0 117 -151 117h-29v62q57 0 237.5 -4.5t272.5 -4.5q90 0 274.5 4.5t249.5 4.5q-6 -152 4 -314l-61 -16q-10 121 -47 170q-57 70 -203 69h-285v-536h244q86 0 123 49q29 39 39 131h61q-6 -119 -6 -240q0 -117 6 -233l-61 -12 q-12 113 -31 147q-33 55 -129 55h-246v-477q0 -90 76 -117q47 -16 174 -16q203 0 277 37q96 49 139 213l57 -14q-47 -190 -69 -326q-59 0 -256 4t-295 4q-100 0 -298 -4t-247 -4zM309 1538l254 343h127l256 -343h-72l-247 211l-250 -211h-68z" />
<glyph unicode="&#xcb;" horiz-adv-x="1251" d="M39 0v61h29q152 0 151 117v1073q0 117 -151 117h-29v62q57 0 237.5 -4.5t272.5 -4.5q90 0 274.5 4.5t249.5 4.5q-6 -152 4 -314l-61 -16q-10 121 -47 170q-57 70 -203 69h-285v-536h244q86 0 123 49q29 39 39 131h61q-6 -119 -6 -240q0 -117 6 -233l-61 -12 q-12 113 -31 147q-33 55 -129 55h-246v-477q0 -90 76 -117q47 -16 174 -16q203 0 277 37q96 49 139 213l57 -14q-47 -190 -69 -326q-59 0 -256 4t-295 4q-100 0 -298 -4t-247 -4zM301 1684q0 47 34 81t81 34t80.5 -34t33.5 -81t-33.5 -81t-80.5 -34t-81 34t-34 81zM723 1684 q0 47 34 81t81 34t80.5 -34t33.5 -81t-33.5 -81t-80.5 -34t-81 34t-34 81z" />
<glyph unicode="&#xcc;" horiz-adv-x="681" d="M29 0v61h28q152 0 152 117v1073q0 117 -152 117h-28v62q37 0 143.5 -4.5t159.5 -4.5q51 0 162.5 4.5t158.5 4.5v-62h-28q-152 0 -152 -117v-1073q0 -117 152 -117h28v-61q-49 0 -160.5 4t-162.5 4q-53 0 -158.5 -4t-142.5 -4zM59 1813q0 78 72 78q35 0 84 -49l301 -304 h-82l-316 199q-59 37 -59 76z" />
<glyph unicode="&#xcd;" horiz-adv-x="681" d="M29 0v61h28q152 0 152 117v1073q0 117 -152 117h-28v62q37 0 143.5 -4.5t159.5 -4.5q51 0 162.5 4.5t158.5 4.5v-62h-28q-152 0 -152 -117v-1073q0 -117 152 -117h28v-61q-49 0 -160.5 4t-162.5 4q-53 0 -158.5 -4t-142.5 -4zM151 1538l301 304q49 49 84 49q72 0 72 -78 q0 -39 -59 -76l-316 -199h-82z" />
<glyph unicode="&#xce;" horiz-adv-x="681" d="M24 1538l254 343h127l256 -343h-72l-247 211l-250 -211h-68zM29 0v61h28q152 0 152 117v1073q0 117 -152 117h-28v62q37 0 143.5 -4.5t159.5 -4.5q51 0 162.5 4.5t158.5 4.5v-62h-28q-152 0 -152 -117v-1073q0 -117 152 -117h28v-61q-49 0 -160.5 4t-162.5 4 q-53 0 -158.5 -4t-142.5 -4z" />
<glyph unicode="&#xcf;" horiz-adv-x="681" d="M16 1684q0 47 34 81t81 34t80.5 -34t33.5 -81t-33.5 -81t-80.5 -34t-81 34t-34 81zM29 0v61h28q152 0 152 117v1073q0 117 -152 117h-28v62q37 0 143.5 -4.5t159.5 -4.5q51 0 162.5 4.5t158.5 4.5v-62h-28q-152 0 -152 -117v-1073q0 -117 152 -117h28v-61q-49 0 -160.5 4 t-162.5 4q-53 0 -158.5 -4t-142.5 -4zM438 1684q0 47 34 81t81 34t80.5 -34t33.5 -81t-33.5 -81t-80.5 -34t-81 34t-34 81z" />
<glyph unicode="&#xd0;" horiz-adv-x="1593" d="M39 0v61h29q82 0 110 11q41 14 41 65v604h-180v115h180v434q0 51 -47 68q-31 10 -113 10h-20v62q295 -8 328 -9q72 0 181 4.5t148 4.5q375 0 594 -194t219 -517q0 -309 -224 -523t-535 -196q-145 8 -373 8q-207 0 -338 -8zM481 236q0 -106 60 -140q41 -23 153 -22 q248 0 396 184q133 170 133 422q0 676 -602 676q-27 0 -140 -10v-490h318v-115h-318v-505z" />
<glyph unicode="&#xd1;" horiz-adv-x="1705" d="M29 0v61h28q184 0 185 261v862q0 82 -56.5 133t-130.5 51h-26v62q39 0 117.5 -4.5t117.5 -4.5q31 0 91 4.5t91 4.5l912 -1027l4 5v768q0 193 -178 192h-45v62q49 0 144 -4.5t142 -4.5q43 0 127 4.5t125 4.5v-62h-30q-84 0 -123 -39q-59 -57 -60 -221v-932q0 -131 13 -207 h-78l-1055 1176v-844q0 -137 39 -188.5t154 -51.5h34v-61q-43 0 -131 4t-133 4t-138 -4t-140 -4zM518 1588q45 221 196 221q53 0 160 -45t158 -45q82 0 96 92h62q-39 -219 -195 -219q-59 0 -169 48t-148 48q-70 0 -101 -100h-59z" />
<glyph unicode="&#xd2;" horiz-adv-x="1708" d="M84 705q0 319 218 537t538 218q336 0 555 -190q229 -197 229 -516q0 -348 -221 -566.5t-553 -218.5q-330 0 -545 203q-221 207 -221 533zM371 776q0 -295 125 -495q139 -221 374 -222q467 0 467 650q0 252 -123 442q-141 219 -378 219q-246 0 -367 -194 q-98 -156 -98 -400zM571 1813q0 78 72 78q35 0 84 -49l301 -304h-82l-316 199q-59 37 -59 76z" />
<glyph unicode="&#xd3;" horiz-adv-x="1708" d="M84 705q0 319 218 537t538 218q336 0 555 -190q229 -197 229 -516q0 -348 -221 -566.5t-553 -218.5q-330 0 -545 203q-221 207 -221 533zM371 776q0 -295 125 -495q139 -221 374 -222q467 0 467 650q0 252 -123 442q-141 219 -378 219q-246 0 -367 -194 q-98 -156 -98 -400zM663 1538l301 304q49 49 84 49q72 0 72 -78q0 -39 -59 -76l-316 -199h-82z" />
<glyph unicode="&#xd4;" horiz-adv-x="1708" d="M84 705q0 319 218 537t538 218q336 0 555 -190q229 -197 229 -516q0 -348 -221 -566.5t-553 -218.5q-330 0 -545 203q-221 207 -221 533zM371 776q0 -295 125 -495q139 -221 374 -222q467 0 467 650q0 252 -123 442q-141 219 -378 219q-246 0 -367 -194 q-98 -156 -98 -400zM536 1538l254 343h127l256 -343h-72l-247 211l-250 -211h-68z" />
<glyph unicode="&#xd5;" horiz-adv-x="1708" d="M84 705q0 319 218 537t538 218q336 0 555 -190q229 -197 229 -516q0 -348 -221 -566.5t-553 -218.5q-330 0 -545 203q-221 207 -221 533zM371 776q0 -295 125 -495q139 -221 374 -222q467 0 467 650q0 252 -123 442q-141 219 -378 219q-246 0 -367 -194 q-98 -156 -98 -400zM518 1588q45 221 196 221q53 0 160 -45t158 -45q82 0 96 92h62q-39 -219 -195 -219q-59 0 -169 48t-148 48q-70 0 -101 -100h-59z" />
<glyph unicode="&#xd6;" horiz-adv-x="1708" d="M84 705q0 319 218 537t538 218q336 0 555 -190q229 -197 229 -516q0 -348 -221 -566.5t-553 -218.5q-330 0 -545 203q-221 207 -221 533zM371 776q0 -295 125 -495q139 -221 374 -222q467 0 467 650q0 252 -123 442q-141 219 -378 219q-246 0 -367 -194 q-98 -156 -98 -400zM528 1684q0 47 34 81t81 34t80.5 -34t33.5 -81t-33.5 -81t-80.5 -34t-81 34t-34 81zM950 1684q0 47 34 81t81 34t80.5 -34t33.5 -81t-33.5 -81t-80.5 -34t-81 34t-34 81z" />
<glyph unicode="&#xd7;" d="M117 195l321 321l-321 324l129 129l323 -322l322 322l131 -131l-322 -322l322 -323l-129 -130l-324 322l-321 -322z" />
<glyph unicode="&#xd8;" horiz-adv-x="1708" d="M53 -16l221 219q-190 203 -190 502q0 319 218 537t538 218q322 0 536 -174l213 211l64 -61l-211 -209q182 -188 182 -473q0 -348 -221 -566.5t-553 -218.5q-299 0 -510 172l-223 -219zM371 776q0 -227 78 -401l774 762q-143 233 -387 233q-246 0 -367 -194 q-98 -156 -98 -400zM492 291q137 -231 378 -232q467 0 467 650q1 186 -71 344z" />
<glyph unicode="&#xd9;" horiz-adv-x="1593" d="M37 1368v62q39 0 147.5 -4.5t177.5 -4.5q68 0 170.5 4.5t137.5 4.5v-62h-25q-82 0 -113 -18q-51 -33 -51 -131v-707q0 -440 389 -440t390 448v699q0 98 -48 131q-29 18 -100 18h-41v62q41 0 124 -4.5t124 -4.5t120 4.5t117 4.5v-62h-43q-59 0 -86 -18q-45 -35 -45 -131 v-654q0 -596 -551 -596q-303 0 -452 117q-160 125 -160 393v740q0 98 -47 131q-31 18 -111 18h-24zM551 1813q0 78 72 78q35 0 84 -49l301 -304h-82l-316 199q-59 37 -59 76z" />
<glyph unicode="&#xda;" horiz-adv-x="1593" d="M37 1368v62q39 0 147.5 -4.5t177.5 -4.5q68 0 170.5 4.5t137.5 4.5v-62h-25q-82 0 -113 -18q-51 -33 -51 -131v-707q0 -440 389 -440t390 448v699q0 98 -48 131q-29 18 -100 18h-41v62q41 0 124 -4.5t124 -4.5t120 4.5t117 4.5v-62h-43q-59 0 -86 -18q-45 -35 -45 -131 v-654q0 -596 -551 -596q-303 0 -452 117q-160 125 -160 393v740q0 98 -47 131q-31 18 -111 18h-24zM643 1538l301 304q49 49 84 49q72 0 72 -78q0 -39 -59 -76l-316 -199h-82z" />
<glyph unicode="&#xdb;" horiz-adv-x="1593" d="M37 1368v62q39 0 147.5 -4.5t177.5 -4.5q68 0 170.5 4.5t137.5 4.5v-62h-25q-82 0 -113 -18q-51 -33 -51 -131v-707q0 -440 389 -440t390 448v699q0 98 -48 131q-29 18 -100 18h-41v62q41 0 124 -4.5t124 -4.5t120 4.5t117 4.5v-62h-43q-59 0 -86 -18q-45 -35 -45 -131 v-654q0 -596 -551 -596q-303 0 -452 117q-160 125 -160 393v740q0 98 -47 131q-31 18 -111 18h-24zM516 1538l254 343h127l256 -343h-72l-247 211l-250 -211h-68z" />
<glyph unicode="&#xdc;" horiz-adv-x="1593" d="M37 1368v62q39 0 147.5 -4.5t177.5 -4.5q68 0 170.5 4.5t137.5 4.5v-62h-25q-82 0 -113 -18q-51 -33 -51 -131v-707q0 -440 389 -440t390 448v699q0 98 -48 131q-29 18 -100 18h-41v62q41 0 124 -4.5t124 -4.5t120 4.5t117 4.5v-62h-43q-59 0 -86 -18q-45 -35 -45 -131 v-654q0 -596 -551 -596q-303 0 -452 117q-160 125 -160 393v740q0 98 -47 131q-31 18 -111 18h-24zM508 1684q0 47 34 81t81 34t80.5 -34t33.5 -81t-33.5 -81t-80.5 -34t-81 34t-34 81zM930 1684q0 47 34 81t81 34t80.5 -34t33.5 -81t-33.5 -81t-80.5 -34t-81 34t-34 81z " />
<glyph unicode="&#xdd;" horiz-adv-x="1478" d="M25 1368v62q55 0 160.5 -4.5t160.5 -4.5t155.5 4.5t147.5 4.5v-62h-26q-106 0 -107 -47q0 -16 37 -68l309 -434l254 367q63 92 64 133q0 49 -117 49h-37v62q39 0 117 -4.5t117 -4.5q33 0 98 4.5t96 4.5v-62q-92 0 -160 -94l-381 -539v-489q0 -121 45 -158q31 -27 125 -27 h39v-61q-63 0 -178 4t-156 4q-49 0 -165.5 -4t-180.5 -4v61h39q94 0 132 35t38 133v439l-409 561q-57 78 -86 102q-45 37 -111 37h-20zM586 1538l301 304q49 49 84 49q72 0 72 -78q0 -39 -59 -76l-316 -199h-82z" />
<glyph unicode="&#xde;" d="M47 0v61h33q66 0 90 11q39 16 39 69v1135q0 92 -137 92h-25v62q55 0 166 -4.5t168 -4.5q53 0 156.5 4.5t154.5 4.5v-62h-59q-162 0 -162 -84v-59h125q252 0 377 -84q141 -94 141 -307q0 -418 -547 -418h-96v-264q0 -90 195 -91h32v-61q-51 0 -154.5 4t-156.5 4 q-55 0 -168 -4t-172 -4zM471 477h66q145 0 224 97.5t79 259.5q0 147 -78 232t-232 85h-59v-674z" />
<glyph unicode="&#xdf;" d="M45 0v61h27q94 0 94 50v694h-121v49q43 20 121 70v75q0 217 176 387q184 178 428 179q135 0 224 -65.5t89 -190.5q0 -123 -98 -222q-4 -2 -184 -143q-98 -78 -99 -147q0 -63 97 -133q158 -111 180 -134q96 -96 96 -229q0 -137 -104.5 -234.5t-241.5 -97.5q-70 0 -129 34 t-59 87q-2 74 73 74q43 0 86 -60.5t97 -60.5q47 0 78.5 37t31.5 90q0 92 -94 172q-86 68 -172 135q-94 86 -94 197q0 121 92 217q84 74 168 149q92 90 92 201q0 96 -68.5 165t-162.5 69q-143 0 -213 -119q-60 -98 -60 -260v-987q0 -47 60 -48h24v-61q-135 8 -203 8 q-84 0 -231 -8z" />
<glyph unicode="&#xe0;" horiz-adv-x="1024" d="M92 180q0 109 84 172q53 43 193 90l254 88v115q0 166 -162 166q-88 0 -120 -29.5t-38 -115.5q-2 -37 -63 -62q-47 -20 -82 -20q-39 0 -39 47q0 115 112 172q72 37 222 119q49 29 122 28q276 0 277 -272v-418q0 -152 63 -151q31 0 58 26l26 -37q-104 -129 -215 -129 q-141 0 -155 162q-166 -162 -314 -162q-96 0 -159.5 56.5t-63.5 154.5zM229 1405q0 78 72 78q35 0 84 -49l301 -304h-82l-316 199q-59 37 -59 76zM322 242q0 -133 124 -133q97 -1 177 108v244q-160 -53 -193 -70q-109 -57 -108 -149z" />
<glyph unicode="&#xe1;" horiz-adv-x="1024" d="M92 180q0 109 84 172q53 43 193 90l254 88v115q0 166 -162 166q-88 0 -120 -29.5t-38 -115.5q-2 -37 -63 -62q-47 -20 -82 -20q-39 0 -39 47q0 115 112 172q72 37 222 119q49 29 122 28q276 0 277 -272v-418q0 -152 63 -151q31 0 58 26l26 -37q-104 -129 -215 -129 q-141 0 -155 162q-166 -162 -314 -162q-96 0 -159.5 56.5t-63.5 154.5zM321 1130l301 304q49 49 84 49q72 0 72 -78q0 -39 -59 -76l-316 -199h-82zM322 242q0 -133 124 -133q97 -1 177 108v244q-160 -53 -193 -70q-109 -57 -108 -149z" />
<glyph unicode="&#xe2;" horiz-adv-x="1024" d="M92 180q0 109 84 172q53 43 193 90l254 88v115q0 166 -162 166q-88 0 -120 -29.5t-38 -115.5q-2 -37 -63 -62q-47 -20 -82 -20q-39 0 -39 47q0 115 112 172q72 37 222 119q49 29 122 28q276 0 277 -272v-418q0 -152 63 -151q31 0 58 26l26 -37q-104 -129 -215 -129 q-141 0 -155 162q-166 -162 -314 -162q-96 0 -159.5 56.5t-63.5 154.5zM194 1130l254 343h127l256 -343h-72l-247 211l-250 -211h-68zM322 242q0 -133 124 -133q97 -1 177 108v244q-160 -53 -193 -70q-109 -57 -108 -149z" />
<glyph unicode="&#xe3;" horiz-adv-x="1024" d="M92 180q0 109 84 172q53 43 193 90l254 88v115q0 166 -162 166q-88 0 -120 -29.5t-38 -115.5q-2 -37 -63 -62q-47 -20 -82 -20q-39 0 -39 47q0 115 112 172q72 37 222 119q49 29 122 28q276 0 277 -272v-418q0 -152 63 -151q31 0 58 26l26 -37q-104 -129 -215 -129 q-141 0 -155 162q-166 -162 -314 -162q-96 0 -159.5 56.5t-63.5 154.5zM176 1180q45 221 196 221q53 0 160 -45t158 -45q82 0 96 92h62q-39 -219 -195 -219q-59 0 -169 48t-148 48q-70 0 -101 -100h-59zM322 242q0 -133 124 -133q97 -1 177 108v244q-160 -53 -193 -70 q-109 -57 -108 -149z" />
<glyph unicode="&#xe4;" horiz-adv-x="1024" d="M92 180q0 109 84 172q53 43 193 90l254 88v115q0 166 -162 166q-88 0 -120 -29.5t-38 -115.5q-2 -37 -63 -62q-47 -20 -82 -20q-39 0 -39 47q0 115 112 172q72 37 222 119q49 29 122 28q276 0 277 -272v-418q0 -152 63 -151q31 0 58 26l26 -37q-104 -129 -215 -129 q-141 0 -155 162q-166 -162 -314 -162q-96 0 -159.5 56.5t-63.5 154.5zM186 1276q0 47 34 81t81 34t80.5 -34t33.5 -81t-33.5 -81t-80.5 -34t-81 34t-34 81zM322 242q0 -133 124 -133q97 -1 177 108v244q-160 -53 -193 -70q-109 -57 -108 -149zM608 1276q0 47 34 81t81 34 t80.5 -34t33.5 -81t-33.5 -81t-80.5 -34t-81 34t-34 81z" />
<glyph unicode="&#xe5;" horiz-adv-x="1024" d="M92 180q0 109 84 172q53 43 193 90l254 88v115q0 166 -162 166q-88 0 -120 -29.5t-38 -115.5q-2 -37 -63 -62q-47 -20 -82 -20q-39 0 -39 47q0 115 112 172q72 37 222 119q49 29 122 28q276 0 277 -272v-418q0 -152 63 -151q31 0 58 26l26 -37q-104 -129 -215 -129 q-141 0 -155 162q-166 -162 -314 -162q-96 0 -159.5 56.5t-63.5 154.5zM322 242q0 -133 124 -133q97 -1 177 108v244q-160 -53 -193 -70q-109 -57 -108 -149zM336 1296q0 84 58 141.5t140 57.5q84 0 141.5 -57.5t57.5 -141.5q0 -82 -57.5 -140t-141.5 -58q-82 0 -140 58 t-58 140zM395 1296q0 -55 43 -97t96 -42t96 43t43 96t-42 96.5t-97 43.5t-97 -42t-42 -98z" />
<glyph unicode="&#xe6;" horiz-adv-x="1478" d="M92 182q0 84 43 119t223 94l271 90v148q0 178 -148 178q-84 0 -119 -27q-39 -33 -38 -112q0 -39 -66 -70q-53 -27 -86 -27t-33 62q0 102 60 133q129 66 260 145q57 35 135 35q174 0 231 -125q129 125 287 125q125 0 207 -53q94 -61 94 -182q0 -39 -33 -49l-534 -174 q6 -188 63 -269q61 -90 209 -90q166 0 275 139l34 -32q-190 -270 -413 -271q-199 0 -318 178q-217 -178 -374 -178q-96 0 -163 59.5t-67 153.5zM322 223q0 -51 34.5 -89t94.5 -38q55 0 116.5 46t61.5 87v199q-195 -68 -251 -105.5t-56 -99.5zM846 557l260 88q78 27 78 90 q0 53 -41 89t-96 36q-203 0 -201 -303z" />
<glyph unicode="&#xe7;" horiz-adv-x="909" d="M78 426q0 215 151.5 369.5t366.5 154.5q268 0 268 -153q0 -45 -31.5 -77t-78.5 -32q-49 0 -104.5 86t-137.5 86q-106 0 -161.5 -79t-55.5 -210q0 -170 72 -292q88 -145 243 -146q78 0 133 33q43 22 115 92l37 -41q-84 -123 -160 -178q-96 -70 -227 -70q-203 0 -316.5 125 t-113.5 332zM314 -408l26 64q98 -25 127 -25q119 0 119 95q0 35 -29.5 53t-62.5 18q-37 0 -74 -10l-14 10l84 203h71l-51 -135q29 6 60 6q76 0 124 -36t48 -103q0 -174 -267 -174q-86 0 -161 34z" />
<glyph unicode="&#xe8;" horiz-adv-x="909" d="M78 440q0 203 123 353q129 158 329 157q154 0 240 -100t82 -258l-25 -23h-553q0 -172 76 -286q86 -129 242 -129q146 -1 244 110l32 -39q-145 -256 -393 -256q-184 0 -295 148q-102 135 -102 323zM209 1405q0 78 72 78q35 0 84 -49l301 -304h-82l-316 199q-59 37 -59 76z M279 631h233q80 0 94 4q33 12 33 72q0 63 -39 116.5t-104 53.5q-88 0 -148 -76q-51 -66 -69 -170z" />
<glyph unicode="&#xe9;" horiz-adv-x="909" d="M78 440q0 203 123 353q129 158 329 157q154 0 240 -100t82 -258l-25 -23h-553q0 -172 76 -286q86 -129 242 -129q146 -1 244 110l32 -39q-145 -256 -393 -256q-184 0 -295 148q-102 135 -102 323zM279 631h233q80 0 94 4q33 12 33 72q0 63 -39 116.5t-104 53.5 q-88 0 -148 -76q-51 -66 -69 -170zM301 1130l301 304q49 49 84 49q72 0 72 -78q0 -39 -59 -76l-316 -199h-82z" />
<glyph unicode="&#xea;" horiz-adv-x="909" d="M78 440q0 203 123 353q129 158 329 157q154 0 240 -100t82 -258l-25 -23h-553q0 -172 76 -286q86 -129 242 -129q146 -1 244 110l32 -39q-145 -256 -393 -256q-184 0 -295 148q-102 135 -102 323zM174 1130l254 343h127l256 -343h-72l-247 211l-250 -211h-68zM279 631 h233q80 0 94 4q33 12 33 72q0 63 -39 116.5t-104 53.5q-88 0 -148 -76q-51 -66 -69 -170z" />
<glyph unicode="&#xeb;" horiz-adv-x="909" d="M78 440q0 203 123 353q129 158 329 157q154 0 240 -100t82 -258l-25 -23h-553q0 -172 76 -286q86 -129 242 -129q146 -1 244 110l32 -39q-145 -256 -393 -256q-184 0 -295 148q-102 135 -102 323zM129 1276q0 47 34 81t81 34t80.5 -34t33.5 -81t-33.5 -81t-80.5 -34 t-81 34t-34 81zM279 631h233q80 0 94 4q33 12 33 72q0 63 -39 116.5t-104 53.5q-88 0 -148 -76q-51 -66 -69 -170zM551 1276q0 47 34 81t81 34t80.5 -34t33.5 -81t-33.5 -81t-80.5 -34t-81 34t-34 81z" />
<glyph unicode="&#xec;" horiz-adv-x="569" d="M2 1405q0 78 72 78q35 0 84 -49l301 -304h-82l-316 199q-59 37 -59 76zM45 0v61h14q57 0 76 9q31 12 31 53v579q0 45 -49 58q-23 8 -72 20v49q59 14 186 60q49 23 142 61l22 -18v-821q0 -49 99 -50h30v-61q-156 8 -233 8q-86 0 -246 -8z" />
<glyph unicode="&#xed;" horiz-adv-x="569" d="M45 0v61h14q57 0 76 9q31 12 31 53v579q0 45 -49 58q-23 8 -72 20v49q59 14 186 60q49 23 142 61l22 -18v-821q0 -49 99 -50h30v-61q-156 8 -233 8q-86 0 -246 -8zM94 1130l301 304q49 49 84 49q72 0 72 -78q0 -39 -59 -76l-316 -199h-82z" />
<glyph unicode="&#xee;" horiz-adv-x="569" d="M-33 1130l254 343h127l256 -343h-72l-247 211l-250 -211h-68zM45 0v61h14q57 0 76 9q31 12 31 53v579q0 45 -49 58q-23 8 -72 20v49q59 14 186 60q49 23 142 61l22 -18v-821q0 -49 99 -50h30v-61q-156 8 -233 8q-86 0 -246 -8z" />
<glyph unicode="&#xef;" horiz-adv-x="569" d="M-41 1276q0 47 34 81t81 34t80.5 -34t33.5 -81t-33.5 -81t-80.5 -34t-81 34t-34 81zM45 0v61h14q57 0 76 9q31 12 31 53v579q0 45 -49 58q-23 8 -72 20v49q59 14 186 60q49 23 142 61l22 -18v-821q0 -49 99 -50h30v-61q-156 8 -233 8q-86 0 -246 -8zM381 1276q0 47 34 81 t81 34t80.5 -34t33.5 -81t-33.5 -81t-80.5 -34t-81 34t-34 81z" />
<glyph unicode="&#xf0;" d="M78 461q0 209 138 349t351 140q123 0 183 -67h4q-39 223 -238 393l-254 -162l-63 76l245 153q-133 92 -268 148l43 74q203 -55 334 -154l233 154l66 -78l-209 -131q174 -115 299 -334q119 -213 119 -395q0 -324 -143 -498q-131 -160 -351 -160q-215 0 -352 139.5 t-137 352.5zM328 414q0 -131 61 -240q72 -131 191 -131q231 0 231 381q0 156 -49 283q-68 170 -199 170q-154 0 -207 -172q-28 -94 -28 -291z" />
<glyph unicode="&#xf1;" d="M45 0v61h14q57 0 76 9q31 12 31 53v579q0 45 -49 58q-23 8 -72 20v49q59 14 186 60q49 23 142 61l22 -18v-131q129 88 148 98q92 51 172 51q254 0 254 -264v-567q0 -57 100 -58h25v-61q-156 8 -232 8q-80 0 -244 -8v61h21q100 0 100 54v512q0 172 -155 172 q-80 0 -189 -70v-618q0 -49 99 -50h30v-61q-156 8 -233 8q-86 0 -246 -8zM234 1180q45 221 196 221q53 0 160 -45t158 -45q82 0 96 92h62q-39 -219 -195 -219q-59 0 -169 48t-148 48q-70 0 -101 -100h-59z" />
<glyph unicode="&#xf2;" d="M78 461q0 209 138 349t351 140q223 0 358.5 -131t135.5 -346q0 -209 -143.5 -356.5t-350.5 -147.5q-215 0 -352 139.5t-137 352.5zM287 1405q0 78 72 78q35 0 84 -49l301 -304h-82l-316 199q-59 37 -59 76zM328 455q0 -160 51 -271q66 -141 201 -141q231 0 231 381 q0 156 -49 283q-68 170 -199 170q-236 0 -235 -422z" />
<glyph unicode="&#xf3;" d="M78 461q0 209 138 349t351 140q223 0 358.5 -131t135.5 -346q0 -209 -143.5 -356.5t-350.5 -147.5q-215 0 -352 139.5t-137 352.5zM328 455q0 -160 51 -271q66 -141 201 -141q231 0 231 381q0 156 -49 283q-68 170 -199 170q-236 0 -235 -422zM379 1130l301 304 q49 49 84 49q72 0 72 -78q0 -39 -59 -76l-316 -199h-82z" />
<glyph unicode="&#xf4;" d="M78 461q0 209 138 349t351 140q223 0 358.5 -131t135.5 -346q0 -209 -143.5 -356.5t-350.5 -147.5q-215 0 -352 139.5t-137 352.5zM252 1130l254 343h127l256 -343h-72l-247 211l-250 -211h-68zM328 455q0 -160 51 -271q66 -141 201 -141q231 0 231 381q0 156 -49 283 q-68 170 -199 170q-236 0 -235 -422z" />
<glyph unicode="&#xf5;" d="M78 461q0 209 138 349t351 140q223 0 358.5 -131t135.5 -346q0 -209 -143.5 -356.5t-350.5 -147.5q-215 0 -352 139.5t-137 352.5zM234 1180q45 221 196 221q53 0 160 -45t158 -45q82 0 96 92h62q-39 -219 -195 -219q-59 0 -169 48t-148 48q-70 0 -101 -100h-59zM328 455 q0 -160 51 -271q66 -141 201 -141q231 0 231 381q0 156 -49 283q-68 170 -199 170q-236 0 -235 -422z" />
<glyph unicode="&#xf6;" d="M78 461q0 209 138 349t351 140q223 0 358.5 -131t135.5 -346q0 -209 -143.5 -356.5t-350.5 -147.5q-215 0 -352 139.5t-137 352.5zM244 1276q0 47 34 81t81 34t80.5 -34t33.5 -81t-33.5 -81t-80.5 -34t-81 34t-34 81zM328 455q0 -160 51 -271q66 -141 201 -141 q231 0 231 381q0 156 -49 283q-68 170 -199 170q-236 0 -235 -422zM666 1276q0 47 34 81t81 34t80.5 -34t33.5 -81t-33.5 -81t-80.5 -34t-81 34t-34 81z" />
<glyph unicode="&#xf7;" d="M53 424v184h1032v-184h-1032zM416 90q0 63 45 108.5t108 45.5t108.5 -45t45.5 -109q0 -63 -45 -108t-109 -45q-63 0 -108 45t-45 108zM416 942q0 63 45 108.5t108 45.5t108.5 -45t45.5 -109q0 -63 -45 -108.5t-109 -45.5q-63 0 -108 45.5t-45 108.5z" />
<glyph unicode="&#xf8;" d="M45 -10l145 145q-113 135 -112 326q0 209 138 349t351 140q207 0 336 -110l137 137l54 -57l-136 -136q102 -121 103 -311q0 -209 -143.5 -356.5t-350.5 -147.5q-188 0 -319 111l-150 -148zM328 455q0 -94 18 -166l416 411q-63 176 -199 177q-236 0 -235 -422zM373 203 q61 -160 207 -160q231 0 231 381q0 96 -23 192z" />
<glyph unicode="&#xf9;" d="M37 842v49q201 10 348 59l21 -12q-10 -143 -11 -184v-453q0 -168 152 -168q88 0 192 86v524q0 31 -9 43.5t-40 22.5l-102 33v49q262 16 370 59l21 -12q-10 -72 -10 -184v-586q0 -74 55 -74h61v-49q-139 -25 -165 -29q-94 -20 -160 -47l-21 17v145q-193 -162 -323 -162 q-250 0 -250 240v555q0 41 -43 53zM287 1405q0 78 72 78q35 0 84 -49l301 -304h-82l-316 199q-59 37 -59 76z" />
<glyph unicode="&#xfa;" d="M37 842v49q201 10 348 59l21 -12q-10 -143 -11 -184v-453q0 -168 152 -168q88 0 192 86v524q0 31 -9 43.5t-40 22.5l-102 33v49q262 16 370 59l21 -12q-10 -72 -10 -184v-586q0 -74 55 -74h61v-49q-139 -25 -165 -29q-94 -20 -160 -47l-21 17v145q-193 -162 -323 -162 q-250 0 -250 240v555q0 41 -43 53zM379 1130l301 304q49 49 84 49q72 0 72 -78q0 -39 -59 -76l-316 -199h-82z" />
<glyph unicode="&#xfb;" d="M37 842v49q201 10 348 59l21 -12q-10 -143 -11 -184v-453q0 -168 152 -168q88 0 192 86v524q0 31 -9 43.5t-40 22.5l-102 33v49q262 16 370 59l21 -12q-10 -72 -10 -184v-586q0 -74 55 -74h61v-49q-139 -25 -165 -29q-94 -20 -160 -47l-21 17v145q-193 -162 -323 -162 q-250 0 -250 240v555q0 41 -43 53zM252 1130l254 343h127l256 -343h-72l-247 211l-250 -211h-68z" />
<glyph unicode="&#xfc;" d="M37 842v49q201 10 348 59l21 -12q-10 -143 -11 -184v-453q0 -168 152 -168q88 0 192 86v524q0 31 -9 43.5t-40 22.5l-102 33v49q262 16 370 59l21 -12q-10 -72 -10 -184v-586q0 -74 55 -74h61v-49q-139 -25 -165 -29q-94 -20 -160 -47l-21 17v145q-193 -162 -323 -162 q-250 0 -250 240v555q0 41 -43 53zM244 1276q0 47 34 81t81 34t80.5 -34t33.5 -81t-33.5 -81t-80.5 -34t-81 34t-34 81zM666 1276q0 47 34 81t81 34t80.5 -34t33.5 -81t-33.5 -81t-80.5 -34t-81 34t-34 81z" />
<glyph unicode="&#xfd;" horiz-adv-x="1024" d="M29 858v62q160 -8 237 -9q76 0 228 9v-62h-19q-88 0 -88 -31q1 -20 21 -73l180 -467h4l162 413q27 68 26 111q0 47 -96 47h-27v62q127 -8 191 -9q53 0 147 9v-62h-34q-27 0 -50.5 -36t-68.5 -144l-418 -1010q-55 -135 -156 -135q-51 0 -83.5 34t-32.5 85q0 43 31.5 76.5 t78.5 33.5q57 0 103 -30l104 250l-309 766q-45 111 -101 110h-30zM321 1130l301 304q49 49 84 49q72 0 72 -78q0 -39 -59 -76l-316 -199h-82z" />
<glyph unicode="&#xfe;" d="M25 -406h26q101 0 101 41v1690q0 70 -97 70h-24v37q72 14 172 55q113 45 159 78l19 -13v-733q141 131 317 131q168 0 269 -123q94 -115 94 -284q0 -233 -148.5 -394t-349.5 -161q-106 0 -182 28v-356q0 -45 43 -57q27 -8 106 -9h39v-61q-31 0 -137 4q-84 4 -137 4 q-51 0 -135 -4q-104 -4 -135 -4v61zM381 209q106 -131 209 -131q129 0 192 112q49 90 49 230q0 150 -65 260q-80 131 -219 131q-78 0 -166 -55v-547z" />
<glyph unicode="&#xff;" horiz-adv-x="1024" d="M29 858v62q160 -8 237 -9q76 0 228 9v-62h-19q-88 0 -88 -31q1 -20 21 -73l180 -467h4l162 413q27 68 26 111q0 47 -96 47h-27v62q127 -8 191 -9q53 0 147 9v-62h-34q-27 0 -50.5 -36t-68.5 -144l-418 -1010q-55 -135 -156 -135q-51 0 -83.5 34t-32.5 85q0 43 31.5 76.5 t78.5 33.5q57 0 103 -30l104 250l-309 766q-45 111 -101 110h-30zM186 1276q0 47 34 81t81 34t80.5 -34t33.5 -81t-33.5 -81t-80.5 -34t-81 34t-34 81zM608 1276q0 47 34 81t81 34t80.5 -34t33.5 -81t-33.5 -81t-80.5 -34t-81 34t-34 81z" />
<glyph unicode="&#x152;" horiz-adv-x="2048" d="M66 713q0 334 216 540.5t552 206.5q68 0 186 -14q129 -14 184 -16q119 -4 346 -5q158 0 351 5q-2 -96 6 -289l-64 -13q-6 117 -58 164t-169 47h-297v-536h268q61 0 94 63q25 51 25 119h66q-6 -268 -3 -459l-59 -12q0 186 -125 186h-266v-454q0 -96 51 -123 q35 -20 143 -21h191q115 0 172 80q25 35 68 162l57 -10q-23 -111 -64 -334q-63 0 -290 4q-180 4 -291 4q-147 0 -283 -8q-39 -2 -160 -18q-100 -12 -161 -13q-297 0 -496 228q-190 217 -190 516zM352 750q0 -272 99 -459q121 -231 358 -232q248 0 248 166v897q0 152 -45 200 t-193 48q-238 0 -362 -196q-104 -166 -105 -424z" />
<glyph unicode="&#x153;" horiz-adv-x="1593" d="M78 467q0 203 140 343t341 140q223 0 346 -162q158 162 334 162q131 0 221 -73q94 -80 94 -209q0 -55 -6 -74l-30 -25h-537q0 -416 301 -415q125 0 248 116l31 -32q-154 -268 -369 -269q-199 0 -307 166q-123 -166 -353 -166q-213 0 -337 146q-117 137 -117 352zM328 479 q0 -160 34 -266q55 -170 185 -170q217 0 217 410q0 428 -223 424q-213 -4 -213 -398zM981 631h311q31 0 38 16.5t7 65.5q0 68 -41.5 113.5t-113.5 45.5q-82 0 -139.5 -73.5t-61.5 -167.5z" />
<glyph unicode="&#x178;" horiz-adv-x="1478" d="M25 1368v62q55 0 160.5 -4.5t160.5 -4.5t155.5 4.5t147.5 4.5v-62h-26q-106 0 -107 -47q0 -16 37 -68l309 -434l254 367q63 92 64 133q0 49 -117 49h-37v62q39 0 117 -4.5t117 -4.5q33 0 98 4.5t96 4.5v-62q-92 0 -160 -94l-381 -539v-489q0 -121 45 -158q31 -27 125 -27 h39v-61q-63 0 -178 4t-156 4q-49 0 -165.5 -4t-180.5 -4v61h39q94 0 132 35t38 133v439l-409 561q-57 78 -86 102q-45 37 -111 37h-20zM451 1684q0 47 34 81t81 34t80.5 -34t33.5 -81t-33.5 -81t-80.5 -34t-81 34t-34 81zM873 1684q0 47 34 81t81 34t80.5 -34t33.5 -81 t-33.5 -81t-80.5 -34t-81 34t-34 81z" />
<glyph unicode="&#x2c6;" horiz-adv-x="569" d="M-33 1130l254 343h127l256 -343h-72l-247 211l-250 -211h-68z" />
<glyph unicode="&#x2dc;" horiz-adv-x="569" d="M-51 1180q45 221 196 221q53 0 160 -45t158 -45q82 0 96 92h62q-39 -219 -195 -219q-59 0 -169 48t-148 48q-70 0 -101 -100h-59z" />
<glyph unicode="&#x2000;" horiz-adv-x="965" />
<glyph unicode="&#x2001;" horiz-adv-x="1931" />
<glyph unicode="&#x2002;" horiz-adv-x="965" />
<glyph unicode="&#x2003;" horiz-adv-x="1931" />
<glyph unicode="&#x2004;" horiz-adv-x="643" />
<glyph unicode="&#x2005;" horiz-adv-x="482" />
<glyph unicode="&#x2006;" horiz-adv-x="321" />
<glyph unicode="&#x2007;" horiz-adv-x="321" />
<glyph unicode="&#x2008;" horiz-adv-x="241" />
<glyph unicode="&#x2009;" horiz-adv-x="386" />
<glyph unicode="&#x200a;" horiz-adv-x="107" />
<glyph unicode="&#x2010;" horiz-adv-x="681" d="M53 406l35 163q92 -2 277 -2q45 0 133 2h131l-35 -163q-39 0 -117 2h-119q-254 0 -305 -2z" />
<glyph unicode="&#x2011;" horiz-adv-x="681" d="M53 406l35 163q92 -2 277 -2q45 0 133 2h131l-35 -163q-39 0 -117 2h-119q-254 0 -305 -2z" />
<glyph unicode="&#x2012;" horiz-adv-x="681" d="M53 406l35 163q92 -2 277 -2q45 0 133 2h131l-35 -163q-39 0 -117 2h-119q-254 0 -305 -2z" />
<glyph unicode="&#x2013;" horiz-adv-x="1024" d="M0 406v163h1024v-163h-1024z" />
<glyph unicode="&#x2014;" horiz-adv-x="2048" d="M0 406v163h2048v-163h-2048z" />
<glyph unicode="&#x2018;" horiz-adv-x="569" d="M102 1065q0 137 105 238q90 88 233 127l29 -62q-80 -14 -139 -55q-72 -51 -72 -119q0 -49 43 -69.5t86 -39.5q45 -31 45 -94t-43 -101t-106 -38q-84 0 -136 66q-45 59 -45 147z" />
<glyph unicode="&#x2019;" horiz-adv-x="569" d="M100 913q80 14 140 56q72 51 71 118q0 49 -43 70t-86 39q-45 31 -45 94t43 101.5t107 38.5q84 0 135 -66q45 -59 45 -147q0 -137 -105 -238q-90 -88 -233 -127z" />
<glyph unicode="&#x201a;" horiz-adv-x="569" d="M100 -254q80 14 140 55q72 51 71 119q0 49 -43 69.5t-86 39.5q-45 31 -45 94t43 101t107 38q84 0 135 -65q45 -59 45 -148q0 -137 -105 -237q-90 -88 -233 -127z" />
<glyph unicode="&#x201c;" d="M172 1065q0 137 104 238q91 88 234 127l29 -62q-80 -14 -140 -55q-72 -51 -71 -119q0 -49 43 -69.5t86 -39.5q45 -31 45 -94t-43 -101t-107 -38q-84 0 -135 66q-45 59 -45 147zM600 1065q0 137 105 238q90 88 233 127l29 -62q-80 -14 -140 -55q-72 -51 -71 -119 q0 -49 43 -69.5t86 -39.5q45 -31 45 -94t-43 -101t-107 -38q-84 0 -135 66q-45 59 -45 147z" />
<glyph unicode="&#x201d;" d="M172 913q80 14 139 56q72 51 72 118q0 49 -43 70t-86 39q-45 31 -45 94t43 101.5t106 38.5q84 0 136 -66q45 -59 45 -147q0 -137 -105 -238q-90 -88 -233 -127zM600 913q80 14 139 56q72 51 72 118q0 49 -43 70t-86 39q-45 31 -45 94t43 101.5t106 38.5q84 0 136 -66 q45 -59 45 -147q0 -137 -105 -238q-90 -88 -233 -127z" />
<glyph unicode="&#x201e;" d="M172 -254q80 14 139 55q72 51 72 119q0 49 -43 69.5t-86 39.5q-45 31 -45 94t43 101t106 38q84 0 136 -65q45 -59 45 -148q0 -137 -105 -237q-90 -88 -233 -127zM600 -254q80 14 139 55q72 51 72 119q0 49 -43 69.5t-86 39.5q-45 31 -45 94t43 101t106 38q84 0 136 -65 q45 -59 45 -148q0 -137 -105 -237q-90 -88 -233 -127z" />
<glyph unicode="&#x2022;" horiz-adv-x="1024" d="M156 715q0 147 104.5 251.5t251.5 104.5t252.5 -104.5t105.5 -251.5t-105.5 -253t-252.5 -106t-251.5 106t-104.5 253z" />
<glyph unicode="&#x2026;" horiz-adv-x="2048" d="M180 131q0 66 49.5 115t112.5 49q66 0 115 -49t49 -115t-49 -114t-115 -48t-114 48.5t-48 113.5zM862 131q0 66 49.5 115t112.5 49q66 0 115 -49t49 -115t-49 -114t-115 -48t-114 48.5t-48 113.5zM1544 131q0 66 49 115t113 49q66 0 115 -49t49 -115t-49 -114t-115 -48 t-114 48.5t-48 113.5z" />
<glyph unicode="&#x202f;" horiz-adv-x="386" />
<glyph unicode="&#x2039;" horiz-adv-x="569" d="M80 487q250 225 373 340l36 -34l-206 -306l202 -307l-36 -33q-66 57 -369 340z" />
<glyph unicode="&#x203a;" horiz-adv-x="569" d="M80 182l207 305l-203 308l37 32q66 -57 368 -340q-249 -225 -372 -340z" />
<glyph unicode="&#x205f;" horiz-adv-x="482" />
<glyph unicode="&#x2122;" horiz-adv-x="2027" d="M35 1249v181h741v-181h-49q-31 131 -135 131h-88v-661q0 -59 90 -68v-49h-391v49q104 0 104 68v661h-88q-104 0 -135 -131h-49zM860 1380v50h285l285 -592l309 592h254v-50q-61 -2 -84 -21.5t-23 -74.5v-536q0 -84 101 -97v-49h-404v49q106 2 107 97v454h-7l-303 -602 h-26l-285 598h-4v-450q0 -94 104 -97v-49h-272v49q106 2 107 97v528q0 47 -44.5 75.5t-99.5 28.5z" />
<glyph unicode="&#x25fc;" horiz-adv-x="921" d="M0 0v922h922v-922h-922z" />
</font>
</defs>
</svg>
