<?xml version="1.0" standalone="no"?>
<!DOCTYPE svg PUBLIC "-//W3C//DTD SVG 1.1//EN" "http://www.w3.org/Graphics/SVG/1.1/DTD/svg11.dtd" >
<svg xmlns="http://www.w3.org/2000/svg" xmlns:xlink="http://www.w3.org/1999/xlink" version="1.1">
<metadata>
Created by FontForge 20150102 at Fri Jan 30 15:54:54 2015
 By uniteet7
(c) 1990, 2002 Adobe Systems Incorporated. All rights reserved. (c) 1981, 2002 Heidelberger Druckmaschinen AG. All rights reserved.
</metadata>
<defs>
<font id="UniversLTStdThinUltraCn" horiz-adv-x="204" >
  <font-face 
    font-family="UniversLTStdThinUltraCn"
    font-weight="250"
    font-stretch="ultra-condensed"
    units-per-em="1000"
    panose-1="2 11 4 8 3 7 2 6 2 4"
    ascent="724"
    descent="-276"
    x-height="502"
    cap-height="722"
    bbox="-40 -188 1000 863"
    underline-thickness="50"
    underline-position="-50"
    unicode-range="U+0020-FB02"
  />
<missing-glyph horiz-adv-x="500" 
d="M0 0v700h500v-700h-500zM250 395l170 255h-340zM280 350l170 -255v510zM80 50h340l-170 255zM50 605v-510l170 255z" />
    <glyph glyph-name="f_i" unicode="fi" 
d="M139 0v502h36v-502h-36zM135 636v52h44v-52h-44zM33 0v472h-28v30h28v171q0 49 50 49h23v-30h-16q-21 0 -21 -28v-162h37v-30h-37v-472h-36z" />
    <glyph glyph-name="f_l" unicode="fl" 
d="M139 0v722h36v-722h-36zM33 0v472h-28v30h28v171q0 49 50 49h23v-30h-16q-21 0 -21 -28v-162h37v-30h-37v-472h-36z" />
    <glyph glyph-name=".notdef" horiz-adv-x="500" 
d="M0 0v700h500v-700h-500zM250 395l170 255h-340zM280 350l170 -255v510zM80 50h340l-170 255zM50 605v-510l170 255z" />
    <glyph glyph-name=".null" horiz-adv-x="0" 
 />
    <glyph glyph-name="nonmarkingreturn" horiz-adv-x="333" 
 />
    <glyph glyph-name="space" unicode=" " horiz-adv-x="112" 
 />
    <glyph glyph-name="exclam" unicode="!" horiz-adv-x="167" 
d="M58 722h52l-12 -556h-28zM62 0v52h44v-52h-44z" />
    <glyph glyph-name="quotedbl" unicode="&#x22;" horiz-adv-x="167" 
d="M22 566v156h30v-156h-30zM115 566v156h30v-156h-30z" />
    <glyph glyph-name="numbersign" unicode="#" horiz-adv-x="224" 
d="M92 0l31 238h-55l-31 -238h-30l31 238h-48v30h52l25 186h-49v30h53l31 238h30l-31 -238h55l31 238h30l-31 -238h48v-30h-52l-25 -186h49v-30h-53l-31 -238h-30zM127 268l25 186h-55l-25 -186h55z" />
    <glyph glyph-name="dollar" unicode="$" horiz-adv-x="224" 
d="M161 530v119q0 27 -12 37t-37 10t-37 -10t-12 -37v-108q0 -41 16 -69l88 -157q30 -54 30 -109v-146q0 -58 -72 -64v-81h-30v81q-37 4 -52.5 19t-15.5 48v138h36v-128q0 -27 12 -37t37 -10t37 10t12 37v123q0 56 -21 93l-89 158q-24 43 -24 99v117q0 27 18 43.5t50 19.5
v80h30v-80q72 -2 72 -65v-131h-36z" />
    <glyph glyph-name="percent" unicode="%" horiz-adv-x="278" 
d="M15 388v298q0 40 45 40q42 0 45 -40v-298q0 -40 -45 -40t-45 40zM79 391v292q0 21 -19 21t-19 -21v-292q0 -21 19 -21t19 21zM173 36v298q0 40 45 40q42 0 45 -40v-298q0 -40 -45 -40t-45 40zM237 39v292q0 21 -19 21t-19 -21v-292q0 -21 19 -21t19 21zM57 -35l135 792
h28l-135 -792h-28z" />
    <glyph glyph-name="ampersand" unicode="&#x26;" horiz-adv-x="241" 
d="M214 0l-19 62q-9 30 -11 49h-2v-23q0 -92 -82 -92q-43 0 -60.5 30t-17.5 95v130q2 61 14 88l38 81l-27 88q-11 38 -11 91v56q0 30 16.5 50.5t49.5 20.5q32 0 49 -17.5t17 -46.5v-68q0 -49 -13 -85l-46 -97l46 -145q14 -42 15 -96h2v249h30v-148q0 -22 -2 -63.5t-2 -54.5
l46 -154h-30zM58 266v-155q0 -85 47 -85q55 0 55 88v25l-72 239l-15 -30q-15 -41 -15 -82zM132 577v80q0 39 -31 39q-13 0 -21 -11t-8 -26v-92q0 -31 8 -58l16 -54l23 51q13 30 13 71z" />
    <glyph glyph-name="quotesingle" unicode="'" horiz-adv-x="112" 
d="M41 566v156h30v-156h-30z" />
    <glyph glyph-name="parenleft" unicode="(" horiz-adv-x="130" 
d="M110 -156h-26q-48 211 -48 439t48 439h26q-34 -181 -34 -439q0 -265 34 -439z" />
    <glyph glyph-name="parenright" unicode=")" horiz-adv-x="130" 
d="M20 722h26q48 -211 48 -439t-48 -439h-26q34 181 34 439q0 265 -34 439z" />
    <glyph glyph-name="asterisk" unicode="*" horiz-adv-x="222" 
d="M12 612v35l84 -9l-49 69l30 15l33 -75l34 75l30 -15l-48 -69l84 9v-35l-84 9l48 -68l-30 -17l-34 76l-33 -76l-30 17l49 68z" />
    <glyph glyph-name="plus" unicode="+" horiz-adv-x="600" 
d="M285 0v238h-238v30h238v238h30v-238h238v-30h-238v-238h-30z" />
    <glyph glyph-name="comma" unicode="," horiz-adv-x="112" 
d="M24 -78l20 130h44l-34 -130h-30z" />
    <glyph glyph-name="hyphen" unicode="-" horiz-adv-x="111" 
d="M9 238v26h93v-26h-93z" />
    <glyph glyph-name="period" unicode="." horiz-adv-x="112" 
d="M34 0v52h44v-52h-44z" />
    <glyph glyph-name="slash" unicode="/" 
d="M14 -65l146 852h30l-146 -852h-30z" />
    <glyph glyph-name="zero" unicode="0" horiz-adv-x="224" 
d="M34 65v596q0 30 20 47.5t58 17.5q78 0 78 -69v-592q0 -69 -78 -69t-78 69zM70 652v-582q0 -44 42 -44t42 44v582q0 44 -42 44t-42 -44z" />
    <glyph glyph-name="one" unicode="1" horiz-adv-x="224" 
d="M103 0v662h-2l-41 -68v54l49 74h30v-722h-36z" />
    <glyph glyph-name="two" unicode="2" horiz-adv-x="224" 
d="M34 0v46l104 413q9 35 9 78v115q0 44 -37 44q-21 0 -28.5 -12t-7.5 -42v-92h-36v97q0 79 73 79q72 0 72 -76v-109q0 -58 -13 -106l-106 -405h126v-30h-156z" />
    <glyph glyph-name="three" unicode="3" horiz-adv-x="224" 
d="M90 354v30h11q25 0 36.5 12t11.5 47v209q0 44 -40 44q-36 0 -36 -44v-100h-36v106q0 68 72 68q76 0 76 -69v-225q0 -48 -45 -61v-2q50 -7 50 -67v-237q0 -69 -78 -69t-78 69v117h36v-112q2 -44 41 -44q43 0 43 44v232q0 31 -11 41.5t-40 10.5h-13z" />
    <glyph glyph-name="four" unicode="4" horiz-adv-x="224" 
d="M135 0v193h-114v49l94 480h56v-499h42v-30h-42v-193h-36zM135 223v469h-2q-6 -54 -15 -103l-67 -366h84z" />
    <glyph glyph-name="five" unicode="5" horiz-adv-x="224" 
d="M190 406v-326q0 -84 -80 -84q-76 0 -76 90v97h36v-108q0 -49 42 -49t42 56v321q0 47 -33 47q-31 0 -40 -26.5t-11 -111.5l-36 4l8 406h135v-30h-98l-10 -249l2 -2q13 39 54 39q65 0 65 -74z" />
    <glyph glyph-name="six" unicode="6" horiz-adv-x="224" 
d="M151 534v118q0 44 -40 44q-41 0 -41 -44v-212h2q9 33 55 33q63 0 63 -74v-334q0 -33 -21 -51t-58 -18q-77 0 -77 69v592q0 69 77 69q37 0 56.5 -18t19.5 -51v-123h-36zM154 70v327q0 46 -40 46q-17 0 -30.5 -16t-13.5 -40v-317q0 -44 46 -44q38 0 38 44z" />
    <glyph glyph-name="seven" unicode="7" horiz-adv-x="224" 
d="M34 692v30h156v-33l-84 -689h-40l88 692h-120z" />
    <glyph glyph-name="eight" unicode="8" horiz-adv-x="224" 
d="M34 65v275q0 52 43 57v2q-37 6 -37 61v201q0 65 71 65q73 0 73 -65v-201q-1 -56 -37 -61v-2q43 -5 43 -57v-275q0 -33 -20.5 -51t-58.5 -18q-77 0 -77 69zM148 450v209q0 37 -36 37t-36 -37v-209q0 -37 36 -37t36 37zM154 70v269q0 23 -9 33.5t-34 10.5q-23 0 -32 -10.5
t-9 -33.5v-269q0 -23 9 -33.5t32 -10.5q25 0 34 10.5t9 33.5z" />
    <glyph glyph-name="nine" unicode="9" horiz-adv-x="224" 
d="M73 188v-118q0 -44 40 -44q41 0 41 44v212h-2q-9 -33 -55 -33q-63 0 -63 74v334q0 33 21 51t58 18q77 0 77 -69v-592q0 -69 -77 -69q-37 0 -56.5 18t-19.5 51v123h36zM70 652v-327q0 -46 40 -46q17 0 30.5 16t13.5 40v317q0 44 -46 44q-38 0 -38 -44z" />
    <glyph glyph-name="colon" unicode=":" horiz-adv-x="112" 
d="M34 450v52h44v-52h-44zM34 0v52h44v-52h-44z" />
    <glyph glyph-name="semicolon" unicode=";" horiz-adv-x="112" 
d="M24 -78l20 130h44l-34 -130h-30zM44 450v52h44v-52h-44z" />
    <glyph glyph-name="less" unicode="&#x3c;" horiz-adv-x="600" 
d="M47 243v30l506 245v-30l-476 -230l476 -232v-30z" />
    <glyph glyph-name="equal" unicode="=" horiz-adv-x="600" 
d="M47 335v30h506v-30h-506zM47 141v30h506v-30h-506z" />
    <glyph glyph-name="greater" unicode="&#x3e;" horiz-adv-x="600" 
d="M553 273v-30l-506 -247v30l476 232l-476 230v30z" />
    <glyph glyph-name="question" unicode="?" horiz-adv-x="222" 
d="M45 554v100q0 72 68 72q42 0 59.5 -18t17.5 -67v-96q0 -50 -20 -110l-18 -54q-20 -58 -20 -99v-116h-36v140q0 38 28.5 113t29.5 113v120q0 44 -38 44q-35 0 -35 -45v-97h-36zM94 0v52h44v-52h-44z" />
    <glyph glyph-name="at" unicode="@" horiz-adv-x="800" 
d="M519 431q0 112 -94 112q-57 0 -103.5 -41.5t-69.5 -98t-23 -110.5q0 -55 28 -85.5t77 -30.5q64 0 124.5 81.5t60.5 172.5zM549 490l23 69h40l-95 -289q-15 -45 -15 -58q0 -15 12 -25t28 -10q69 0 126 77.5t57 170.5q0 119 -92.5 192t-215.5 73q-142 0 -242 -98.5
t-100 -234.5q0 -140 101 -232.5t243 -92.5q85 0 161.5 39t122.5 105h40q-45 -82 -134.5 -131t-189.5 -49q-167 0 -275.5 104.5t-108.5 263.5q0 154 110 258t270 104q150 0 250 -84.5t100 -219.5q0 -108 -76 -194.5t-161 -86.5q-29 0 -47.5 18t-18.5 52h-2q-54 -70 -139 -70
q-58 0 -95 43t-37 104q0 109 69 200t173 91q46 0 77 -26.5t37 -62.5h4z" />
    <glyph glyph-name="A" unicode="A" 
d="M172 0l-23 211h-99l-22 -211h-36l81 722h56l83 -722h-40zM54 241h92l-25 237q-19 168 -20 218h-2q-4 -36 -9.5 -109t-9.5 -109z" />
    <glyph glyph-name="B" unicode="B" horiz-adv-x="241" 
d="M33 0v722h86q84 0 84 -77v-210q0 -29 -18 -44t-45 -17v-2q32 -2 50 -16.5t18 -50.5v-228q0 -39 -21 -58t-57 -19h-97zM73 386h43q47 0 47 51v210q0 25 -10.5 35t-38.5 10h-41v-306zM116 356h-43v-326h41q29 0 41.5 10.5t12.5 33.5v230q0 52 -52 52z" />
    <glyph glyph-name="C" unicode="C" 
d="M19 74v574q0 37 22.5 57.5t62.5 20.5q81 0 81 -78v-119h-40v113q0 54 -41 54q-21 0 -33 -12t-12 -33v-580q0 -21 12 -33t33 -12q23 0 32 12.5t9 41.5v123h40v-129q0 -78 -81 -78q-40 0 -62.5 20.5t-22.5 57.5z" />
    <glyph glyph-name="D" unicode="D" horiz-adv-x="241" 
d="M33 0v722h85q90 0 90 -77v-568q0 -77 -90 -77h-85zM73 30h41q54 0 54 44v574q0 44 -54 44h-41v-662z" />
    <glyph glyph-name="E" unicode="E" horiz-adv-x="185" 
d="M33 0v722h137v-30h-97v-306h91v-30h-91v-326h104v-30h-144z" />
    <glyph glyph-name="F" unicode="F" horiz-adv-x="167" 
d="M33 0v722h137v-30h-97v-306h93v-30h-93v-356h-40z" />
    <glyph glyph-name="G" unicode="G" horiz-adv-x="241" 
d="M128 318v30h80v-330l-5 -3q-30 -19 -82 -19q-42 0 -65 20.5t-23 57.5v574q0 37 23 57.5t65 20.5t64.5 -20t22.5 -58v-117h-40v112q0 24 -13.5 38.5t-33.5 14.5q-21 0 -34.5 -14.5t-13.5 -38.5v-572q0 -21 13.5 -33t34.5 -12q27 0 47 12v280h-40z" />
    <glyph glyph-name="H" unicode="H" horiz-adv-x="241" 
d="M33 0v722h40v-336h95v336h40v-722h-40v356h-95v-356h-40z" />
    <glyph glyph-name="I" unicode="I" horiz-adv-x="112" 
d="M36 0v722h40v-722h-40z" />
    <glyph glyph-name="J" unicode="J" horiz-adv-x="185" 
d="M2 193h40v-122q0 -45 35 -45t35 45v651h40v-652q0 -34 -21 -54t-54 -20t-54 20t-21 54v123z" />
    <glyph glyph-name="K" unicode="K" 
d="M33 0v722h40v-722h-40zM178 0l-105 382l99 340h36l-99 -340l109 -382h-40z" />
    <glyph glyph-name="L" unicode="L" horiz-adv-x="185" 
d="M33 0v722h40v-692h105v-30h-145z" />
    <glyph glyph-name="M" unicode="M" horiz-adv-x="333" 
d="M36 0v722h66l44 -435q14 -130 18 -257h2q10 173 19 257l46 435h66v-722h-40v448q0 62 4 244h-2q-4 -45 -14 -145.5t-14 -140.5l-40 -406h-50l-41 402q-24 248 -26 290h-2q-1 -55 1.5 -144t2.5 -100v-448h-40z" />
    <glyph glyph-name="N" unicode="N" horiz-adv-x="259" 
d="M33 0v722h60l68 -466q12 -85 33 -226h2q-10 200 -10 232v460h40v-722h-60l-70 460q-5 30 -28 232h-2q1 -40 2.5 -88t3 -80.5t1.5 -41.5v-482h-40z" />
    <glyph glyph-name="O" unicode="O" horiz-adv-x="241" 
d="M208 648v-574q0 -38 -22.5 -58t-64.5 -20t-65 20.5t-23 57.5v574q0 37 23 57.5t65 20.5t64.5 -20t22.5 -58zM168 75v572q0 49 -47 49q-22 0 -35 -12.5t-13 -36.5v-572q0 -24 13 -36.5t35 -12.5q47 0 47 49z" />
    <glyph glyph-name="P" unicode="P" horiz-adv-x="222" 
d="M33 0v722h90q82 0 82 -69v-236q0 -32 -21 -50.5t-61 -18.5h-50v-348h-40zM73 378h43q49 0 49 43v226q0 45 -49 45h-43v-314z" />
    <glyph glyph-name="Q" unicode="Q" horiz-adv-x="241" 
d="M33 74v574q0 37 23 57.5t65 20.5t64.5 -20t22.5 -58v-558q0 -44 -26 -62v-2q7 0 21.5 2t21.5 2h11v-30h-68l-47 -4q-42 0 -65 20.5t-23 57.5zM168 75v573q0 48 -47 48q-22 0 -35 -12.5t-13 -35.5v-573q0 -24 13 -36.5t35 -12.5q47 0 47 49z" />
    <glyph glyph-name="R" unicode="R" horiz-adv-x="241" 
d="M33 0v722h90q37 0 59.5 -17t22.5 -50v-213q0 -33 -13 -50.5t-49 -20.5v-2q62 -5 62 -65v-304h-40v304q0 22 -13.5 37t-41.5 15h-37v-356h-40zM73 386h39q53 0 53 48v213q0 45 -49 45h-43v-306z" />
    <glyph glyph-name="S" unicode="S" horiz-adv-x="209" 
d="M55 201v-131q0 -44 46 -44q26 0 37.5 10.5t11.5 35.5v124q0 44 -21 93l-84 159q-26 49 -26 98v105q0 35 22.5 55t60.5 20q82 0 82 -67v-129h-36v125q0 41 -43 41q-20 0 -31.5 -12t-11.5 -31v-112q0 -34 16 -69l82 -157q30 -60 30 -109v-136q0 -74 -86 -74q-85 0 -85 77
v128h36z" />
    <glyph glyph-name="T" unicode="T" horiz-adv-x="168" 
d="M64 0v692h-71v30h182v-30h-71v-692h-40z" />
    <glyph glyph-name="U" unicode="U" horiz-adv-x="241" 
d="M168 722h40v-648q0 -38 -22.5 -58t-64.5 -20t-65 20.5t-23 57.5v648h40v-647q0 -24 13 -36.5t35 -12.5q47 0 47 49v647z" />
    <glyph glyph-name="V" unicode="V" 
d="M75 0l-78 722h40l48 -476q4 -42 9.5 -116.5t7.5 -99.5h2q4 39 9 111.5t8 104.5l47 476h39l-78 -722h-54z" />
    <glyph glyph-name="W" unicode="W" horiz-adv-x="333" 
d="M225 0l-42 458q-17 187 -18 234h-2q-4 -42 -8.5 -121t-7.5 -115l-40 -456h-53l-51 722h36l29 -442q12 -193 13 -250h2q5 45 8.5 129.5t6.5 120.5l39 442h56l38 -442q14 -165 17 -250h2q2 36 5.5 120.5t6.5 129.5l33 442h35l-54 -722h-51z" />
    <glyph glyph-name="X" unicode="X" 
d="M76 376l-74 346h40l60 -318h2l64 318h36l-76 -346l81 -376h-40l-65 348h-2l-71 -348h-36z" />
    <glyph glyph-name="Y" unicode="Y" 
d="M103 331l62 391h40l-83 -437v-285h-40v285l-83 437h40l62 -391h2z" />
    <glyph glyph-name="Z" unicode="Z" horiz-adv-x="167" 
d="M0 0v40l122 652h-111v30h147v-40l-122 -652h131v-30h-167z" />
    <glyph glyph-name="bracketleft" unicode="[" horiz-adv-x="167" 
d="M45 -156v878h102v-30h-66v-818h66v-30h-102z" />
    <glyph glyph-name="backslash" unicode="\" 
d="M160 -65l-146 852h30l146 -852h-30z" />
    <glyph glyph-name="bracketright" unicode="]" horiz-adv-x="167" 
d="M122 722v-878h-102v30h66v818h-66v30h102z" />
    <glyph glyph-name="asciicircum" unicode="^" horiz-adv-x="600" 
d="M561 269h-30l-230 423l-232 -423h-30l244 453h36z" />
    <glyph glyph-name="underscore" unicode="_" horiz-adv-x="500" 
d="M500 -125h-500v50h500v-50z" />
    <glyph glyph-name="grave" unicode="`" horiz-adv-x="94" 
d="M46 592l-58 96h44l40 -96h-26z" />
    <glyph glyph-name="a" unicode="a" horiz-adv-x="185" 
d="M61 359h-36v96q0 51 69 51q66 0 66 -51v-455h-36v25h-2q-14 -29 -47 -29q-50 0 -50 45v191q0 35 18.5 52.5t64.5 17.5h16v145q0 29 -30 29q-33 0 -33 -29v-88zM61 226v-177q0 -23 27 -23q16 0 26 16t10 39v191h-10q-28 0 -40.5 -9.5t-12.5 -36.5z" />
    <glyph glyph-name="b" unicode="b" 
d="M33 0v722h36v-241h2q13 25 47 25q53 0 53 -59v-388q0 -29 -14.5 -46t-40.5 -17q-30 0 -44 23h-3v-19h-36zM69 430v-369q0 -17 11.5 -26t25.5 -9q29 0 29 35v381q0 34 -32 34q-15 0 -24.5 -14.5t-9.5 -31.5z" />
    <glyph glyph-name="c" unicode="c" horiz-adv-x="167" 
d="M112 168h36v-112q0 -60 -64 -60q-65 0 -65 60v390q0 60 65 60q64 0 64 -60v-101h-36v97q0 34 -28 34q-29 0 -29 -34v-387q0 -29 29 -29q28 0 28 27v115z" />
    <glyph glyph-name="d" unicode="d" 
d="M33 59v388q0 59 53 59q34 0 47 -25h2v241h36v-722h-36v19h-3q-14 -23 -44 -23q-26 0 -40.5 17t-14.5 46zM135 61v369q0 17 -9.5 31.5t-24.5 14.5q-32 0 -32 -34v-381q0 -35 29 -35q14 0 25.5 9t11.5 26z" />
    <glyph glyph-name="e" unicode="e" horiz-adv-x="185" 
d="M124 167h36v-111q0 -27 -17 -43.5t-51 -16.5q-33 0 -50 16.5t-17 43.5v390q0 60 67 60q68 0 68 -60v-202h-99v-184q0 -34 31 -34q32 0 32 34v107zM124 274v168q0 34 -32 34q-31 0 -31 -34v-168h63z" />
    <glyph glyph-name="f" unicode="f" horiz-adv-x="111" 
d="M33 0v472h-28v30h28v171q0 49 50 49h23v-30h-16q-21 0 -21 -28v-162h37v-30h-37v-472h-36z" />
    <glyph glyph-name="g" unicode="g" 
d="M38 -57h36v-63q0 -21 6.5 -29.5t24.5 -8.5q30 0 30 42v146h-2q-10 -23 -42 -23q-58 0 -58 67v373q0 59 53 59q34 0 47 -25h2v21h36v-620q0 -37 -15.5 -53.5t-51.5 -16.5q-66 0 -66 59v72zM69 442v-368q0 -41 33 -41t33 53v344q0 17 -9.5 31.5t-24.5 14.5q-32 0 -32 -34z
" />
    <glyph glyph-name="h" unicode="h" 
d="M33 0v722h36v-247h2q5 11 18 21t29 10q27 0 40 -13.5t13 -45.5v-447h-36v434q0 24 -7 33t-23 9q-14 0 -25 -14.5t-11 -40.5v-421h-36z" />
    <glyph glyph-name="i" unicode="i" horiz-adv-x="94" 
d="M29 0v502h36v-502h-36zM25 636v52h44v-52h-44z" />
    <glyph glyph-name="j" unicode="j" horiz-adv-x="94" 
d="M65 502v-641q0 -45 -37 -45h-27v26h8q20 0 20 27v633h36zM25 636v52h44v-52h-44z" />
    <glyph glyph-name="k" unicode="k" horiz-adv-x="185" 
d="M33 0v722h36v-722h-36zM147 0l-78 288l75 214h36l-73 -211l76 -291h-36z" />
    <glyph glyph-name="l" unicode="l" horiz-adv-x="94" 
d="M29 0v722h36v-722h-36z" />
    <glyph glyph-name="m" unicode="m" horiz-adv-x="296" 
d="M28 0v502h36v-27h2q5 11 18 21t29 10q41 0 47 -33h2q5 13 19.5 23t33.5 10q27 0 40 -13.5t13 -45.5v-447h-36v434q0 24 -7 33t-23 9q-14 0 -25 -14.5t-11 -40.5v-421h-36v439q0 37 -30 37q-14 0 -25 -15.5t-11 -44.5v-416h-36z" />
    <glyph glyph-name="n" unicode="n" 
d="M33 0v502h36v-27h2q5 11 18 21t29 10q27 0 40 -13.5t13 -45.5v-447h-36v434q0 24 -7 33t-23 9q-14 0 -25 -14.5t-11 -40.5v-421h-36z" />
    <glyph glyph-name="o" unicode="o" 
d="M33 61v380q0 65 69 65t69 -65v-380q0 -29 -19 -47t-50 -18t-50 18t-19 47zM69 441v-380q0 -35 33 -35t33 35v380q0 35 -33 35t-33 -35z" />
    <glyph glyph-name="p" unicode="p" 
d="M33 -184v686h36v-21h2q13 25 47 25q53 0 53 -59v-388q0 -29 -14.5 -46t-40.5 -17q-33 0 -45 23h-2v-203h-36zM69 430v-369q0 -17 11.5 -26t25.5 -9q29 0 29 35v381q0 34 -32 34q-15 0 -24.5 -14.5t-9.5 -31.5z" />
    <glyph glyph-name="q" unicode="q" 
d="M135 -184v203h-2q-8 -12 -16.5 -17.5t-28.5 -5.5q-26 0 -40.5 17t-14.5 46v388q0 59 53 59q34 0 47 -25h2v21h36v-686h-36zM135 61v369q0 17 -9.5 31.5t-24.5 14.5q-32 0 -32 -34v-381q0 -35 29 -35q14 0 25.5 9t11.5 26z" />
    <glyph glyph-name="r" unicode="r" horiz-adv-x="130" 
d="M33 0v502h36v-27h2q5 12 18.5 21.5t31.5 9.5v-30q-52 0 -52 -55v-421h-36z" />
    <glyph glyph-name="s" unicode="s" horiz-adv-x="167" 
d="M18 167h36v-111q0 -30 30 -30q29 0 29 30v86q0 44 -12 64l-59 97l-11 19q-13 23 -13 57v71q0 25 16.5 40.5t48.5 15.5q64 0 64 -58v-87h-36v81q0 34 -28 34q-29 0 -29 -34v-68q0 -28 14 -50l18 -30l47 -74q16 -27 16 -65v-100q0 -27 -17.5 -43t-49.5 -16q-29 0 -46.5 14
t-17.5 39v118z" />
    <glyph glyph-name="t" unicode="t" horiz-adv-x="130" 
d="M8 472v30h31v89l36 20v-109h44v-30h-44v-418q0 -28 21 -28h23v-30h-30q-50 0 -50 49v427h-31z" />
    <glyph glyph-name="u" unicode="u" 
d="M171 0h-36v27h-2q-5 -11 -18 -21t-29 -10q-27 0 -40 13.5t-13 45.5v447h36v-434q0 -24 7 -33t23 -9q14 0 25 14.5t11 40.5v421h36v-502z" />
    <glyph glyph-name="v" unicode="v" horiz-adv-x="168" 
d="M59 0l-52 502h36l40 -480h2l40 480h36l-52 -502h-50z" />
    <glyph glyph-name="w" unicode="w" horiz-adv-x="278" 
d="M268 502l-40 -502h-45l-41 472h-2l-45 -472h-45l-40 502h36l24 -472h2l47 472h46l41 -472h2l24 472h36z" />
    <glyph glyph-name="x" unicode="x" horiz-adv-x="167" 
d="M125 0l-41 234h-2l-46 -234h-30l53 259l-53 243h36l40 -211h2l42 211h30l-50 -243l55 -259h-36z" />
    <glyph glyph-name="y" unicode="y" horiz-adv-x="167" 
d="M162 502l-86 -686h-30l21 180l-62 506h36l42 -434h2l41 434h36z" />
    <glyph glyph-name="z" unicode="z" horiz-adv-x="130" 
d="M3 0v40l89 432h-83v30h118v-44l-89 -428h89v-30h-124z" />
    <glyph glyph-name="braceleft" unicode="{" horiz-adv-x="222" 
d="M34 268v30q22 0 40.5 18.5t18.5 48.5v244q0 63 14.5 88t48.5 25h32v-30h-26q-19 0 -26 -20t-7 -63v-236q0 -39 -18 -62.5t-41 -26.5v-2q23 -3 41 -26.5t18 -62.5v-236q0 -43 7 -63t26 -20h26v-30h-32q-34 0 -48.5 25t-14.5 88v244q0 30 -18.5 48.5t-40.5 18.5z" />
    <glyph glyph-name="bar" unicode="|" horiz-adv-x="222" 
d="M93 -4v730h36v-730h-36z" />
    <glyph glyph-name="braceright" unicode="}" horiz-adv-x="222" 
d="M34 -156v30h26q19 0 26 20t7 63v236q0 39 18 62.5t41 26.5v2q-23 3 -41 26.5t-18 62.5v236q0 43 -7 63t-26 20h-26v30h32q34 0 48.5 -25t14.5 -88v-244q0 -30 18.5 -48.5t40.5 -18.5v-30q-22 0 -40.5 -18.5t-18.5 -48.5v-244q0 -63 -14.5 -88t-48.5 -25h-32z" />
    <glyph glyph-name="asciitilde" unicode="~" horiz-adv-x="600" 
d="M98 197l-26 22q18 28 30.5 42.5t36.5 27.5t55 13q41 0 110.5 -34t101.5 -34q56 0 96 75l26 -22q-26 -43 -51.5 -63t-70.5 -20q-41 0 -110 34t-102 34q-24 0 -45.5 -15.5t-28 -25t-22.5 -34.5z" />
    <glyph glyph-name="uni00A0" unicode="&#xa0;" horiz-adv-x="112" 
 />
    <glyph glyph-name="exclamdown" unicode="&#xa1;" horiz-adv-x="167" 
d="M110 -184h-52l12 556h28zM62 486v52h44v-52h-44z" />
    <glyph glyph-name="cent" unicode="&#xa2;" horiz-adv-x="224" 
d="M140 343v99q0 34 -27 34q-29 0 -29 -34v-387q0 -29 29 -29q27 0 27 27v114h36v-111q0 -32 -15 -46t-37 -14v-64h-26v64q-25 0 -38 21q-12 20 -12 49v380q0 32 17 46t33 14v57h26v-57q24 0 38 -16t14 -38v-109h-36z" />
    <glyph glyph-name="sterling" unicode="&#xa3;" horiz-adv-x="224" 
d="M22 0v30h25v336h-32v30h32v249q0 81 85 81t85 -81v-47h-36v47q0 26 -12 39t-37 12q-25 1 -37 -12t-12 -39v-249h51v-30h-51v-336h134v-30h-195z" />
    <glyph glyph-name="currency" unicode="&#xa4;" horiz-adv-x="224" 
d="M-1 261l27 27q-27 29 -27 73q0 41 27 73l-27 27l12 12l27 -27q32 27 73 27q44 0 73 -27l27 27l12 -12l-27 -27q27 -32 27 -73q0 -40 -27 -73l27 -27l-12 -12l-27 27q-32 -27 -73 -27t-73 27l-27 -27zM21 361q0 -37 26.5 -63.5t63.5 -26.5t63.5 26.5t26.5 63.5t-26.5 63.5
t-63.5 26.5t-63.5 -26.5t-26.5 -63.5z" />
    <glyph glyph-name="yen" unicode="&#xa5;" horiz-adv-x="224" 
d="M94 221v60l-2 10h-71v30h65l-77 401h40l62 -391h2l62 391h40l-77 -401h65v-30h-71l-2 -10v-60h73v-30h-73v-191h-36v191h-73v30h73z" />
    <glyph glyph-name="brokenbar" unicode="&#xa6;" horiz-adv-x="222" 
d="M93 -4v263h36v-263h-36zM93 463v263h36v-263h-36z" />
    <glyph glyph-name="section" unicode="&#xa7;" horiz-adv-x="222" 
d="M32 0v30q34 -4 63 -4q63 0 63 61v46q0 34 -25 56l-87 80q-18 17 -18 65v70q0 51 75 82l-31 23q-44 32 -44 86v44q0 38 21.5 62.5t64.5 24.5q25 0 69 -4v-30q-48 4 -65 4q-25 0 -39.5 -15t-14.5 -43v-41q0 -41 28 -62l63 -47q39 -30 39 -67v-88q0 -37 -17 -55.5t-55 -32.5
l39 -33q33 -29 33 -76v-55q0 -46 -23 -65.5t-77 -19.5q-36 0 -62 4zM158 319v88q0 22 -6.5 34t-28.5 30q-35 -16 -47 -28t-12 -33v-80q0 -38 41 -68q31 15 42 26t11 31z" />
    <glyph glyph-name="dieresis" unicode="&#xa8;" horiz-adv-x="94" 
d="M72 636v52h44v-52h-44zM-22 636v52h44v-52h-44z" />
    <glyph glyph-name="copyright" unicode="&#xa9;" horiz-adv-x="800" 
d="M600 440h-40q-11 55 -51 86t-101 31q-86 0 -133 -59t-47 -135q0 -84 47 -141.5t125 -57.5q128 0 160 123h40q-11 -72 -64.5 -115.5t-135.5 -43.5q-94 0 -153 61t-59 173q0 105 62.5 168t157.5 63q78 0 129 -38.5t63 -114.5zM725 361q0 136 -95.5 232.5t-229.5 96.5
t-229.5 -96.5t-95.5 -232.5t95.5 -232.5t229.5 -96.5t229.5 96.5t95.5 232.5zM35 361q0 151 106.5 258t258.5 107t258.5 -107t106.5 -258t-106.5 -258t-258.5 -107t-258.5 107t-106.5 258z" />
    <glyph glyph-name="ordfeminine" unicode="&#xaa;" horiz-adv-x="120" 
d="M11 637v55q0 34 48 34q29 0 40 -8.5t11 -25.5v-261h-30v6v7h-2q-8 -17 -34 -17q-34 0 -34 30v106q0 42 61 42h9v81q0 18 -19 18q-20 0 -20 -18v-49h-30zM80 482v101h-6q-18 0 -26 -5.5t-8 -21.5v-91q0 -16 16 -16q24 0 24 33z" />
    <glyph glyph-name="guillemotleft" unicode="&#xab;" horiz-adv-x="185" 
d="M73 0l-54 251l54 251h26l-44 -251l44 -251h-26zM140 0l-54 251l54 251h26l-44 -251l44 -251h-26z" />
    <glyph glyph-name="logicalnot" unicode="&#xac;" horiz-adv-x="600" 
d="M523 108v227h-476v30h506v-257h-30z" />
    <glyph glyph-name="uni00AD" unicode="&#xad;" horiz-adv-x="111" 
d="M9 238v26h93v-26h-93z" />
    <glyph glyph-name="registered" unicode="&#xae;" horiz-adv-x="800" 
d="M264 145v434h166q143 0 143 -121q0 -52 -32 -80.5t-84 -36.5l128 -196h-40l-128 197h-113v-197h-40zM304 378h111q118 0 118 81q0 84 -108 84h-121v-165zM400 32q134 0 229.5 96.5t95.5 232.5t-95.5 232.5t-229.5 96.5t-229.5 -96.5t-95.5 -232.5t95.5 -232.5
t229.5 -96.5zM35 361q0 151 106.5 258t258.5 107t258.5 -107t106.5 -258t-106.5 -258t-258.5 -107t-258.5 107t-106.5 258z" />
    <glyph glyph-name="macron" unicode="&#xaf;" horiz-adv-x="94" 
d="M-18 630v30h130v-30h-130z" />
    <glyph glyph-name="degree" unicode="&#xb0;" horiz-adv-x="286" 
d="M43 626q0 41 29.5 70.5t70.5 29.5t70.5 -29.5t29.5 -70.5t-29.5 -70.5t-70.5 -29.5t-70.5 29.5t-29.5 70.5zM217 626q0 31 -21.5 52.5t-52.5 21.5t-52.5 -21.5t-21.5 -52.5t21.5 -52.5t52.5 -21.5t52.5 21.5t21.5 52.5z" />
    <glyph glyph-name="plusminus" unicode="&#xb1;" horiz-adv-x="600" 
d="M285 312v194h30v-194h238v-30h-238v-194h-30v194h-238v30h238zM47 0v30h506v-30h-506z" />
    <glyph glyph-name="twosuperior" unicode="&#xb2;" horiz-adv-x="146" 
d="M18 291v27l71 247q6 20 6 47v69q0 23 -24 23q-14 0 -19 -6.5t-5 -22.5v-55h-30v58q0 48 57 48q51 0 51 -46v-65q0 -39 -8 -64l-69 -234h81v-26h-111z" />
    <glyph glyph-name="threesuperior" unicode="&#xb3;" horiz-adv-x="146" 
d="M16 399h30v-64q2 -26 27 -26q27 0 27 26v136q0 18 -7 23.5t-26 5.5h-6v22h5q16 0 23.5 7t7.5 27v121q0 27 -26 27q-23 0 -23 -27v-56h-30v64q0 41 56 41q53 0 53 -42v-135q0 -32 -36 -34v-2q39 -7 39 -42v-143q0 -41 -54 -41q-60 0 -60 41v71z" />
    <glyph glyph-name="acute" unicode="&#xb4;" horiz-adv-x="94" 
d="M22 592l40 96h44l-58 -96h-26z" />
    <glyph glyph-name="mu" unicode="&#xb5;" 
d="M171 0h-36v27h-2q-14 -31 -38 -31q-19 0 -30 12h-2q6 -78 6 -80v-112h-36v686h36v-424q0 -30 7 -41t23 -11q14 0 25 14.5t11 40.5v421h36v-502z" />
    <glyph glyph-name="paragraph" unicode="&#xb6;" horiz-adv-x="320" 
d="M158 0v431q-43 0 -80.5 37t-37.5 109q0 74 42 109.5t106 35.5h102v-722h-36v692h-60v-692h-36z" />
    <glyph glyph-name="periodcentered" unicode="&#xb7;" horiz-adv-x="112" 
d="M6 321q0 21 14.5 35.5t35.5 14.5t35.5 -14.5t14.5 -35.5t-14.5 -35.5t-35.5 -14.5t-35.5 14.5t-14.5 35.5z" />
    <glyph glyph-name="cedilla" unicode="&#xb8;" horiz-adv-x="94" 
d="M24 0h19l-3 -33q14 2 19 2q13 0 22 -8.5t9 -24.5q0 -19 -14.5 -31t-40.5 -12q-22 0 -28 4l2 17q12 -3 25 -3q30 0 30 23q0 17 -21 17q-17 0 -25 -5z" />
    <glyph glyph-name="onesuperior" unicode="&#xb9;" horiz-adv-x="146" 
d="M57 291v339q0 20 4 52l-4 -2l-32 -37v40l32 39h30v-431h-30z" />
    <glyph glyph-name="ordmasculine" unicode="&#xba;" horiz-adv-x="144" 
d="M20 466v221q0 39 51 39q53 0 53 -39v-221q0 -39 -53 -39q-51 0 -51 39zM94 470v213q0 21 -23 21q-21 0 -21 -21v-213q0 -21 21 -21q23 0 23 21z" />
    <glyph glyph-name="guillemotright" unicode="&#xbb;" horiz-adv-x="185" 
d="M86 0l44 251l-44 251h26l54 -251l-54 -251h-26zM19 0l44 251l-44 251h26l54 -251l-54 -251h-26z" />
    <glyph glyph-name="onequarter" unicode="&#xbc;" horiz-adv-x="333" 
d="M262 0v108h-81v35l63 288h48v-297h31v-26h-31v-108h-30zM262 134v179q0 13 1 40t1 40v16h-2l-55 -275h55zM77 -35l135 792h28l-135 -792h-28zM47 291v339q0 20 4 52l-4 -2l-32 -37v40l32 39h30v-431h-30z" />
    <glyph glyph-name="onehalf" unicode="&#xbd;" horiz-adv-x="333" 
d="M62 -35l135 792h28l-135 -792h-28zM47 291v339q0 20 4 52l-4 -2l-32 -37v40l32 39h30v-431h-30zM207 0v27l71 247q6 20 6 47v69q0 23 -24 23q-14 0 -19 -6.5t-5 -22.5v-55h-30v58q0 48 57 48q51 0 51 -46v-65q0 -39 -8 -64l-69 -234h81v-26h-111z" />
    <glyph glyph-name="threequarters" unicode="&#xbe;" horiz-adv-x="333" 
d="M262 0v108h-81v35l63 288h48v-297h31v-26h-31v-108h-30zM262 134v179q0 13 1 40t1 40v16h-2l-55 -275h55zM92 -35l135 792h28l-135 -792h-28zM12 621v64q0 41 56 41q53 0 53 -42v-135q0 -32 -36 -34v-2q39 -7 39 -42v-143q0 -41 -54 -41q-60 0 -60 41v71h30v-64
q2 -26 27 -26q27 0 27 26v136q0 18 -7 23.5t-26 5.5h-6v22h5q16 0 23.5 7t7.5 27v121q0 27 -26 27q-23 0 -23 -27v-56h-30z" />
    <glyph glyph-name="questiondown" unicode="&#xbf;" horiz-adv-x="222" 
d="M141 -113v97h36v-100q0 -72 -68 -72q-42 0 -59.5 18t-17.5 67v96q0 50 20 110l18 54q20 58 20 99v116h36v-140q0 -38 -28.5 -113t-29.5 -113v-120q0 -44 38 -44q35 0 35 45zM84 486v52h44v-52h-44z" />
    <glyph glyph-name="Agrave" unicode="&#xc0;" 
d="M172 0l-23 211h-99l-22 -211h-36l81 722h56l83 -722h-40zM54 241h92l-25 237q-19 168 -20 218h-2q-4 -36 -9.5 -109t-9.5 -109zM101 767l-58 96h44l40 -96h-26z" />
    <glyph glyph-name="Aacute" unicode="&#xc1;" 
d="M172 0l-23 211h-99l-22 -211h-36l81 722h56l83 -722h-40zM54 241h92l-25 237q-19 168 -20 218h-2q-4 -36 -9.5 -109t-9.5 -109zM77 767l40 96h44l-58 -96h-26z" />
    <glyph glyph-name="Acircumflex" unicode="&#xc2;" 
d="M172 0l-23 211h-99l-22 -211h-36l81 722h56l83 -722h-40zM54 241h92l-25 237q-19 168 -20 218h-2q-4 -36 -9.5 -109t-9.5 -109zM41 767l46 96h30l46 -96h-30l-31 66l-31 -66h-30z" />
    <glyph glyph-name="Atilde" unicode="&#xc3;" 
d="M172 0l-23 211h-99l-22 -211h-36l81 722h56l83 -722h-40zM54 241h92l-25 237q-19 168 -20 218h-2q-4 -36 -9.5 -109t-9.5 -109zM49 785h-22v7q0 20 8 37.5t28 17.5q13 0 37 -15q30 -15 36 -15q19 0 19 27v5h22v-7q0 -20 -8 -37.5t-28 -17.5q-12 0 -40 15q-24 15 -35 15
q-17 0 -17 -26v-6z" />
    <glyph glyph-name="Adieresis" unicode="&#xc4;" 
d="M172 0l-23 211h-99l-22 -211h-36l81 722h56l83 -722h-40zM54 241h92l-25 237q-19 168 -20 218h-2q-4 -36 -9.5 -109t-9.5 -109zM127 811v52h44v-52h-44zM33 811v52h44v-52h-44z" />
    <glyph glyph-name="Aring" unicode="&#xc5;" 
d="M172 0l-23 211h-99l-22 -211h-36l81 722h56l83 -722h-40zM54 241h92l-25 237q-19 168 -20 218h-2q-4 -36 -9.5 -109t-9.5 -109zM48 808q0 23 16 39t38 16t38 -16t16 -39q0 -22 -16 -38t-38 -16t-38 16t-16 38zM70 808q0 -14 9 -23t23 -9t23 9t9 23t-9.5 23.5t-22.5 9.5
t-22.5 -9.5t-9.5 -23.5z" />
    <glyph glyph-name="AE" unicode="&#xc6;" horiz-adv-x="315" 
d="M0 0l128 722h174v-30h-117l16 -306h92v-30h-92l16 -326h85v-30h-118l-10 211h-102l-36 -211h-36zM76 241h94l-14 451h-2z" />
    <glyph glyph-name="Ccedilla" unicode="&#xc7;" 
d="M185 203v-129q0 -78 -81 -78l-3 -29q14 2 19 2q13 0 22 -8.5t9 -24.5q0 -19 -14.5 -31t-40.5 -12q-22 0 -28 4l2 17q12 -3 25 -3q30 0 30 23q0 17 -21 17q-18 0 -25 -5l6 54q-31 3 -48.5 22.5t-17.5 51.5v574q0 37 22.5 57.5t62.5 20.5q81 0 81 -78v-119h-40v113
q0 54 -41 54q-21 0 -33 -12t-12 -33v-580q0 -21 12 -33t33 -12q23 0 32 12.5t9 41.5v123h40z" />
    <glyph glyph-name="Egrave" unicode="&#xc8;" horiz-adv-x="185" 
d="M33 0v722h137v-30h-97v-306h91v-30h-91v-326h104v-30h-144zM92 767l-58 96h44l40 -96h-26z" />
    <glyph glyph-name="Eacute" unicode="&#xc9;" horiz-adv-x="185" 
d="M33 0v722h137v-30h-97v-306h91v-30h-91v-326h104v-30h-144zM68 767l40 96h44l-58 -96h-26z" />
    <glyph glyph-name="Ecircumflex" unicode="&#xca;" horiz-adv-x="185" 
d="M33 0v722h137v-30h-97v-306h91v-30h-91v-326h104v-30h-144zM32 767l46 96h30l46 -96h-30l-31 66l-31 -66h-30z" />
    <glyph glyph-name="Edieresis" unicode="&#xcb;" horiz-adv-x="185" 
d="M33 0v722h137v-30h-97v-306h91v-30h-91v-326h104v-30h-144zM118 811v52h44v-52h-44zM24 811v52h44v-52h-44z" />
    <glyph glyph-name="Igrave" unicode="&#xcc;" horiz-adv-x="112" 
d="M36 0v722h40v-722h-40zM55 767l-58 96h44l40 -96h-26z" />
    <glyph glyph-name="Iacute" unicode="&#xcd;" horiz-adv-x="112" 
d="M36 0v722h40v-722h-40zM31 767l40 96h44l-58 -96h-26z" />
    <glyph glyph-name="Icircumflex" unicode="&#xce;" horiz-adv-x="112" 
d="M36 0v722h40v-722h-40zM-5 767l46 96h30l46 -96h-30l-31 66l-31 -66h-30z" />
    <glyph glyph-name="Idieresis" unicode="&#xcf;" horiz-adv-x="112" 
d="M36 0v722h40v-722h-40zM81 811v52h44v-52h-44zM-13 811v52h44v-52h-44z" />
    <glyph glyph-name="Eth" unicode="&#xd0;" horiz-adv-x="241" 
d="M33 0v374h-33v30h33v318h85q90 0 90 -77v-568q0 -77 -90 -77h-85zM73 30h41q54 0 54 44v574q0 44 -54 44h-41v-288h55v-30h-55v-344z" />
    <glyph glyph-name="Ntilde" unicode="&#xd1;" horiz-adv-x="259" 
d="M33 0v722h60l68 -466q12 -85 33 -226h2q-10 200 -10 232v460h40v-722h-60l-70 460q-5 30 -28 232h-2q1 -40 2.5 -88t3 -80.5t1.5 -41.5v-482h-40zM77 785h-22v7q0 20 8 37.5t28 17.5q13 0 37 -15q30 -15 36 -15q19 0 19 27v5h22v-7q0 -20 -8 -37.5t-28 -17.5
q-12 0 -40 15q-24 15 -35 15q-17 0 -17 -26v-6z" />
    <glyph glyph-name="Ograve" unicode="&#xd2;" horiz-adv-x="241" 
d="M208 648v-574q0 -38 -22.5 -58t-64.5 -20t-65 20.5t-23 57.5v574q0 37 23 57.5t65 20.5t64.5 -20t22.5 -58zM168 75v572q0 49 -47 49q-22 0 -35 -12.5t-13 -36.5v-572q0 -24 13 -36.5t35 -12.5q47 0 47 49zM120 767l-58 96h44l40 -96h-26z" />
    <glyph glyph-name="Oacute" unicode="&#xd3;" horiz-adv-x="241" 
d="M208 648v-574q0 -38 -22.5 -58t-64.5 -20t-65 20.5t-23 57.5v574q0 37 23 57.5t65 20.5t64.5 -20t22.5 -58zM168 75v572q0 49 -47 49q-22 0 -35 -12.5t-13 -36.5v-572q0 -24 13 -36.5t35 -12.5q47 0 47 49zM96 767l40 96h44l-58 -96h-26z" />
    <glyph glyph-name="Ocircumflex" unicode="&#xd4;" horiz-adv-x="241" 
d="M208 648v-574q0 -38 -22.5 -58t-64.5 -20t-65 20.5t-23 57.5v574q0 37 23 57.5t65 20.5t64.5 -20t22.5 -58zM168 75v572q0 49 -47 49q-22 0 -35 -12.5t-13 -36.5v-572q0 -24 13 -36.5t35 -12.5q47 0 47 49zM60 767l46 96h30l46 -96h-30l-31 66l-31 -66h-30z" />
    <glyph glyph-name="Otilde" unicode="&#xd5;" horiz-adv-x="241" 
d="M208 648v-574q0 -38 -22.5 -58t-64.5 -20t-65 20.5t-23 57.5v574q0 37 23 57.5t65 20.5t64.5 -20t22.5 -58zM168 75v572q0 49 -47 49q-22 0 -35 -12.5t-13 -36.5v-572q0 -24 13 -36.5t35 -12.5q47 0 47 49zM68 785h-22v7q0 20 8 37.5t28 17.5q13 0 37 -15q30 -15 36 -15
q19 0 19 27v5h22v-7q0 -20 -8 -37.5t-28 -17.5q-12 0 -40 15q-24 15 -35 15q-17 0 -17 -26v-6z" />
    <glyph glyph-name="Odieresis" unicode="&#xd6;" horiz-adv-x="241" 
d="M208 648v-574q0 -38 -22.5 -58t-64.5 -20t-65 20.5t-23 57.5v574q0 37 23 57.5t65 20.5t64.5 -20t22.5 -58zM168 75v572q0 49 -47 49q-22 0 -35 -12.5t-13 -36.5v-572q0 -24 13 -36.5t35 -12.5q47 0 47 49zM146 811v52h44v-52h-44zM52 811v52h44v-52h-44z" />
    <glyph glyph-name="multiply" unicode="&#xd7;" horiz-adv-x="600" 
d="M79 54l199 199l-199 198l22 23l199 -198l198 198l23 -23l-199 -198l199 -199l-23 -22l-198 198l-199 -198z" />
    <glyph glyph-name="Oslash" unicode="&#xd8;" horiz-adv-x="241" 
d="M73 233l95 384v30q0 49 -47 49q-22 0 -35 -12.5t-13 -36.5v-352q0 -20 -2 -62h2zM193 698l23 88h36l-44 -160v-552q0 -38 -22.5 -58t-64.5 -20q-54 0 -76 34l-26 -94h-30l44 165v547q0 37 23 57.5t65 20.5q49 0 72 -28zM168 75v357q0 22 2 66h-2l-95 -377v-46
q0 -24 13 -36.5t35 -12.5q47 0 47 49z" />
    <glyph glyph-name="Ugrave" unicode="&#xd9;" horiz-adv-x="241" 
d="M168 722h40v-648q0 -38 -22.5 -58t-64.5 -20t-65 20.5t-23 57.5v648h40v-647q0 -24 13 -36.5t35 -12.5q47 0 47 49v647zM120 767l-58 96h44l40 -96h-26z" />
    <glyph glyph-name="Uacute" unicode="&#xda;" horiz-adv-x="241" 
d="M168 722h40v-648q0 -38 -22.5 -58t-64.5 -20t-65 20.5t-23 57.5v648h40v-647q0 -24 13 -36.5t35 -12.5q47 0 47 49v647zM96 767l40 96h44l-58 -96h-26z" />
    <glyph glyph-name="Ucircumflex" unicode="&#xdb;" horiz-adv-x="241" 
d="M168 722h40v-648q0 -38 -22.5 -58t-64.5 -20t-65 20.5t-23 57.5v648h40v-647q0 -24 13 -36.5t35 -12.5q47 0 47 49v647zM60 767l46 96h30l46 -96h-30l-31 66l-31 -66h-30z" />
    <glyph glyph-name="Udieresis" unicode="&#xdc;" horiz-adv-x="241" 
d="M168 722h40v-648q0 -38 -22.5 -58t-64.5 -20t-65 20.5t-23 57.5v648h40v-647q0 -24 13 -36.5t35 -12.5q47 0 47 49v647zM146 811v52h44v-52h-44zM52 811v52h44v-52h-44z" />
    <glyph glyph-name="Yacute" unicode="&#xdd;" 
d="M103 331l62 391h40l-83 -437v-285h-40v285l-83 437h40l62 -391h2zM77 767l40 96h44l-58 -96h-26z" />
    <glyph glyph-name="Thorn" unicode="&#xde;" horiz-adv-x="222" 
d="M33 0v722h40v-137h50q39 0 60.5 -22.5t21.5 -56.5v-216q0 -34 -21.5 -56.5t-60.5 -22.5h-50v-211h-40zM73 241h43q49 0 49 45v224q0 45 -49 45h-43v-314z" />
    <glyph glyph-name="germandbls" unicode="&#xdf;" horiz-adv-x="222" 
d="M28 0v655q0 71 69 71t69 -71v-154l-11 -9q-25 -20 -25 -54q0 -31 13 -62l49 -113q15 -33 15 -81v-119q0 -67 -57 -67q-33 0 -46 13t-13 43v95h30v-90q0 -17 5.5 -24t19.5 -7q25 0 25 31v129q0 34 -20 81l-40 92q-17 39 -17 73q0 36 24 66l12 15v146q0 37 -33 37t-33 -37
v-659h-36z" />
    <glyph glyph-name="agrave" unicode="&#xe0;" horiz-adv-x="185" 
d="M61 359h-36v96q0 51 69 51q66 0 66 -51v-455h-36v25h-2q-14 -29 -47 -29q-50 0 -50 45v191q0 35 18.5 52.5t64.5 17.5h16v145q0 29 -30 29q-33 0 -33 -29v-88zM61 226v-177q0 -23 27 -23q16 0 26 16t10 39v191h-10q-28 0 -40.5 -9.5t-12.5 -36.5zM92 592l-58 96h44
l40 -96h-26z" />
    <glyph glyph-name="aacute" unicode="&#xe1;" horiz-adv-x="185" 
d="M61 359h-36v96q0 51 69 51q66 0 66 -51v-455h-36v25h-2q-14 -29 -47 -29q-50 0 -50 45v191q0 35 18.5 52.5t64.5 17.5h16v145q0 29 -30 29q-33 0 -33 -29v-88zM61 226v-177q0 -23 27 -23q16 0 26 16t10 39v191h-10q-28 0 -40.5 -9.5t-12.5 -36.5zM68 592l40 96h44
l-58 -96h-26z" />
    <glyph glyph-name="acircumflex" unicode="&#xe2;" horiz-adv-x="185" 
d="M61 359h-36v96q0 51 69 51q66 0 66 -51v-455h-36v25h-2q-14 -29 -47 -29q-50 0 -50 45v191q0 35 18.5 52.5t64.5 17.5h16v145q0 29 -30 29q-33 0 -33 -29v-88zM61 226v-177q0 -23 27 -23q16 0 26 16t10 39v191h-10q-28 0 -40.5 -9.5t-12.5 -36.5zM32 592l46 96h30l46 -96
h-30l-31 66l-31 -66h-30z" />
    <glyph glyph-name="atilde" unicode="&#xe3;" horiz-adv-x="185" 
d="M61 359h-36v96q0 51 69 51q66 0 66 -51v-455h-36v25h-2q-14 -29 -47 -29q-50 0 -50 45v191q0 35 18.5 52.5t64.5 17.5h16v145q0 29 -30 29q-33 0 -33 -29v-88zM61 226v-177q0 -23 27 -23q16 0 26 16t10 39v191h-10q-28 0 -40.5 -9.5t-12.5 -36.5zM40 610h-22v7
q0 20 8 37.5t28 17.5q13 0 37 -15q30 -15 36 -15q19 0 19 27v5h22v-7q0 -20 -8 -37.5t-28 -17.5q-12 0 -40 15q-24 15 -35 15q-17 0 -17 -26v-6z" />
    <glyph glyph-name="adieresis" unicode="&#xe4;" horiz-adv-x="185" 
d="M61 359h-36v96q0 51 69 51q66 0 66 -51v-455h-36v25h-2q-14 -29 -47 -29q-50 0 -50 45v191q0 35 18.5 52.5t64.5 17.5h16v145q0 29 -30 29q-33 0 -33 -29v-88zM61 226v-177q0 -23 27 -23q16 0 26 16t10 39v191h-10q-28 0 -40.5 -9.5t-12.5 -36.5zM118 636v52h44v-52h-44z
M24 636v52h44v-52h-44z" />
    <glyph glyph-name="aring" unicode="&#xe5;" horiz-adv-x="185" 
d="M61 359h-36v96q0 51 69 51q66 0 66 -51v-455h-36v25h-2q-14 -29 -47 -29q-50 0 -50 45v191q0 35 18.5 52.5t64.5 17.5h16v145q0 29 -30 29q-33 0 -33 -29v-88zM61 633q0 -13 9.5 -22.5t22.5 -9.5t22.5 9.5t9.5 22.5q0 14 -9.5 23.5t-22.5 9.5t-22.5 -9.5t-9.5 -23.5z
M61 226v-177q0 -23 27 -23q16 0 26 16t10 39v191h-10q-28 0 -40.5 -9.5t-12.5 -36.5zM39 633q0 23 16 39t38 16t38 -16t16 -39t-15.5 -38.5t-38.5 -15.5t-38.5 15.5t-15.5 38.5z" />
    <glyph glyph-name="ae" unicode="&#xe6;" horiz-adv-x="278" 
d="M59 215v-161q0 -28 25 -28q16 0 26.5 15.5t10.5 39.5v176h-9q-27 0 -40 -8.5t-13 -33.5zM157 442v-155h62v155q0 34 -31 34t-31 -34zM219 167h36v-111q0 -27 -17 -43.5t-50 -16.5q-36 0 -52 28q-15 -28 -53 -28q-60 0 -60 45v185q0 61 83 61h15v155q0 34 -30 34
q-32 0 -32 -34v-83h-36v96q0 51 68 51q34 0 51 -22q16 22 46 22q67 0 67 -60v-189h-98v-197q0 -34 31 -34t31 34v107z" />
    <glyph glyph-name="ccedilla" unicode="&#xe7;" horiz-adv-x="167" 
d="M148 168v-112q0 -55 -56 -60l-3 -29q14 2 19 2q13 0 22 -8.5t9 -24.5q0 -19 -14.5 -31t-40.5 -12q-22 0 -28 4l2 17q12 -3 25 -3q30 0 30 23q0 17 -21 17q-18 0 -25 -5l5 50q-53 7 -53 60v390q0 60 65 60q64 0 64 -60v-101h-36v97q0 34 -28 34q-29 0 -29 -34v-387
q0 -29 29 -29q28 0 28 27v115h36z" />
    <glyph glyph-name="egrave" unicode="&#xe8;" horiz-adv-x="185" 
d="M124 167h36v-111q0 -27 -17 -43.5t-51 -16.5q-33 0 -50 16.5t-17 43.5v390q0 60 67 60q68 0 68 -60v-202h-99v-184q0 -34 31 -34q32 0 32 34v107zM124 274v168q0 34 -32 34q-31 0 -31 -34v-168h63zM92 592l-58 96h44l40 -96h-26z" />
    <glyph glyph-name="eacute" unicode="&#xe9;" horiz-adv-x="185" 
d="M124 167h36v-111q0 -27 -17 -43.5t-51 -16.5q-33 0 -50 16.5t-17 43.5v390q0 60 67 60q68 0 68 -60v-202h-99v-184q0 -34 31 -34q32 0 32 34v107zM124 274v168q0 34 -32 34q-31 0 -31 -34v-168h63zM68 592l40 96h44l-58 -96h-26z" />
    <glyph glyph-name="ecircumflex" unicode="&#xea;" horiz-adv-x="185" 
d="M124 167h36v-111q0 -27 -17 -43.5t-51 -16.5q-33 0 -50 16.5t-17 43.5v390q0 60 67 60q68 0 68 -60v-202h-99v-184q0 -34 31 -34q32 0 32 34v107zM124 274v168q0 34 -32 34q-31 0 -31 -34v-168h63zM32 592l46 96h30l46 -96h-30l-31 66l-31 -66h-30z" />
    <glyph glyph-name="edieresis" unicode="&#xeb;" horiz-adv-x="185" 
d="M124 167h36v-111q0 -27 -17 -43.5t-51 -16.5q-33 0 -50 16.5t-17 43.5v390q0 60 67 60q68 0 68 -60v-202h-99v-184q0 -34 31 -34q32 0 32 34v107zM124 274v168q0 34 -32 34q-31 0 -31 -34v-168h63zM118 636v52h44v-52h-44zM24 636v52h44v-52h-44z" />
    <glyph glyph-name="igrave" unicode="&#xec;" horiz-adv-x="94" 
d="M29 0v502h36v-502h-36zM46 592l-58 96h44l40 -96h-26z" />
    <glyph glyph-name="iacute" unicode="&#xed;" horiz-adv-x="94" 
d="M29 0v502h36v-502h-36zM22 592l40 96h44l-58 -96h-26z" />
    <glyph glyph-name="icircumflex" unicode="&#xee;" horiz-adv-x="94" 
d="M29 0v502h36v-502h-36zM-14 592l46 96h30l46 -96h-30l-31 66l-31 -66h-30z" />
    <glyph glyph-name="idieresis" unicode="&#xef;" horiz-adv-x="94" 
d="M29 0v502h36v-502h-36zM72 636v52h44v-52h-44zM-22 636v52h44v-52h-44z" />
    <glyph glyph-name="eth" unicode="&#xf0;" 
d="M69 441v-380q0 -35 33 -35t33 35v380q0 35 -33 35t-33 -35zM33 61v380q0 32 18 48.5t48 16.5q23 0 39 -11q-2 59 -12 92q-12 43 -32 69l-44 -30l-16 24l43 28q-19 20 -39 32l24 16q22 -14 39 -30l43 30l16 -24l-41 -28q31 -40 43 -100q9 -48 9 -132v-381q0 -29 -19 -47
t-50 -18t-50 18t-19 47z" />
    <glyph glyph-name="ntilde" unicode="&#xf1;" 
d="M33 0v502h36v-27h2q5 11 18 21t29 10q27 0 40 -13.5t13 -45.5v-447h-36v434q0 24 -7 33t-23 9q-14 0 -25 -14.5t-11 -40.5v-421h-36zM49 610h-22v7q0 20 8 37.5t28 17.5q13 0 37 -15q30 -15 36 -15q19 0 19 27v5h22v-7q0 -20 -8 -37.5t-28 -17.5q-12 0 -40 15
q-24 15 -35 15q-17 0 -17 -26v-6z" />
    <glyph glyph-name="ograve" unicode="&#xf2;" 
d="M33 61v380q0 65 69 65t69 -65v-380q0 -29 -19 -47t-50 -18t-50 18t-19 47zM69 441v-380q0 -35 33 -35t33 35v380q0 35 -33 35t-33 -35zM101 592l-58 96h44l40 -96h-26z" />
    <glyph glyph-name="oacute" unicode="&#xf3;" 
d="M33 61v380q0 65 69 65t69 -65v-380q0 -29 -19 -47t-50 -18t-50 18t-19 47zM69 441v-380q0 -35 33 -35t33 35v380q0 35 -33 35t-33 -35zM77 592l40 96h44l-58 -96h-26z" />
    <glyph glyph-name="ocircumflex" unicode="&#xf4;" 
d="M33 61v380q0 65 69 65t69 -65v-380q0 -29 -19 -47t-50 -18t-50 18t-19 47zM69 441v-380q0 -35 33 -35t33 35v380q0 35 -33 35t-33 -35zM41 592l46 96h30l46 -96h-30l-31 66l-31 -66h-30z" />
    <glyph glyph-name="otilde" unicode="&#xf5;" 
d="M33 61v380q0 65 69 65t69 -65v-380q0 -29 -19 -47t-50 -18t-50 18t-19 47zM69 441v-380q0 -35 33 -35t33 35v380q0 35 -33 35t-33 -35zM49 610h-22v7q0 20 8 37.5t28 17.5q13 0 37 -15q30 -15 36 -15q19 0 19 27v5h22v-7q0 -20 -8 -37.5t-28 -17.5q-12 0 -40 15
q-24 15 -35 15q-17 0 -17 -26v-6z" />
    <glyph glyph-name="odieresis" unicode="&#xf6;" 
d="M69 441v-380q0 -35 33 -35t33 35v380q0 35 -33 35t-33 -35zM33 61v380q0 65 69 65t69 -65v-380q0 -29 -19 -47t-50 -18t-50 18t-19 47zM127 636v52h44v-52h-44zM33 636v52h44v-52h-44z" />
    <glyph glyph-name="divide" unicode="&#xf7;" horiz-adv-x="600" 
d="M47 238v30h506v-30h-506zM250 50q0 21 14.5 35.5t35.5 14.5t35.5 -14.5t14.5 -35.5t-14.5 -35.5t-35.5 -14.5t-35.5 14.5t-14.5 35.5zM250 456q0 21 14.5 35.5t35.5 14.5t35.5 -14.5t14.5 -35.5t-14.5 -35.5t-35.5 -14.5t-35.5 14.5t-14.5 35.5z" />
    <glyph glyph-name="oslash" unicode="&#xf8;" 
d="M71 167l64 264v10q0 35 -33 35t-33 -35v-274h2zM135 61v278h-2l-64 -258v-20q0 -35 33 -35t33 35zM151 491l20 77h30l-31 -113q1 -6 1 -14v-380q0 -29 -19 -47t-50 -18q-34 0 -51 19l-22 -81h-26l31 115q-1 5 -1 12v380q0 65 69 65q31 0 49 -15z" />
    <glyph glyph-name="ugrave" unicode="&#xf9;" 
d="M171 0h-36v27h-2q-5 -11 -18 -21t-29 -10q-27 0 -40 13.5t-13 45.5v447h36v-434q0 -24 7 -33t23 -9q14 0 25 14.5t11 40.5v421h36v-502zM101 592l-58 96h44l40 -96h-26z" />
    <glyph glyph-name="uacute" unicode="&#xfa;" 
d="M171 0h-36v27h-2q-5 -11 -18 -21t-29 -10q-27 0 -40 13.5t-13 45.5v447h36v-434q0 -24 7 -33t23 -9q14 0 25 14.5t11 40.5v421h36v-502zM77 592l40 96h44l-58 -96h-26z" />
    <glyph glyph-name="ucircumflex" unicode="&#xfb;" 
d="M171 0h-36v27h-2q-5 -11 -18 -21t-29 -10q-27 0 -40 13.5t-13 45.5v447h36v-434q0 -24 7 -33t23 -9q14 0 25 14.5t11 40.5v421h36v-502zM41 592l46 96h30l46 -96h-30l-31 66l-31 -66h-30z" />
    <glyph glyph-name="udieresis" unicode="&#xfc;" 
d="M171 0h-36v27h-2q-5 -11 -18 -21t-29 -10q-27 0 -40 13.5t-13 45.5v447h36v-434q0 -24 7 -33t23 -9q14 0 25 14.5t11 40.5v421h36v-502zM127 636v52h44v-52h-44zM33 636v52h44v-52h-44z" />
    <glyph glyph-name="yacute" unicode="&#xfd;" horiz-adv-x="167" 
d="M162 502l-86 -686h-30l21 180l-62 506h36l42 -434h2l41 434h36zM59 592l40 96h44l-58 -96h-26z" />
    <glyph glyph-name="thorn" unicode="&#xfe;" 
d="M33 -184v906h36v-241h2q13 25 47 25q53 0 53 -59v-388q0 -29 -14.5 -46t-40.5 -17q-33 0 -45 23h-2v-203h-36zM135 61v381q0 34 -32 34q-15 0 -24.5 -14.5t-9.5 -31.5v-369q0 -17 11.5 -26t25.5 -9q29 0 29 35z" />
    <glyph glyph-name="ydieresis" unicode="&#xff;" horiz-adv-x="167" 
d="M162 502l-86 -686h-30l21 180l-62 506h36l42 -434h2l41 434h36zM109 636v52h44v-52h-44zM15 636v52h44v-52h-44z" />
    <glyph glyph-name="dotlessi" unicode="&#x131;" horiz-adv-x="94" 
d="M29 0v502h36v-502h-36z" />
    <glyph glyph-name="Lslash" unicode="&#x141;" horiz-adv-x="185" 
d="M73 397l70 78v-44l-70 -78v-323h105v-30h-145v309l-33 -37v44l33 37v369h40v-325z" />
    <glyph glyph-name="lslash" unicode="&#x142;" horiz-adv-x="94" 
d="M65 409l29 31v-48l-29 -31v-361h-36v321l-29 -33v48l29 33v353h36v-313z" />
    <glyph glyph-name="OE" unicode="&#x152;" horiz-adv-x="333" 
d="M209 30h103v-30h-124q-10 0 -34 -2t-36 -2q-40 0 -62.5 20.5t-22.5 57.5v574q0 42 25 60t59 18q14 0 40 -2q24 -2 36 -2h112v-30h-96v-306h91v-30h-91v-326zM169 33v657q-24 6 -44 6q-52 0 -52 -56v-565q0 -24 13 -36.5t35 -12.5q37 0 48 7z" />
    <glyph glyph-name="oe" unicode="&#x153;" horiz-adv-x="278" 
d="M221 274v168q0 34 -31 34t-31 -34v-168h62zM221 167h36v-111q0 -27 -17 -43.5t-50 -16.5q-38 0 -51 27q-18 -27 -49 -27t-50 18t-19 47v380q0 65 69 65q33 0 50 -26q14 26 50 26q67 0 67 -60v-202h-98v-184q0 -34 31 -34t31 34v107zM123 62v379q0 35 -33 35t-33 -35v-379
q0 -36 33 -36t33 36z" />
    <glyph glyph-name="Scaron" unicode="&#x160;" horiz-adv-x="209" 
d="M55 201v-131q0 -44 46 -44q26 0 37.5 10.5t11.5 35.5v124q0 44 -21 93l-84 159q-26 49 -26 98v105q0 35 22.5 55t60.5 20q82 0 82 -67v-129h-36v125q0 41 -43 41q-20 0 -31.5 -12t-11.5 -31v-112q0 -34 16 -69l82 -157q30 -60 30 -109v-136q0 -74 -86 -74q-85 0 -85 77
v128h36zM90 767l-46 96h30l31 -66l31 66h30l-46 -96h-30z" />
    <glyph glyph-name="scaron" unicode="&#x161;" horiz-adv-x="167" 
d="M18 167h36v-111q0 -30 30 -30q29 0 29 30v86q0 44 -12 64l-59 97l-11 19q-13 23 -13 57v71q0 25 16.5 40.5t48.5 15.5q64 0 64 -58v-87h-36v81q0 34 -28 34q-29 0 -29 -34v-68q0 -28 14 -50l18 -30l47 -74q16 -27 16 -65v-100q0 -27 -17.5 -43t-49.5 -16q-29 0 -46.5 14
t-17.5 39v118zM69 592l-46 96h30l31 -66l31 66h30l-46 -96h-30z" />
    <glyph glyph-name="Ydieresis" unicode="&#x178;" 
d="M103 331l62 391h40l-83 -437v-285h-40v285l-83 437h40l62 -391h2zM127 811v52h44v-52h-44zM33 811v52h44v-52h-44z" />
    <glyph glyph-name="Zcaron" unicode="&#x17d;" horiz-adv-x="167" 
d="M0 0v40l122 652h-111v30h147v-40l-122 -652h131v-30h-167zM69 767l-46 96h30l31 -66l31 66h30l-46 -96h-30z" />
    <glyph glyph-name="zcaron" unicode="&#x17e;" horiz-adv-x="130" 
d="M3 0v40l89 432h-83v30h118v-44l-89 -428h89v-30h-124zM50 592l-46 96h30l31 -66l31 66h30l-46 -96h-30z" />
    <glyph glyph-name="florin" unicode="&#x192;" horiz-adv-x="224" 
d="M54 418l1 30h39l10 209q2 42 16.5 55.5t49.5 13.5h9v-30h-14q-13 0 -18.5 -9.5t-6.5 -39.5l-10 -199h39l-1 -30h-38l-22 -476q-1 -31 -15 -41.5t-45 -10.5h-16v30h8q31 0 32 25l22 473h-40z" />
    <glyph glyph-name="circumflex" unicode="&#x2c6;" horiz-adv-x="94" 
d="M-14 592l46 96h30l46 -96h-30l-31 66l-31 -66h-30z" />
    <glyph glyph-name="caron" unicode="&#x2c7;" horiz-adv-x="94" 
d="M32 592l-46 96h30l31 -66l31 66h30l-46 -96h-30z" />
    <glyph glyph-name="uni02C9" unicode="&#x2c9;" horiz-adv-x="94" 
d="M-18 630v30h130v-30h-130z" />
    <glyph glyph-name="breve" unicode="&#x2d8;" horiz-adv-x="94" 
d="M-19 672h22v-5q0 -14 12 -23.5t32 -9.5t32 9.5t12 23.5v5h22v-5q0 -31 -17.5 -47t-48.5 -16t-48.5 16t-17.5 47v5z" />
    <glyph glyph-name="dotaccent" unicode="&#x2d9;" horiz-adv-x="94" 
d="M25 636v52h44v-52h-44z" />
    <glyph glyph-name="ring" unicode="&#x2da;" horiz-adv-x="94" 
d="M-7 633q0 23 16 39t38 16t38 -16t16 -39t-15.5 -38.5t-38.5 -15.5t-38.5 15.5t-15.5 38.5zM15 633q0 -13 9.5 -22.5t22.5 -9.5t22.5 9.5t9.5 22.5q0 14 -9.5 23.5t-22.5 9.5t-22.5 -9.5t-9.5 -23.5z" />
    <glyph glyph-name="ogonek" unicode="&#x2db;" horiz-adv-x="94" 
d="M132 -87v-18q-18 -2 -29 -2q-20 0 -32.5 11.5t-12.5 32.5q0 50 22 75h20q-16 -23 -16 -67q0 -13 6 -23.5t14 -10.5q17 0 28 2z" />
    <glyph glyph-name="tilde" unicode="&#x2dc;" horiz-adv-x="94" 
d="M-6 610h-22v7q0 20 8 37.5t28 17.5q13 0 37 -15q30 -15 36 -15q19 0 19 27v5h22v-7q0 -20 -8 -37.5t-28 -17.5q-12 0 -40 15q-24 15 -35 15q-17 0 -17 -26v-6z" />
    <glyph glyph-name="hungarumlaut" unicode="&#x2dd;" horiz-adv-x="94" 
d="M-40 592l40 96h44l-58 -96h-26zM50 592l40 96h44l-58 -96h-26z" />
    <glyph glyph-name="uni03A9" unicode="&#x3a9;" horiz-adv-x="312" 
d="M100 33v4q-67 139 -67 350q0 166 34.5 246.5t92.5 80.5q51 0 84.5 -81.5t33.5 -243.5q0 -221 -68 -352v-4h71v-33h-107v26q34 62 53 159.5t19 190.5q0 52 -5 101.5t-14.5 97.5t-27.5 77.5t-43 29.5q-41 0 -66 -81.5t-25 -217.5q0 -88 21 -195t51 -162v-26h-108v33h71z
" />
    <glyph glyph-name="uni03BC" unicode="&#x3bc;" 
d="M171 0h-36v27h-2q-14 -31 -38 -31q-19 0 -30 12h-2q6 -78 6 -80v-112h-36v686h36v-424q0 -30 7 -41t23 -11q14 0 25 14.5t11 40.5v421h36v-502z" />
    <glyph glyph-name="pi" unicode="&#x3c0;" horiz-adv-x="263" 
d="M238 490h-33v-361q0 -91 8 -129h-30q-9 30 -9 125v365h-77q0 -125 -10 -274.5t-24 -215.5h-31q15 72 24 215.5t9 274.5q-22 0 -43 -6l-6 19q10 18 64 18h162z" />
    <glyph glyph-name="uni2010" unicode="&#x2010;" horiz-adv-x="111" 
d="M9 238v26h93v-26h-93z" />
    <glyph glyph-name="endash" unicode="&#x2013;" horiz-adv-x="500" 
d="M0 238v26h500v-26h-500z" />
    <glyph glyph-name="emdash" unicode="&#x2014;" horiz-adv-x="1000" 
d="M0 238v26h1000v-26h-1000z" />
    <glyph glyph-name="quoteleft" unicode="&#x2018;" horiz-adv-x="112" 
d="M22 566l38 156h30l-24 -156h-44z" />
    <glyph glyph-name="quoteright" unicode="&#x2019;" horiz-adv-x="112" 
d="M22 566l24 156h44l-38 -156h-30z" />
    <glyph glyph-name="quotesinglbase" unicode="&#x201a;" horiz-adv-x="112" 
d="M22 -104l24 156h44l-38 -156h-30z" />
    <glyph glyph-name="quotedblleft" unicode="&#x201c;" horiz-adv-x="167" 
d="M89 566l38 156h30l-24 -156h-44zM10 566l38 156h30l-24 -156h-44z" />
    <glyph glyph-name="quotedblright" unicode="&#x201d;" horiz-adv-x="167" 
d="M10 566l24 156h44l-38 -156h-30zM89 566l24 156h44l-38 -156h-30z" />
    <glyph glyph-name="quotedblbase" unicode="&#x201e;" horiz-adv-x="167" 
d="M10 -104l24 156h44l-38 -156h-30zM89 -104l24 156h44l-38 -156h-30z" />
    <glyph glyph-name="dagger" unicode="&#x2020;" horiz-adv-x="222" 
d="M96 0v578h-90v30h90v114h30v-114h90v-30h-90v-578h-30z" />
    <glyph glyph-name="daggerdbl" unicode="&#x2021;" horiz-adv-x="222" 
d="M96 0v134h-90v30h90v410h-90v30h90v118h30v-118h90v-30h-90v-410h90v-30h-90v-134h-30z" />
    <glyph glyph-name="bullet" unicode="&#x2022;" horiz-adv-x="500" 
d="M69 361q0 75 53 128t128 53t128 -53t53 -128t-53 -128t-128 -53t-128 53t-53 128z" />
    <glyph glyph-name="ellipsis" unicode="&#x2026;" horiz-adv-x="1000" 
d="M145 0v52h44v-52h-44zM478 0v52h44v-52h-44zM811 0v52h44v-52h-44z" />
    <glyph glyph-name="perthousand" unicode="&#x2030;" horiz-adv-x="407" 
d="M302 36v298q0 40 45 40q42 0 45 -40v-298q0 -40 -45 -40t-45 40zM366 39v292q0 21 -19 21t-19 -21v-292q0 -21 19 -21t19 21zM15 388v298q0 40 45 40q42 0 45 -40v-298q0 -40 -45 -40t-45 40zM79 391v292q0 21 -19 21t-19 -21v-292q0 -21 19 -21t19 21zM173 36v298
q0 40 45 40q42 0 45 -40v-298q0 -40 -45 -40t-45 40zM237 39v292q0 21 -19 21t-19 -21v-292q0 -21 19 -21t19 21zM58 -35l135 792h28l-135 -792h-28z" />
    <glyph glyph-name="guilsinglleft" unicode="&#x2039;" horiz-adv-x="112" 
d="M70 0l-54 251l54 251h26l-44 -251l44 -251h-26z" />
    <glyph glyph-name="guilsinglright" unicode="&#x203a;" horiz-adv-x="112" 
d="M16 0l44 251l-44 251h26l54 -251l-54 -251h-26z" />
    <glyph glyph-name="fraction" unicode="&#x2044;" horiz-adv-x="167" 
d="M2 -35l135 792h28l-135 -792h-28z" />
    <glyph glyph-name="Euro" unicode="&#x20ac;" horiz-adv-x="224" 
d="M224 692l-8 -38q-7 21 -28 33q-15 9 -37 9q-27 0 -40 -11q-13 -10 -13 -34v-215h80l-6 -30h-74v-70h62l-6 -30h-56v-235q0 -20 13 -33q12 -12 41 -12q23 0 39 9t27 24v-40q-17 -13 -27 -16q-16 -7 -40 -7q-39 0 -60 14q-29 20 -29 64v232h-62l6 30h56v70h-62l6 30h56v212
q0 40 24 60q22 18 65 18q26 0 46 -10q17 -9 27 -24z" />
    <glyph glyph-name="afii61289" unicode="&#x2113;" horiz-adv-x="253" 
d="M215 88l20 -13q-29 -74 -85 -74q-47 0 -64 52t-16 168v19q-20 -27 -27 -39l-18 21q33 45 45 65v268q0 129 18.5 177.5t54.5 48.5q26 0 42.5 -33t16.5 -97q0 -191 -103 -365v-37q0 -127 11.5 -172.5t42.5 -45.5q14 0 27 10.5t18.5 18.5t16.5 28zM99 573v-239
q76 156 76 316q0 100 -34 100q-42 0 -42 -177z" />
    <glyph glyph-name="trademark" unicode="&#x2122;" horiz-adv-x="990" 
d="M209 310v382h-144v30h318v-30h-144v-382h-30zM829 310v382h-6l-163 -382h-22l-163 382h-6v-382h-30v412h52l158 -364l158 364h52v-412h-30z" />
    <glyph glyph-name="Omega" unicode="&#x2126;" horiz-adv-x="312" 
d="M100 33v4q-67 139 -67 350q0 166 34.5 246.5t92.5 80.5q51 0 84.5 -81.5t33.5 -243.5q0 -221 -68 -352v-4h71v-33h-107v26q34 62 53 159.5t19 190.5q0 52 -5 101.5t-14.5 97.5t-27.5 77.5t-43 29.5q-41 0 -66 -81.5t-25 -217.5q0 -88 21 -195t51 -162v-26h-108v33h71z
" />
    <glyph glyph-name="estimated" unicode="&#x212e;" horiz-adv-x="880" 
d="M845 351h-657q-5 0 -5 -5v-198q0 -12 9 -23q103 -108 248 -108q77 0 144.5 32.5t116.5 88.5h59q-56 -65 -140.5 -103t-180.5 -38q-168 0 -286.5 106.5t-118.5 257.5t118.5 258t286.5 107q169 0 287.5 -107t118.5 -258v-10zM696 377v199q0 15 -10 24q-104 104 -246 104
t-247 -107q-10 -9 -10 -25v-195q0 -7 5 -7h504q4 0 4 7z" />
    <glyph glyph-name="partialdiff" unicode="&#x2202;" horiz-adv-x="261" 
d="M50 724l-15 28q41 45 78 45q25 0 46.5 -17.5t41 -56.5t30.5 -114.5t11 -180.5q0 -115 -10.5 -200t-29 -133t-41 -70.5t-48.5 -22.5q-88 0 -88 216q0 114 35.5 190.5t82.5 76.5q43 0 67 -55h1v24q0 141 -28 226t-71 85q-35 0 -62 -41zM116 33h2q35 0 61 91t30 241
q-20 88 -64 88q-35 0 -60.5 -67.5t-25.5 -163.5q0 -189 57 -189z" />
    <glyph glyph-name="uni2206" unicode="&#x2206;" horiz-adv-x="289" 
d="M22 0v22l109 699h29l111 -699v-22h-249zM53 29h182l-71 468q-11 69 -21 151h-3q-3 -38 -18 -152z" />
    <glyph glyph-name="product" unicode="&#x220f;" horiz-adv-x="314" 
d="M296 673h-40v-771h-30v771h-139v-771h-30v771h-40v33h279v-33z" />
    <glyph glyph-name="summation" unicode="&#x2211;" horiz-adv-x="274" 
d="M263 -98h-247v27l140 371l-131 381v25h219v-30h-180v-5l125 -368l-136 -363v-5h210v-33z" />
    <glyph glyph-name="minus" unicode="&#x2212;" horiz-adv-x="600" 
d="M47 238v30h506v-30h-506z" />
    <glyph glyph-name="uni2215" unicode="&#x2215;" horiz-adv-x="167" 
d="M2 -35l135 792h28l-135 -792h-28z" />
    <glyph glyph-name="uni2219" unicode="&#x2219;" horiz-adv-x="112" 
d="M6 321q0 21 14.5 35.5t35.5 14.5t35.5 -14.5t14.5 -35.5t-14.5 -35.5t-35.5 -14.5t-35.5 14.5t-14.5 35.5z" />
    <glyph glyph-name="radical" unicode="&#x221a;" horiz-adv-x="317" 
d="M301 836l-114 -1002h-28l-98 496l-37 -13l-6 23l71 23l69 -363q12 -60 12 -88h1q2 27 7 73l98 851h25z" />
    <glyph glyph-name="infinity" unicode="&#x221e;" horiz-adv-x="473" 
d="M445 301v-1q0 -43 -27 -70t-66 -27q-52 0 -117 71q-22 -23 -34 -34.5t-35.5 -24t-46.5 -12.5q-40 0 -66 27t-26 66q0 42 25.5 69t68.5 27q34 0 61 -19.5t58 -55.5q25 28 35.5 38.5t33.5 23.5t47 13q40 0 64.5 -25t24.5 -66zM121 227h1q10 0 20.5 3.5t18 7.5t18 13
t14.5 13t15 16.5t13 14.5q-19 23 -31 35.5t-32.5 24.5t-42.5 12q-28 0 -44.5 -20.5t-15.5 -50.5q1 -31 19 -50t47 -19zM353 367h-1q-10 0 -20.5 -4t-18 -8.5t-18 -14.5t-15 -15t-15 -16.5t-11.5 -12.5q26 -28 37.5 -38.5t28.5 -20.5t33 -10q30 0 47.5 20.5t17.5 48.5
q0 71 -65 71z" />
    <glyph glyph-name="integral" unicode="&#x222b;" 
d="M190 846l-9 -23q-12 4 -17 4q-17 0 -30 -28q-18 -42 -18 -184q0 -77 2 -264.5t2 -263.5q0 -155 -31 -207q-20 -33 -51 -33q-16 0 -25 9l8 26q12 -4 19 -4q18 0 32 32q16 39 16 179q0 76 -2 265.5t-2 263.5q0 147 29 201q19 36 53 36q15 0 24 -9z" />
    <glyph glyph-name="approxequal" unicode="&#x2248;" horiz-adv-x="292" 
d="M252 376l22 -13q-21 -66 -74 -66q-20 0 -58 24q-35 23 -50 23q-36 0 -53 -51l-23 12q11 31 31.5 48.5t44.5 17.5q26 0 65 -26q31 -22 48 -22q27 0 47 53zM252 281l22 -13q-22 -66 -73 -66q-21 0 -59 25q-37 23 -49 23q-37 0 -54 -51l-23 11q24 67 78 67q24 0 63 -27
q32 -22 48 -22q27 0 47 53z" />
    <glyph glyph-name="notequal" unicode="&#x2260;" horiz-adv-x="292" 
d="M206 407l-22 -53h77v-28h-87l-34 -81h121v-28h-132l-25 -60l-20 10l19 50h-73v28h85l32 81h-117v28h128l26 64z" />
    <glyph glyph-name="lessequal" unicode="&#x2264;" horiz-adv-x="292" 
d="M261 163l-231 156v24l231 156v-36l-198 -130v-2l198 -132v-36zM261 100h-231v31h231v-31z" />
    <glyph glyph-name="greaterequal" unicode="&#x2265;" horiz-adv-x="292" 
d="M30 499l231 -156v-24l-231 -156v36l197 130v2l-197 132v36zM261 100h-231v31h231v-31z" />
    <glyph glyph-name="lozenge" unicode="&#x25ca;" horiz-adv-x="319" 
d="M286 353l-113 -361h-28l-113 361l113 362h28zM254 352l-86 276q-3 9 -6 26.5t-4 21.5h-1q-3 -32 -8 -48l-85 -274l86 -277q5 -15 8 -48h3q4 35 8 48z" />
    <glyph glyph-name="fi" unicode="&#xfb01;" 
d="M139 0v502h36v-502h-36zM135 636v52h44v-52h-44zM33 0v472h-28v30h28v171q0 49 50 49h23v-30h-16q-21 0 -21 -28v-162h37v-30h-37v-472h-36z" />
    <glyph glyph-name="fl" unicode="&#xfb02;" 
d="M139 0v722h36v-722h-36zM33 0v472h-28v30h28v171q0 49 50 49h23v-30h-16q-21 0 -21 -28v-162h37v-30h-37v-472h-36z" />
    <glyph glyph-name="a.superior" horiz-adv-x="120" 
d="M11 637v55q0 34 48 34q29 0 40 -8.5t11 -25.5v-261h-30v6v7h-2q-8 -17 -34 -17q-34 0 -34 30v106q0 42 61 42h9v81q0 18 -19 18q-20 0 -20 -18v-49h-30zM80 482v101h-6q-18 0 -26 -5.5t-8 -21.5v-91q0 -16 16 -16q24 0 24 33z" />
    <glyph glyph-name="o.superior" horiz-adv-x="144" 
d="M20 466v221q0 39 51 39q53 0 53 -39v-221q0 -39 -53 -39q-51 0 -51 39zM94 470v213q0 21 -23 21q-21 0 -21 -21v-213q0 -21 21 -21q23 0 23 21z" />
    <glyph glyph-name="one.superior" horiz-adv-x="146" 
d="M57 291v339q0 20 4 52l-4 -2l-32 -37v40l32 39h30v-431h-30z" />
    <glyph glyph-name="two.superior" horiz-adv-x="146" 
d="M18 291v27l71 247q6 20 6 47v69q0 23 -24 23q-14 0 -19 -6.5t-5 -22.5v-55h-30v58q0 48 57 48q51 0 51 -46v-65q0 -39 -8 -64l-69 -234h81v-26h-111z" />
    <glyph glyph-name="three.superior" horiz-adv-x="146" 
d="M16 399h30v-64q2 -26 27 -26q27 0 27 26v136q0 18 -7 23.5t-26 5.5h-6v22h5q16 0 23.5 7t7.5 27v121q0 27 -26 27q-23 0 -23 -27v-56h-30v64q0 41 56 41q53 0 53 -42v-135q0 -32 -36 -34v-2q39 -7 39 -42v-143q0 -41 -54 -41q-60 0 -60 41v71z" />
    </font>
</defs>
</svg>
